<?xml version="1.0" encoding="UTF-8"?>
<svg version="1.1" xmlns="http://www.w3.org/2000/svg" width="256" height="256">
<path d="M0 0 C1.08925781 -0.020625 2.17851562 -0.04125 3.30078125 -0.0625 C4.35394531 -0.06765625 5.40710938 -0.0728125 6.4921875 -0.078125 C7.93247314 -0.09214355 7.93247314 -0.09214355 9.40185547 -0.10644531 C13.36807557 0.41271206 15.98106364 2.18777338 18.875 4.875 C20.49269714 7.94862456 20.62509121 10.69103293 20.81640625 14.12890625 C21.01335691 16.5474251 21.01335691 16.5474251 23.125 19.25 C25.40731934 20.08216204 25.40731934 20.08216204 28 20.625 C31.3020564 21.55891494 33.0066386 22.15184664 35.6875 24.375 C37.09109234 27.18218468 37.42381704 28.8642062 37.71484375 31.9296875 C37.79468506 32.73905762 37.87452637 33.54842773 37.95678711 34.38232422 C38.04005249 35.30682373 38.04005249 35.30682373 38.125 36.25 C39.71368896 36.2185791 39.71368896 36.2185791 41.33447266 36.18652344 C45.28159957 36.11386615 49.22866792 36.06810746 53.17626953 36.03027344 C54.88144894 36.01021631 56.58656006 35.98296343 58.29150391 35.94824219 C60.74919524 35.89946139 63.20597366 35.87697281 65.6640625 35.859375 C66.79879501 35.82840729 66.79879501 35.82840729 67.95645142 35.79681396 C73.10390007 35.79465489 76.17328171 36.66333484 80.125 40.25 C82.72741763 45.26444784 83.56080067 49.36840174 83.50595093 55.0300293 C83.5106309 55.78244494 83.51531087 56.53486059 83.52013266 57.31007671 C83.53203674 59.8149735 83.52264368 62.31931853 83.51318359 64.82421875 C83.51725134 66.6266817 83.52259436 68.42914215 83.52911377 70.2315979 C83.54276899 75.11585755 83.53749611 79.9999267 83.52797651 84.88418961 C83.52037065 90.00051631 83.52742811 95.11682693 83.53213501 100.2331543 C83.53758985 108.82441124 83.53040805 117.41559076 83.51611328 126.00683594 C83.49978731 135.93335646 83.50507601 145.85969211 83.5215925 155.78620815 C83.53521507 164.31549122 83.53712324 172.8447187 83.52927649 181.37400913 C83.52460423 186.46530245 83.52396287 191.55650893 83.53388596 196.64779663 C83.54256454 201.4347637 83.53651736 206.22149287 83.51920319 211.0084343 C83.51524312 212.76318339 83.51636417 214.51795258 83.52299118 216.27269363 C83.53121588 218.67205447 83.52087448 221.07065783 83.50595093 223.4699707 C83.51264309 224.16074046 83.51933526 224.85151022 83.52623022 225.56321239 C83.46635157 230.54260136 82.35571855 233.88809804 80.125 238.25 C76.16520928 241.9623038 72.5418893 242.37570942 67.2618866 242.39044189 C66.03796707 242.39615204 64.81404755 242.40186218 63.55303955 242.40774536 C62.19445811 242.4089907 60.83587655 242.4101158 59.47729492 242.41113281 C58.04818087 242.41576156 56.61906805 242.42078629 55.18995667 242.42617798 C51.30555828 242.4392988 47.42117718 242.44574635 43.53676009 242.45018864 C41.1096465 242.45311995 38.68253762 242.45722488 36.25542641 242.46169281 C28.6607192 242.47536708 21.06602278 242.48503401 13.47130412 242.4888947 C4.70589774 242.49337504 -4.05935267 242.51092202 -12.82471162 242.5398953 C-19.60103386 242.56151601 -26.37731222 242.57159919 -33.15366858 242.57293582 C-37.20041028 242.5739836 -41.24700534 242.57988549 -45.29371071 242.59775543 C-49.10142616 242.61424285 -52.90888486 242.61638847 -56.71662331 242.60761642 C-58.11219979 242.6068464 -59.50779011 242.61118431 -60.90333176 242.62107468 C-62.81249097 242.63380886 -64.72175349 242.62612032 -66.63093567 242.61749268 C-67.69816266 242.61895924 -68.76538965 242.6204258 -69.86495686 242.6219368 C-74.2576577 242.07915153 -77.6529904 240.55628612 -80.6875 237.3125 C-83.16396983 233.01126293 -83.02145501 228.68510337 -83.01544189 223.83073425 C-83.01841302 223.08088188 -83.02138414 222.33102951 -83.0244453 221.55845433 C-83.03312077 219.04441073 -83.03463956 216.53041481 -83.03613281 214.01635742 C-83.04076178 212.21433918 -83.04578654 210.41232191 -83.05117798 208.61030579 C-83.06429585 203.71353497 -83.07074567 198.81677785 -83.07518864 193.91999221 C-83.07812016 190.86051674 -83.08222511 187.80104501 -83.08669281 184.74157143 C-83.10036572 175.16863274 -83.11003356 165.59570262 -83.1138947 156.02275485 C-83.11837601 144.97306203 -83.13592819 133.92349287 -83.1648953 122.87383765 C-83.18651096 114.33188981 -83.19659891 105.78997677 -83.19793582 97.24800187 C-83.19898387 92.14658594 -83.20489176 87.04528629 -83.22275543 81.94389915 C-83.23923422 77.14468621 -83.24139253 72.345677 -83.23261642 67.54644585 C-83.23184597 65.78685206 -83.23618992 64.02724732 -83.24607468 62.26768112 C-83.25879663 59.86161766 -83.25291638 57.45627551 -83.24249268 55.05021667 C-83.25054908 54.35740056 -83.25860548 53.66458444 -83.26690602 52.95077389 C-83.21642754 47.95324554 -82.14264435 44.61541475 -79.875 40.25 C-75.2005211 36.00734165 -71.40996311 35.69574232 -65.4140625 35.859375 C-64.62349457 35.86503479 -63.83292664 35.87069458 -63.0184021 35.87652588 C-60.51163273 35.89878513 -58.00633187 35.94895847 -55.5 36 C-53.7929895 36.02007867 -52.08595643 36.03832704 -50.37890625 36.0546875 C-46.21037804 36.09861516 -42.04293736 36.16756704 -37.875 36.25 C-37.90722656 35.16203125 -37.93945312 34.0740625 -37.97265625 32.953125 C-37.85192335 28.37493334 -36.89538321 26.65761182 -33.875 23.25 C-30.4375 21.5 -30.4375 21.5 -26.875 20.25 C-23.10608698 19.1222402 -23.10608698 19.1222402 -20.875 16.25 C-20.7730875 14.83454858 -20.69250044 13.41750929 -20.625 12 C-20.11821619 6.93216186 -18.53583713 4.73651156 -14.875 1.25 C-10.0312941 -0.36456863 -5.07239017 0.02384202 0 0 Z M-13.875 9.25 C-14.205 12.88 -14.535 16.51 -14.875 20.25 C-12.66129949 18.46342243 -12.66129949 18.46342243 -12.6796875 16.0859375 C-12.70289062 15.27382813 -12.72609375 14.46171875 -12.75 13.625 C-12.76804687 12.80773437 -12.78609375 11.99046875 -12.8046875 11.1484375 C-12.82789062 10.52195312 -12.85109375 9.89546875 -12.875 9.25 C-13.205 9.25 -13.535 9.25 -13.875 9.25 Z M-30.875 29.25 C-32.38430882 32.26861764 -32.05938844 35.37991303 -32.0625 38.6875 C-32.07474609 39.36876953 -32.08699219 40.05003906 -32.09960938 40.75195312 C-32.11055848 44.47829809 -31.99505619 46.06991571 -29.875 49.25 C-29.875 42.65 -29.875 36.05 -29.875 29.25 C-30.205 29.25 -30.535 29.25 -30.875 29.25 Z M-75.47619057 44.78782749 C-77.33938864 48.06741295 -77.2911877 50.97488949 -77.25595093 54.64476013 C-77.2606309 55.39194008 -77.26531087 56.13912004 -77.27013266 56.90894181 C-77.28210394 59.4140028 -77.27261728 61.91851888 -77.26318359 64.42358398 C-77.26724839 66.21899739 -77.27258975 68.0144083 -77.27911377 69.80981445 C-77.29280511 74.68791915 -77.28748095 79.56583376 -77.27797651 84.44394183 C-77.27038817 89.54654123 -77.27742334 94.64912421 -77.28213501 99.75172424 C-77.28759546 108.32222418 -77.28039386 116.8926466 -77.26611328 125.46313477 C-77.24979143 135.37315952 -77.25507075 145.28299908 -77.2715925 155.19301933 C-77.28520531 163.69843171 -77.28712786 172.20378832 -77.27927649 180.70920807 C-77.27459819 185.79042189 -77.27397937 190.87154865 -77.28388596 195.95275688 C-77.29255015 200.73064976 -77.28654366 205.50830388 -77.26920319 210.28617096 C-77.2652352 212.04014502 -77.26637772 213.79413916 -77.27299118 215.54810524 C-77.28118468 217.94176048 -77.27091208 220.33464983 -77.25595093 222.72825623 C-77.26264309 223.42300708 -77.26933526 224.11775793 -77.27623022 224.83356184 C-77.2242281 229.12062772 -76.51366578 231.84608966 -73.875 235.25 C-71.78966367 236.12822312 -71.78966367 236.12822312 -69.875 236.25 C-70.535 235.26 -71.195 234.27 -71.875 233.25 C-72.06392755 230.68861321 -72.13593226 228.23717771 -72.11550903 225.67610168 C-72.11721788 224.89766346 -72.11892673 224.11922524 -72.12068737 223.31719798 C-72.12398974 220.70071178 -72.11296633 218.08448027 -72.10205078 215.46801758 C-72.10148683 213.59567776 -72.10180291 211.72333749 -72.10293579 209.85099792 C-72.10351093 204.76039029 -72.0917306 199.66987642 -72.07778788 194.57929063 C-72.0653073 189.26214968 -72.06411213 183.94500672 -72.06173706 178.62785339 C-72.05551442 168.55563141 -72.039093 158.48345272 -72.01903808 148.41124982 C-71.99670346 136.94586635 -71.98569179 125.48048084 -71.97564721 114.01508105 C-71.95472745 90.42669668 -71.91953626 66.83835076 -71.875 43.25 C-74.0046011 43.01910258 -74.0046011 43.01910258 -75.47619057 44.78782749 Z " fill="#ECF6FA" transform="translate(127.875,6.75)"/>
<path d="M0 0 C1.08925781 -0.020625 2.17851562 -0.04125 3.30078125 -0.0625 C4.35394531 -0.06765625 5.40710938 -0.0728125 6.4921875 -0.078125 C7.93247314 -0.09214355 7.93247314 -0.09214355 9.40185547 -0.10644531 C13.36807557 0.41271206 15.98106364 2.18777338 18.875 4.875 C20.49269714 7.94862456 20.62509121 10.69103293 20.81640625 14.12890625 C21.01335691 16.5474251 21.01335691 16.5474251 23.125 19.25 C25.40731934 20.08216204 25.40731934 20.08216204 28 20.625 C31.3020564 21.55891494 33.0066386 22.15184664 35.6875 24.375 C37.09109234 27.18218468 37.42381704 28.8642062 37.71484375 31.9296875 C37.79468506 32.73905762 37.87452637 33.54842773 37.95678711 34.38232422 C38.04005249 35.30682373 38.04005249 35.30682373 38.125 36.25 C39.71368896 36.2185791 39.71368896 36.2185791 41.33447266 36.18652344 C45.28159957 36.11386615 49.22866792 36.06810746 53.17626953 36.03027344 C54.88144894 36.01021631 56.58656006 35.98296343 58.29150391 35.94824219 C60.74919524 35.89946139 63.20597366 35.87697281 65.6640625 35.859375 C66.79879501 35.82840729 66.79879501 35.82840729 67.95645142 35.79681396 C73.10390007 35.79465489 76.17328171 36.66333484 80.125 40.25 C82.72741763 45.26444784 83.56080067 49.36840174 83.50595093 55.0300293 C83.5106309 55.78244494 83.51531087 56.53486059 83.52013266 57.31007671 C83.53203674 59.8149735 83.52264368 62.31931853 83.51318359 64.82421875 C83.51725134 66.6266817 83.52259436 68.42914215 83.52911377 70.2315979 C83.54276899 75.11585755 83.53749611 79.9999267 83.52797651 84.88418961 C83.52037065 90.00051631 83.52742811 95.11682693 83.53213501 100.2331543 C83.53758985 108.82441124 83.53040805 117.41559076 83.51611328 126.00683594 C83.49978731 135.93335646 83.50507601 145.85969211 83.5215925 155.78620815 C83.53521507 164.31549122 83.53712324 172.8447187 83.52927649 181.37400913 C83.52460423 186.46530245 83.52396287 191.55650893 83.53388596 196.64779663 C83.54256454 201.4347637 83.53651736 206.22149287 83.51920319 211.0084343 C83.51524312 212.76318339 83.51636417 214.51795258 83.52299118 216.27269363 C83.53121588 218.67205447 83.52087448 221.07065783 83.50595093 223.4699707 C83.51264309 224.16074046 83.51933526 224.85151022 83.52623022 225.56321239 C83.46635157 230.54260136 82.35571855 233.88809804 80.125 238.25 C76.16520928 241.9623038 72.5418893 242.37570942 67.2618866 242.39044189 C66.03796707 242.39615204 64.81404755 242.40186218 63.55303955 242.40774536 C62.19445811 242.4089907 60.83587655 242.4101158 59.47729492 242.41113281 C58.04818087 242.41576156 56.61906805 242.42078629 55.18995667 242.42617798 C51.30555828 242.4392988 47.42117718 242.44574635 43.53676009 242.45018864 C41.1096465 242.45311995 38.68253762 242.45722488 36.25542641 242.46169281 C28.6607192 242.47536708 21.06602278 242.48503401 13.47130412 242.4888947 C4.70589774 242.49337504 -4.05935267 242.51092202 -12.82471162 242.5398953 C-19.60103386 242.56151601 -26.37731222 242.57159919 -33.15366858 242.57293582 C-37.20041028 242.5739836 -41.24700534 242.57988549 -45.29371071 242.59775543 C-49.10142616 242.61424285 -52.90888486 242.61638847 -56.71662331 242.60761642 C-58.11219979 242.6068464 -59.50779011 242.61118431 -60.90333176 242.62107468 C-62.81249097 242.63380886 -64.72175349 242.62612032 -66.63093567 242.61749268 C-67.69816266 242.61895924 -68.76538965 242.6204258 -69.86495686 242.6219368 C-74.2576577 242.07915153 -77.6529904 240.55628612 -80.6875 237.3125 C-83.16396983 233.01126293 -83.02145501 228.68510337 -83.01544189 223.83073425 C-83.01841302 223.08088188 -83.02138414 222.33102951 -83.0244453 221.55845433 C-83.03312077 219.04441073 -83.03463956 216.53041481 -83.03613281 214.01635742 C-83.04076178 212.21433918 -83.04578654 210.41232191 -83.05117798 208.61030579 C-83.06429585 203.71353497 -83.07074567 198.81677785 -83.07518864 193.91999221 C-83.07812016 190.86051674 -83.08222511 187.80104501 -83.08669281 184.74157143 C-83.10036572 175.16863274 -83.11003356 165.59570262 -83.1138947 156.02275485 C-83.11837601 144.97306203 -83.13592819 133.92349287 -83.1648953 122.87383765 C-83.18651096 114.33188981 -83.19659891 105.78997677 -83.19793582 97.24800187 C-83.19898387 92.14658594 -83.20489176 87.04528629 -83.22275543 81.94389915 C-83.23923422 77.14468621 -83.24139253 72.345677 -83.23261642 67.54644585 C-83.23184597 65.78685206 -83.23618992 64.02724732 -83.24607468 62.26768112 C-83.25879663 59.86161766 -83.25291638 57.45627551 -83.24249268 55.05021667 C-83.25054908 54.35740056 -83.25860548 53.66458444 -83.26690602 52.95077389 C-83.21642754 47.95324554 -82.14264435 44.61541475 -79.875 40.25 C-75.2005211 36.00734165 -71.40996311 35.69574232 -65.4140625 35.859375 C-64.62349457 35.86503479 -63.83292664 35.87069458 -63.0184021 35.87652588 C-60.51163273 35.89878513 -58.00633187 35.94895847 -55.5 36 C-53.7929895 36.02007867 -52.08595643 36.03832704 -50.37890625 36.0546875 C-46.21037804 36.09861516 -42.04293736 36.16756704 -37.875 36.25 C-37.90722656 35.16203125 -37.93945312 34.0740625 -37.97265625 32.953125 C-37.85192335 28.37493334 -36.89538321 26.65761182 -33.875 23.25 C-30.4375 21.5 -30.4375 21.5 -26.875 20.25 C-23.10608698 19.1222402 -23.10608698 19.1222402 -20.875 16.25 C-20.7730875 14.83454858 -20.69250044 13.41750929 -20.625 12 C-20.11821619 6.93216186 -18.53583713 4.73651156 -14.875 1.25 C-10.0312941 -0.36456863 -5.07239017 0.02384202 0 0 Z M-13.875 9.25 C-14.205 12.88 -14.535 16.51 -14.875 20.25 C-12.66129949 18.46342243 -12.66129949 18.46342243 -12.6796875 16.0859375 C-12.70289062 15.27382813 -12.72609375 14.46171875 -12.75 13.625 C-12.76804687 12.80773437 -12.78609375 11.99046875 -12.8046875 11.1484375 C-12.82789062 10.52195312 -12.85109375 9.89546875 -12.875 9.25 C-13.205 9.25 -13.535 9.25 -13.875 9.25 Z M-30.875 29.25 C-32.38430882 32.26861764 -32.05938844 35.37991303 -32.0625 38.6875 C-32.07474609 39.36876953 -32.08699219 40.05003906 -32.09960938 40.75195312 C-32.11055848 44.47829809 -31.99505619 46.06991571 -29.875 49.25 C-29.875 42.65 -29.875 36.05 -29.875 29.25 C-30.205 29.25 -30.535 29.25 -30.875 29.25 Z M-74.875 44.25 C-77.26533403 47.83550104 -77.15804431 50.38589011 -77.13569641 54.52450562 C-77.13952196 55.27083114 -77.14334751 56.01715667 -77.14728898 56.78609812 C-77.15763159 59.294156 -77.15362447 61.80198548 -77.1496582 64.31005859 C-77.15400402 66.10532341 -77.15918673 67.90058637 -77.16514587 69.69584656 C-77.17856207 74.57810115 -77.17911157 79.46027845 -77.17658257 84.34254789 C-77.1755145 88.4156865 -77.18039209 92.48880936 -77.185188 96.5619446 C-77.19629253 106.1705401 -77.19671546 115.7790965 -77.19067383 125.38769531 C-77.18463396 135.30507581 -77.19694323 145.22231444 -77.2182439 155.13967073 C-77.23585 163.64930228 -77.24186277 172.15888864 -77.23860615 180.66853774 C-77.23679136 185.75312824 -77.23944887 190.83761758 -77.25332069 195.92219162 C-77.26587807 200.70416188 -77.26397475 205.4859108 -77.25090981 210.26787758 C-77.2485398 212.02346814 -77.25129384 213.77907417 -77.25953293 215.53464699 C-77.26996659 217.93053182 -77.26192734 220.32566935 -77.2492218 222.7215271 C-77.26028323 223.76467656 -77.26028323 223.76467656 -77.27156812 224.82889974 C-77.22363848 229.12246642 -76.70250207 231.96001675 -73.875 235.25 C-69.85413117 237.10166556 -66.30084011 237.50179863 -61.91014099 237.51069641 C-60.73955139 237.51778122 -59.56896179 237.52486603 -58.36289978 237.53216553 C-57.09257401 237.52968811 -55.82224823 237.52721069 -54.51342773 237.5246582 C-53.15121177 237.52900918 -51.78899824 237.53419362 -50.42678833 237.54014587 C-46.73888127 237.55350269 -43.05107689 237.55411848 -39.36315036 237.55158257 C-36.2815052 237.55051105 -33.19988067 237.55540065 -30.11823994 237.560188 C-22.848749 237.57127075 -15.57930975 237.57172691 -8.30981445 237.56567383 C-0.8138963 237.55962823 6.68183443 237.57196264 14.17772061 237.5932439 C20.61949215 237.61085899 27.06120402 237.61686158 33.50299877 237.61360615 C37.34788708 237.6117937 41.19264154 237.61442607 45.03750801 237.62832069 C48.65157813 237.64089374 52.26535562 237.63896016 55.87942123 237.62590981 C57.83576469 237.62241634 59.79211707 237.63372461 61.74842834 237.64547729 C62.91619812 237.63846298 64.0839679 237.63144867 65.28712463 237.6242218 C66.29975656 237.62438954 67.31238848 237.62455729 68.35570621 237.62473011 C71.60253329 237.18538204 73.49139936 236.16933982 76.125 234.25 C77.61722617 231.26554767 77.27663421 228.21050333 77.27890015 224.93716431 C77.2832824 224.17465343 77.28766465 223.41214255 77.2921797 222.62652528 C77.30559137 220.0578178 77.31175181 217.48914464 77.31787109 214.92041016 C77.32577007 213.08426253 77.33403889 211.24811646 77.34265137 209.41197205 C77.36889071 203.37101732 77.38417888 197.33005559 77.3984375 191.2890625 C77.40379601 189.21202973 77.40917351 187.134997 77.41456985 185.05796432 C77.43619957 176.42120528 77.4549382 167.78444812 77.46619225 159.14766884 C77.48244432 146.75545749 77.5156516 134.36355906 77.57259309 121.97146571 C77.61123751 113.26570233 77.63081829 104.56002285 77.63611281 95.85417593 C77.63977324 90.65045099 77.65186806 85.44705965 77.68421555 80.24342728 C77.71420023 75.34976782 77.72064246 70.4566455 77.70883179 65.56291389 C77.70861026 63.76495809 77.71698054 61.96697804 77.73448563 60.16910744 C77.7570586 57.71768605 77.74893949 55.26823214 77.73300171 52.81680298 C77.7468838 52.10221125 77.76076588 51.38761953 77.77506864 50.65137351 C77.71623108 46.98861048 77.37064852 45.51089149 74.82328224 42.80545616 C71.21031828 40.72272109 68.03089898 40.74633846 63.98046875 40.859375 C62.8257885 40.86786469 62.8257885 40.86786469 61.64778137 40.87652588 C59.20204057 40.89882128 56.7577939 40.94900125 54.3125 41 C52.64910978 41.020074 50.98569647 41.0383232 49.32226562 41.0546875 C45.25593942 41.09866316 41.19072256 41.16764021 37.125 41.25 C36.94324219 42.28821899 36.94324219 42.28821899 36.7578125 43.34741211 C36.59023437 44.25241455 36.42265625 45.15741699 36.25 46.08984375 C36.08757812 46.98823975 35.92515625 47.88663574 35.7578125 48.81225586 C34.95293457 51.91283693 33.71119832 53.39116996 31.125 55.25 C28.51469643 56.55515178 26.57629711 56.39138712 23.65307617 56.41113281 C22.50816208 56.42074036 21.36324799 56.4303479 20.18363953 56.44024658 C18.31963249 56.4466214 18.31963249 56.4466214 16.41796875 56.453125 C15.14528641 56.45882507 13.87260406 56.46452515 12.56135559 56.47039795 C9.86370262 56.4798593 7.1661612 56.48675014 4.46850586 56.49023438 C1.01843566 56.4957118 -2.43123841 56.5197232 -5.88118458 56.54820633 C-9.17727006 56.57135968 -12.47337583 56.57328454 -15.76953125 56.578125 C-17.62442924 56.5966452 -17.62442924 56.5966452 -19.51679993 56.61553955 C-20.6711705 56.61253845 -21.82554108 56.60953735 -23.01489258 56.60644531 C-24.02812088 56.61009094 -25.04134918 56.61373657 -26.08528137 56.61749268 C-29.34300194 56.18834959 -31.21973206 55.15056348 -33.875 53.25 C-36.47006987 49.74665567 -36.38026396 45.4595213 -36.875 41.25 C-41.32239413 41.17550749 -45.7694519 41.12123743 -50.21728516 41.08520508 C-51.72841727 41.07017457 -53.23950618 41.04974436 -54.75048828 41.02368164 C-56.93012187 40.98704311 -59.10917575 40.97021662 -61.2890625 40.95703125 C-62.5982666 40.9413208 -63.9074707 40.92561035 -65.25634766 40.90942383 C-69.18403131 41.27908505 -71.55102966 42.15698239 -74.875 44.25 Z " fill="#28343A" transform="translate(127.875,6.75)"/>
<path d="M0 0 C0.84626953 -0.01546875 1.69253906 -0.0309375 2.56445312 -0.046875 C6.64043256 -0.02134028 9.02882356 0.19397098 12.62109375 2.25390625 C14.76584995 4.73526402 15.15402872 5.71867845 15.1875 8.9375 C15.42786972 12.88735917 15.98334534 15.34769986 18.5625 18.5 C21.02424109 20.17046717 23.28856806 20.70029464 26.1875 21.5 C29.5625 22.5 29.5625 22.5 31.5625 24.5 C32.03508908 27.60320261 31.9328622 30.73984834 31.9375 33.875 C31.96199219 34.73867188 31.98648438 35.60234375 32.01171875 36.4921875 C32.01751953 37.74515625 32.01751953 37.74515625 32.0234375 39.0234375 C32.03165527 39.78575684 32.03987305 40.54807617 32.04833984 41.33349609 C31.36026255 44.40183675 29.96920882 45.51941378 27.5625 47.5 C25.05834961 48.00120544 25.05834961 48.00120544 22.21484375 48.00170898 C20.61298218 48.01578041 20.61298218 48.01578041 18.97875977 48.03013611 C17.83076904 48.01890213 16.68277832 48.00766815 15.5 47.99609375 C14.31656006 47.99754898 13.13312012 47.99900421 11.91381836 48.00050354 C9.41224709 47.99884388 6.91066568 47.98727529 4.40917969 47.96655273 C0.57703338 47.93760977 -3.25372903 47.94594128 -7.0859375 47.95898438 C-9.51563173 47.95274674 -11.94532159 47.94435561 -14.375 47.93359375 C-15.52299072 47.93652939 -16.67098145 47.93946503 -17.85375977 47.94248962 C-18.92166748 47.92980545 -19.9895752 47.91712128 -21.08984375 47.90405273 C-22.02820068 47.89864975 -22.96655762 47.89324677 -23.93334961 47.88768005 C-26.89218308 47.42960824 -28.27888894 46.54499689 -30.4375 44.5 C-30.93920898 42.37109375 -30.93920898 42.37109375 -30.93359375 39.9375 C-30.93423828 39.05835938 -30.93488281 38.17921875 -30.93554688 37.2734375 C-30.91556641 36.35820313 -30.89558594 35.44296875 -30.875 34.5 C-30.88208984 33.58476563 -30.88917969 32.66953125 -30.89648438 31.7265625 C-30.83229578 24.99169769 -30.83229578 24.99169769 -29.04296875 22.76318359 C-27.08739532 21.22453747 -25.40120029 20.74858321 -23 20.125 C-18.74191741 18.76795254 -16.5814547 17.60924651 -14.4375 13.5 C-14.10980702 11.21024527 -13.93831883 8.99655815 -13.90625 6.68359375 C-12.33578625 -0.63214989 -6.11898189 -0.11133856 0 0 Z " fill="#3FBCFE" transform="translate(128.4375,11.5)"/>
<path d="M0 0 C28.71 0 57.42 0 87 0 C87.495 2.475 87.495 2.475 88 5 C58.63 5 29.26 5 -1 5 C-0.67 3.35 -0.34 1.7 0 0 Z " fill="#354147" transform="translate(107,173)"/>
<path d="M0 0 C28.71 0 57.42 0 87 0 C87.495 2.475 87.495 2.475 88 5 C58.63 5 29.26 5 -1 5 C-0.67 3.35 -0.34 1.7 0 0 Z " fill="#354147" transform="translate(107,143)"/>
<path d="M0 0 C28.71 0 57.42 0 87 0 C87.495 2.475 87.495 2.475 88 5 C58.63 5 29.26 5 -1 5 C-0.67 3.35 -0.34 1.7 0 0 Z " fill="#354147" transform="translate(107,113)"/>
<path d="M0 0 C28.71 0 57.42 0 87 0 C87.495 2.475 87.495 2.475 88 5 C58.63 5 29.26 5 -1 5 C-0.67 3.35 -0.34 1.7 0 0 Z " fill="#354147" transform="translate(107,83)"/>
<path d="M0 0 C28.71 0 57.42 0 87 0 C87.495 1.98 87.495 1.98 88 4 C86.18884376 5.81115624 83.70122499 5.11995376 81.29098511 5.12442017 C80.47171539 5.12082489 79.65244568 5.11722961 78.80834961 5.11352539 C77.94988937 5.11367142 77.09142914 5.11381744 76.20695496 5.1139679 C73.35539262 5.11326847 70.50389475 5.1054747 67.65234375 5.09765625 C65.68079158 5.09579218 63.70923895 5.09436822 61.73768616 5.09336853 C56.53773733 5.08954251 51.33781625 5.07971152 46.13787842 5.06866455 C40.83606339 5.05845222 35.5342439 5.05387129 30.23242188 5.04882812 C19.82160237 5.03808933 9.41080349 5.02101191 -1 5 C-0.67 3.35 -0.34 1.7 0 0 Z " fill="#323E44" transform="translate(107,203)"/>
<path d="M0 0 C0.77001953 1.6862793 0.77001953 1.6862793 1 4 C-0.73486328 6.39770508 -0.73486328 6.39770508 -3.3203125 9.01953125 C-3.77598602 9.48236008 -4.23165955 9.9451889 -4.70114136 10.42204285 C-5.66853478 11.3972207 -6.64238173 12.36603233 -7.62207031 13.32885742 C-9.11822853 14.80581542 -10.58278474 16.30968629 -12.046875 17.81835938 C-12.99041608 18.76219087 -13.93567511 19.70430871 -14.8828125 20.64453125 C-15.74277832 21.50409424 -16.60274414 22.36365723 -17.48876953 23.24926758 C-20 25 -20 25 -22.6640625 24.89038086 C-25.74201636 23.71716831 -27.53935407 22.06267236 -29.875 19.75 C-30.67679687 18.98171875 -31.47859375 18.2134375 -32.3046875 17.421875 C-34 15 -34 15 -33.7578125 12.203125 C-33.50773437 11.47609375 -33.25765625 10.7490625 -33 10 C-29.37386801 10.56959153 -27.74482259 11.92374534 -25.25 14.5625 C-24.63640625 15.20316406 -24.0228125 15.84382812 -23.390625 16.50390625 C-22.93171875 16.99761719 -22.4728125 17.49132812 -22 18 C-18.48460807 15.12377024 -15.14185201 12.17974907 -11.96875 8.9296875 C-11.43862305 8.38731445 -10.90849609 7.84494141 -10.36230469 7.28613281 C-9.29373132 6.18519804 -8.23176282 5.07781102 -7.17675781 3.96386719 C-3.32778533 0 -3.32778533 0 0 0 Z " fill="#323E44" transform="translate(95,193)"/>
<path d="M0 0 C0.75015381 0.22921143 1.50030762 0.45842285 2.27319336 0.69458008 C-0.15088733 6.31553229 -4.80029212 10.21763862 -9.03930664 14.50708008 C-9.89459961 15.40362305 -10.74989258 16.30016602 -11.63110352 17.22387695 C-12.46319336 18.0662793 -13.2952832 18.90868164 -14.15258789 19.77661133 C-14.90967041 20.55238525 -15.66675293 21.32815918 -16.44677734 22.12744141 C-18.72680664 23.69458008 -18.72680664 23.69458008 -21.35693359 23.55761719 C-24.47736015 22.42125087 -26.24796738 20.77526683 -28.60180664 18.44458008 C-29.40360352 17.67629883 -30.20540039 16.90801758 -31.03149414 16.11645508 C-32.72680664 13.69458008 -32.72680664 13.69458008 -32.48461914 10.89770508 C-32.23454102 10.17067383 -31.98446289 9.44364258 -31.72680664 8.69458008 C-27.43442041 10.34549786 -24.84741514 13.43212574 -21.72680664 16.69458008 C-18.5610299 15.30757333 -16.56654681 13.71615412 -14.23071289 11.18286133 C-13.26875 10.170625 -13.26875 10.170625 -12.28735352 9.13793945 C-10.95128194 7.71305764 -9.62316437 6.28067715 -8.30297852 4.84106445 C-7.33908203 3.83462891 -7.33908203 3.83462891 -6.35571289 2.80786133 C-5.77893799 2.18693604 -5.20216309 1.56601074 -4.60791016 0.92626953 C-2.72680664 -0.30541992 -2.72680664 -0.30541992 0 0 Z " fill="#2E3A40" transform="translate(93.726806640625,164.305419921875)"/>
<path d="M0 0 C0.75015381 0.22921143 1.50030762 0.45842285 2.27319336 0.69458008 C-0.15088733 6.31553229 -4.80029212 10.21763862 -9.03930664 14.50708008 C-9.89459961 15.40362305 -10.74989258 16.30016602 -11.63110352 17.22387695 C-12.46319336 18.0662793 -13.2952832 18.90868164 -14.15258789 19.77661133 C-14.90967041 20.55238525 -15.66675293 21.32815918 -16.44677734 22.12744141 C-18.72680664 23.69458008 -18.72680664 23.69458008 -21.35693359 23.55761719 C-24.47736015 22.42125087 -26.24796738 20.77526683 -28.60180664 18.44458008 C-29.40360352 17.67629883 -30.20540039 16.90801758 -31.03149414 16.11645508 C-32.72680664 13.69458008 -32.72680664 13.69458008 -32.48461914 10.89770508 C-32.23454102 10.17067383 -31.98446289 9.44364258 -31.72680664 8.69458008 C-27.43442041 10.34549786 -24.84741514 13.43212574 -21.72680664 16.69458008 C-18.5610299 15.30757333 -16.56654681 13.71615412 -14.23071289 11.18286133 C-13.26875 10.170625 -13.26875 10.170625 -12.28735352 9.13793945 C-10.95128194 7.71305764 -9.62316437 6.28067715 -8.30297852 4.84106445 C-7.33908203 3.83462891 -7.33908203 3.83462891 -6.35571289 2.80786133 C-5.77893799 2.18693604 -5.20216309 1.56601074 -4.60791016 0.92626953 C-2.72680664 -0.30541992 -2.72680664 -0.30541992 0 0 Z " fill="#2E3A40" transform="translate(93.726806640625,134.305419921875)"/>
<path d="M0 0 C0.75015381 0.22921143 1.50030762 0.45842285 2.27319336 0.69458008 C-0.15088733 6.31553229 -4.80029212 10.21763862 -9.03930664 14.50708008 C-9.89459961 15.40362305 -10.74989258 16.30016602 -11.63110352 17.22387695 C-12.46319336 18.0662793 -13.2952832 18.90868164 -14.15258789 19.77661133 C-14.90967041 20.55238525 -15.66675293 21.32815918 -16.44677734 22.12744141 C-18.72680664 23.69458008 -18.72680664 23.69458008 -21.35693359 23.55761719 C-24.47736015 22.42125087 -26.24796738 20.77526683 -28.60180664 18.44458008 C-29.40360352 17.67629883 -30.20540039 16.90801758 -31.03149414 16.11645508 C-32.72680664 13.69458008 -32.72680664 13.69458008 -32.48461914 10.89770508 C-32.23454102 10.17067383 -31.98446289 9.44364258 -31.72680664 8.69458008 C-27.43442041 10.34549786 -24.84741514 13.43212574 -21.72680664 16.69458008 C-18.5610299 15.30757333 -16.56654681 13.71615412 -14.23071289 11.18286133 C-13.26875 10.170625 -13.26875 10.170625 -12.28735352 9.13793945 C-10.95128194 7.71305764 -9.62316437 6.28067715 -8.30297852 4.84106445 C-7.33908203 3.83462891 -7.33908203 3.83462891 -6.35571289 2.80786133 C-5.77893799 2.18693604 -5.20216309 1.56601074 -4.60791016 0.92626953 C-2.72680664 -0.30541992 -2.72680664 -0.30541992 0 0 Z " fill="#2E3A40" transform="translate(93.726806640625,104.305419921875)"/>
<path d="M0 0 C0.75015381 0.22921143 1.50030762 0.45842285 2.27319336 0.69458008 C-0.15088733 6.31553229 -4.80029212 10.21763862 -9.03930664 14.50708008 C-9.89459961 15.40362305 -10.74989258 16.30016602 -11.63110352 17.22387695 C-12.46319336 18.0662793 -13.2952832 18.90868164 -14.15258789 19.77661133 C-14.90967041 20.55238525 -15.66675293 21.32815918 -16.44677734 22.12744141 C-18.72680664 23.69458008 -18.72680664 23.69458008 -21.35693359 23.55761719 C-24.47736015 22.42125087 -26.24796738 20.77526683 -28.60180664 18.44458008 C-29.40360352 17.67629883 -30.20540039 16.90801758 -31.03149414 16.11645508 C-32.72680664 13.69458008 -32.72680664 13.69458008 -32.48461914 10.89770508 C-32.23454102 10.17067383 -31.98446289 9.44364258 -31.72680664 8.69458008 C-27.43442041 10.34549786 -24.84741514 13.43212574 -21.72680664 16.69458008 C-18.5610299 15.30757333 -16.56654681 13.71615412 -14.23071289 11.18286133 C-13.26875 10.170625 -13.26875 10.170625 -12.28735352 9.13793945 C-10.95128194 7.71305764 -9.62316437 6.28067715 -8.30297852 4.84106445 C-7.33908203 3.83462891 -7.33908203 3.83462891 -6.35571289 2.80786133 C-5.77893799 2.18693604 -5.20216309 1.56601074 -4.60791016 0.92626953 C-2.72680664 -0.30541992 -2.72680664 -0.30541992 0 0 Z " fill="#2E3A40" transform="translate(93.726806640625,74.305419921875)"/>
<path d="M0 0 C4.75 0.75 4.75 0.75 7 3 C7.47258908 6.10320261 7.3703622 9.23984834 7.375 12.375 C7.39949219 13.23867188 7.42398438 14.10234375 7.44921875 14.9921875 C7.45501953 16.24515625 7.45501953 16.24515625 7.4609375 17.5234375 C7.46915527 18.28575684 7.47737305 19.04807617 7.48583984 19.83349609 C6.79718249 22.90442341 5.41221527 24.02140485 3 26 C0.46893311 26.48101807 0.46893311 26.48101807 -2.41113281 26.45410156 C-3.49195129 26.45379944 -4.57276978 26.45349731 -5.68634033 26.45318604 C-6.84687927 26.43254089 -8.00741821 26.41189575 -9.203125 26.390625 C-10.39605164 26.38496521 -11.58897827 26.37930542 -12.8180542 26.37347412 C-16.62911056 26.35107926 -20.43922767 26.30087429 -24.25 26.25 C-26.83331976 26.22993915 -29.41665425 26.21168766 -32 26.1953125 C-38.33365394 26.15120411 -44.66675987 26.08425978 -51 26 C-51 25.67 -51 25.34 -51 25 C-50.36550934 24.99191315 -49.73101868 24.98382629 -49.07730103 24.97549438 C-42.49142936 24.88963817 -35.90586529 24.79014361 -29.3203125 24.68261719 C-26.86040398 24.64426238 -24.40043813 24.60942116 -21.94042969 24.578125 C-18.41059837 24.53261549 -14.88116405 24.47459802 -11.3515625 24.4140625 C-10.24632233 24.40251129 -9.14108215 24.39096008 -8.00234985 24.37905884 C-6.98144257 24.35918915 -5.96053528 24.33931946 -4.90869141 24.31884766 C-3.55633896 24.29886215 -3.55633896 24.29886215 -2.17666626 24.2784729 C0.20898001 24.19879158 0.20898001 24.19879158 2 22 C2.30900255 20.13070615 2.30900255 20.13070615 2.265625 18.0078125 C2.26820313 17.22019531 2.27078125 16.43257812 2.2734375 15.62109375 C2.26183594 14.38552734 2.26183594 14.38552734 2.25 13.125 C2.25773437 12.30902344 2.26546875 11.49304687 2.2734375 10.65234375 C2.26957031 9.46705078 2.26957031 9.46705078 2.265625 8.2578125 C2.26336914 7.5373877 2.26111328 6.81696289 2.25878906 6.07470703 C1.96309477 3.7041315 1.17170679 2.06590407 0 0 Z " fill="#278EDB" transform="translate(153,33)"/>
<path d="M0 0 C3.06345144 -0.10822792 6.1230601 -0.18741479 9.1875 -0.25 C10.05181641 -0.28351562 10.91613281 -0.31703125 11.80664062 -0.3515625 C15.96717734 -0.41532551 18.38881466 -0.34558764 22.07421875 1.73828125 C24.19510146 4.22913539 24.59160377 5.22589596 24.625 8.4375 C24.86599892 12.40421196 25.46316531 14.80546743 28 18 C30.06954847 19.78344178 30.06954847 19.78344178 32 21 C27.13168719 20.54713369 24.51440774 19.41678531 21 16 C19.25171879 13.08413876 18.69944475 10.68434198 18.4375 7.3125 C18.40493693 4.35818712 18.40493693 4.35818712 17 2 C14.14122091 1.76298761 11.30116703 1.57780818 8.4375 1.4375 C7.63119141 1.39431641 6.82488281 1.35113281 5.99414062 1.30664062 C3.99631195 1.20024738 1.9981793 1.09959112 0 1 C0 0.67 0 0.34 0 0 Z " fill="#258EE0" transform="translate(119,12)"/>
<path d="M0 0 C2 2 2 2 2.3125 5.4375 C2 9 2 9 0.875 10.9375 C-1.93512264 12.52990283 -3.82764724 12.45319325 -7 12 C-9.4375 10.375 -9.4375 10.375 -11 8 C-11 4.48640932 -10.6312066 2.72471868 -8.3125 0.0625 C-5.16096578 -1.38550221 -3.29050737 -0.929926 0 0 Z M-5 2 C-5.99 2.99 -6.98 3.98 -8 5 C-7.34 6.32 -6.68 7.64 -6 9 C-4.68 8.67 -3.36 8.34 -2 8 C-1.67 6.68 -1.34 5.36 -1 4 C-2.32 3.34 -3.64 2.68 -5 2 Z " fill="#3DBBFF" transform="translate(187,23)"/>
<path d="M0 0 C0.66 0 1.32 0 2 0 C2.33 0.66 2.66 1.32 3 2 C3.99 2 4.98 2 6 2 C7.125 7.625 7.125 7.625 6 11 C5.01 11 4.02 11 3 11 C2.67 11.66 2.34 12.32 2 13 C1.34 13 0.68 13 0 13 C-0.33 12.34 -0.66 11.68 -1 11 C-1.99 11 -2.98 11 -4 11 C-5.23076923 5.58461538 -5.23076923 5.58461538 -4.0625 2.625 C-3.5365625 1.820625 -3.5365625 1.820625 -3 1 C-2.34 1.33 -1.68 1.66 -1 2 C-0.67 1.34 -0.34 0.68 0 0 Z " fill="#3FBCFF" transform="translate(33,149)"/>
<path d="M0 0 C1.875 1.0625 1.875 1.0625 3 3 C3.63316583 8.90954774 3.63316583 8.90954774 1.875 11.9375 C-0.88980433 13.50422245 -2.88188517 13.38976435 -6 13 C-7.875 11.9375 -7.875 11.9375 -9 10 C-9.63316583 4.09045226 -9.63316583 4.09045226 -7.875 1.0625 C-5.11019567 -0.50422245 -3.11811483 -0.38976435 0 0 Z M-5 3 C-6.29633621 4.06645115 -6.29633621 4.06645115 -6.0625 6.5625 C-6.041875 7.366875 -6.02125 8.17125 -6 9 C-2.95086772 10.01111093 -2.95086772 10.01111093 0 9 C0 7.35 0 5.7 0 4 C-1.65614657 3.61781233 -3.32457024 3.28604898 -5 3 Z " fill="#FFDD00" transform="translate(233,77)"/>
<path d="M0 0 C0.66 0 1.32 0 2 0 C2 1.65 2 3.3 2 5 C3.65 5 5.3 5 7 5 C7 5.99 7 6.98 7 8 C5.35 8 3.7 8 2 8 C2 9.65 2 11.3 2 13 C1.34 13 0.68 13 0 13 C0 11.35 0 9.7 0 8 C-1.65 8 -3.3 8 -5 8 C-5 7.01 -5 6.02 -5 5 C-3.35 5 -1.7 5 0 5 C0 3.35 0 1.7 0 0 Z " fill="#3FBDFF" transform="translate(229,195)"/>
</svg>
