<?xml version="1.0" encoding="UTF-8"?>
<svg version="1.1" xmlns="http://www.w3.org/2000/svg" width="122" height="188">
<path d="M0 0 C6.41236645 2.96805821 11.85485914 6.55994967 15 13 C15 13.66 15 14.32 15 15 C15.74765625 14.62746094 16.4953125 14.25492188 17.265625 13.87109375 C18.25046875 13.39800781 19.2353125 12.92492188 20.25 12.4375 C21.22453125 11.96183594 22.1990625 11.48617188 23.203125 10.99609375 C26.12832895 9.95429626 27.20250825 9.76836093 30 11 C35.01732527 16.01732527 35.51309388 23.5943617 36.3125 30.3125 C37.26042945 37.27670199 38.82256353 42.31343543 42.5703125 48.3359375 C47.2238595 57.00730104 47.47577525 67.37876723 47 77 C47.66 77.33 48.32 77.66 49 78 C49.1875 80.8125 49.1875 80.8125 49 84 C48.01252464 85.0123697 47.01100816 86.0111307 46 87 C44.96964264 89.06133239 44.96964264 89.06133239 44.125 91.3125 C40.43892803 99.81247194 35.22698746 103.98243136 27 108 C23.04674158 109.50866399 19.06092309 110.81381972 15 112 C22.07271303 120.96599052 22.07271303 120.96599052 32 126 C32.66 126.33 33.32 126.66 34 127 C33.7215625 128.4540625 33.7215625 128.4540625 33.4375 129.9375 C33.293125 130.948125 33.14875 131.95875 33 133 C33.33 133.33 33.66 133.66 34 134 C34.39334786 137.54013078 34.45269651 139.35577804 32.375 142.3125 C29.46049054 144.38333567 27.5705812 144.92561289 24 145 C21.625 143.5625 21.625 143.5625 20 142 C19.38125 142.99 18.7625 143.98 18.125 145 C17.42375 145.99 16.7225 146.98 16 148 C15.34 148 14.68 148 14 148 C14.33 149.98 14.66 151.96 15 154 C16.0725 154.061875 17.145 154.12375 18.25 154.1875 C22 155 22 155 24.4375 157.0625 C26.55642801 161.04608466 26.37287119 163.5255457 26 168 C25 169 25 169 23.05053711 169.11352539 C22.2178833 169.10828857 21.38522949 169.10305176 20.52734375 169.09765625 C19.62822266 169.09443359 18.72910156 169.09121094 17.80273438 169.08789062 C16.85720703 169.07951172 15.91167969 169.07113281 14.9375 169.0625 C13.5134082 169.05573242 13.5134082 169.05573242 12.06054688 169.04882812 C9.70696935 169.0370011 7.35351523 169.02052025 5 169 C4.27554225 162.6243157 3.89646359 156.41925741 4 150 C3.34 150 2.68 150 2 150 C2.08378906 151.20398438 2.16757813 152.40796875 2.25390625 153.6484375 C2.3570641 155.22393916 2.45991266 156.79946109 2.5625 158.375 C2.64661133 159.56609375 2.64661133 159.56609375 2.73242188 160.78125 C3.11328125 166.7734375 3.11328125 166.7734375 2 169 C-0.62527189 169.05382106 -3.24944713 169.09358313 -5.875 169.125 C-6.62136719 169.14175781 -7.36773437 169.15851563 -8.13671875 169.17578125 C-10.09194461 169.1933959 -12.04742021 169.10320189 -14 169 C-16 167 -16 167 -16.3125 163.6875 C-15.98064203 159.77157594 -15.48865133 158.00354471 -13 155 C-10.3125 153.6875 -10.3125 153.6875 -8 153 C-7.67 150.69 -7.34 148.38 -7 146 C-7.66 146 -8.32 146 -9 146 C-9.53625 146.825 -10.0725 147.65 -10.625 148.5 C-13.18857424 151.1984992 -13.51466627 151.39634695 -17 151.5 C-19.43457043 151.31412032 -21.14004111 150.94613803 -23.4375 150.0625 C-26.06106856 146.5993895 -26.25082126 143.27023193 -26 139 C-24.35699077 130.86061876 -20.98822276 123.84072959 -15 118 C-14.34 118 -13.68 118 -13 118 C-12.505 116.515 -12.505 116.515 -12 115 C-13.55847656 114.76216797 -13.55847656 114.76216797 -15.1484375 114.51953125 C-27.47359766 112.51565675 -36.17746894 109.84190356 -44.6015625 100.0859375 C-46 98 -46 98 -46 95 C-47.423125 94.814375 -47.423125 94.814375 -48.875 94.625 C-52 94 -52 94 -54 92 C-53.7297482 90.32194969 -53.38614974 88.65522726 -53 87 C-52.9333295 85.29023505 -52.91461581 83.5780988 -52.9375 81.8671875 C-52.94523437 80.89523438 -52.95296875 79.92328125 -52.9609375 78.921875 C-52.98667874 76.91405863 -53.01271331 74.90624599 -53.0390625 72.8984375 C-53.08579958 66.97840752 -52.83526822 61.20990072 -52.17602539 55.32446289 C-51.93341107 52.12067522 -52.4999179 49.16718666 -53 46 C-53.65036082 33.15537387 -51.56846726 22.98146974 -44.125 12.3125 C-42 11 -42 11 -38.4375 11.125 C-35 12 -35 12 -32 14 C-31.67 11.69 -31.34 9.38 -31 7 C-30.40832031 7.20238281 -29.81664063 7.40476562 -29.20703125 7.61328125 C-26.75421076 8.32952084 -24.55413149 8.85738352 -22 9 C-19.2504197 6.91790525 -19.2504197 6.91790525 -17 4 C-11.5184977 0.02322382 -6.75296669 -1.45824933 0 0 Z " fill="#C5211F" transform="translate(64,10)"/>
<path d="M0 0 C-2.16490568 9.43822916 -5.43586233 14.91648201 -13.625 20.1875 C-19.13021067 23.31774936 -24.94074445 25.23011436 -31 27 C-23.92728697 35.96599052 -23.92728697 35.96599052 -14 41 C-13.34 41.33 -12.68 41.66 -12 42 C-12.2784375 43.4540625 -12.2784375 43.4540625 -12.5625 44.9375 C-12.7790625 46.4534375 -12.7790625 46.4534375 -13 48 C-12.67 48.33 -12.34 48.66 -12 49 C-11.60665214 52.54013078 -11.54730349 54.35577804 -13.625 57.3125 C-16.53950946 59.38333567 -18.4294188 59.92561289 -22 60 C-24.375 58.5625 -24.375 58.5625 -26 57 C-26.61875 57.99 -27.2375 58.98 -27.875 60 C-28.926875 61.485 -28.926875 61.485 -30 63 C-30.66 63 -31.32 63 -32 63 C-31.67 64.98 -31.34 66.96 -31 69 C-29.9275 69.061875 -28.855 69.12375 -27.75 69.1875 C-24 70 -24 70 -21.5625 72.0625 C-19.44357199 76.04608466 -19.62712881 78.5255457 -20 83 C-21 84 -21 84 -22.94946289 84.11352539 C-23.7821167 84.10828857 -24.61477051 84.10305176 -25.47265625 84.09765625 C-26.37177734 84.09443359 -27.27089844 84.09121094 -28.19726562 84.08789062 C-29.61555664 84.07532227 -29.61555664 84.07532227 -31.0625 84.0625 C-32.01189453 84.05798828 -32.96128906 84.05347656 -33.93945312 84.04882812 C-36.29303065 84.0370011 -38.64648477 84.02052025 -41 84 C-41.72445775 77.6243157 -42.10353641 71.41925741 -42 65 C-42.66 65 -43.32 65 -44 65 C-43.91621094 66.20398438 -43.83242187 67.40796875 -43.74609375 68.6484375 C-43.6429359 70.22393916 -43.54008734 71.79946109 -43.4375 73.375 C-43.35338867 74.56609375 -43.35338867 74.56609375 -43.26757812 75.78125 C-42.88671875 81.7734375 -42.88671875 81.7734375 -44 84 C-46.62527189 84.05382106 -49.24944713 84.09358313 -51.875 84.125 C-52.62136719 84.14175781 -53.36773437 84.15851563 -54.13671875 84.17578125 C-56.09194461 84.1933959 -58.04742021 84.10320189 -60 84 C-62 82 -62 82 -62.3125 78.6875 C-61.98064203 74.77157594 -61.48865133 73.00354471 -59 70 C-56.3125 68.6875 -56.3125 68.6875 -54 68 C-53.67 65.69 -53.34 63.38 -53 61 C-53.66 61 -54.32 61 -55 61 C-55.53625 61.825 -56.0725 62.65 -56.625 63.5 C-59.18857424 66.1984992 -59.51466627 66.39634695 -63 66.5 C-65.43457043 66.31412032 -67.14004111 65.94613803 -69.4375 65.0625 C-72.06106856 61.5993895 -72.25082126 58.27023193 -72 54 C-70.35699077 45.86061876 -66.98822276 38.84072959 -61 33 C-60.34 33 -59.68 33 -59 33 C-58.67 32.01 -58.34 31.02 -58 30 C-59.55847656 29.76216797 -59.55847656 29.76216797 -61.1484375 29.51953125 C-73.47359766 27.51565675 -82.17746894 24.84190356 -90.6015625 15.0859375 C-92 13 -92 13 -92 10 C-90.71706055 9.93268677 -90.71706055 9.93268677 -89.40820312 9.86401367 C-68.604349 8.92170397 -68.604349 8.92170397 -48.09375 5.5859375 C-44.03006761 4.81630068 -39.79572409 4.10213795 -36 6 C-31.85531334 6.39852756 -29.73643862 6.52891618 -26.296875 4.05859375 C-22.26751985 1.54263384 -19.14856187 1.14214582 -14.5 0.75 C-13.76652344 0.67265625 -13.03304687 0.5953125 -12.27734375 0.515625 C-8.1715873 0.10431487 -4.13041983 -0.07842569 0 0 Z " fill="#F5E5CB" transform="translate(110,95)"/>
<path d="M0 0 C6.41236645 2.96805821 11.85485914 6.55994967 15 13 C15 13.66 15 14.32 15 15 C15.74765625 14.62746094 16.4953125 14.25492188 17.265625 13.87109375 C18.25046875 13.39800781 19.2353125 12.92492188 20.25 12.4375 C21.22453125 11.96183594 22.1990625 11.48617188 23.203125 10.99609375 C26.12832895 9.95429626 27.20250825 9.76836093 30 11 C36.35714823 17.35714823 36.90303316 29.41321814 37.05078125 37.92578125 C37.02564453 38.95251953 37.02564453 38.95251953 37 40 C36.34257812 39.43732422 36.34257812 39.43732422 35.671875 38.86328125 C23.06446564 28.69022938 8.81480769 26.09230684 -7 27 C-9.77651736 27.48359762 -12.2948176 28.18334116 -15 29 C-16.32 29 -17.64 29 -19 29 C-19 29.99 -19 30.98 -19 32 C-21.37890625 34.015625 -21.37890625 34.015625 -24.5625 36.25 C-32.22253833 41.78181407 -37.9313641 47.59319414 -43.421875 55.27734375 C-43.94265625 55.84582031 -44.4634375 56.41429687 -45 57 C-48 57 -48 57 -50.125 55.4375 C-52.52086555 52.32287479 -52.84326758 49.80246491 -53 46 C-53.05994141 44.61167969 -53.05994141 44.61167969 -53.12109375 43.1953125 C-53.37641494 31.39046217 -50.94170307 22.08310773 -44.125 12.3125 C-42 11 -42 11 -38.4375 11.125 C-35 12 -35 12 -32 14 C-31.67 11.69 -31.34 9.38 -31 7 C-30.40832031 7.20238281 -29.81664063 7.40476562 -29.20703125 7.61328125 C-26.75421076 8.32952084 -24.55413149 8.85738352 -22 9 C-19.2504197 6.91790525 -19.2504197 6.91790525 -17 4 C-11.5184977 0.02322382 -6.75296669 -1.45824933 0 0 Z " fill="#E7A427" transform="translate(64,10)"/>
<path d="M0 0 C0 0.66 0 1.32 0 2 C-4.62 3.65 -9.24 5.3 -14 7 C-6.92274972 15.96997691 -6.92274972 15.96997691 3 21 C3.66 21.33 4.32 21.66 5 22 C4.7215625 23.4540625 4.7215625 23.4540625 4.4375 24.9375 C4.293125 25.948125 4.14875 26.95875 4 28 C4.33 28.33 4.66 28.66 5 29 C5.39334786 32.54013078 5.45269651 34.35577804 3.375 37.3125 C0.46049054 39.38333567 -1.4294188 39.92561289 -5 40 C-7.375 38.5625 -7.375 38.5625 -9 37 C-9.61875 37.99 -10.2375 38.98 -10.875 40 C-11.926875 41.485 -11.926875 41.485 -13 43 C-13.66 43 -14.32 43 -15 43 C-14.505 45.97 -14.505 45.97 -14 49 C-12.9275 49.061875 -11.855 49.12375 -10.75 49.1875 C-7 50 -7 50 -4.5625 52.0625 C-2.44357199 56.04608466 -2.62712881 58.5255457 -3 63 C-4 64 -4 64 -5.94946289 64.11352539 C-6.7821167 64.10828857 -7.61477051 64.10305176 -8.47265625 64.09765625 C-9.37177734 64.09443359 -10.27089844 64.09121094 -11.19726562 64.08789062 C-12.61555664 64.07532227 -12.61555664 64.07532227 -14.0625 64.0625 C-15.01189453 64.05798828 -15.96128906 64.05347656 -16.93945312 64.04882812 C-19.29303065 64.0370011 -21.64648477 64.02052025 -24 64 C-24.72445775 57.6243157 -25.10353641 51.41925741 -25 45 C-25.66 45 -26.32 45 -27 45 C-26.87431641 46.80597656 -26.87431641 46.80597656 -26.74609375 48.6484375 C-26.6429359 50.22393916 -26.54008734 51.79946109 -26.4375 53.375 C-26.38142578 54.1690625 -26.32535156 54.963125 -26.26757812 55.78125 C-25.88671875 61.7734375 -25.88671875 61.7734375 -27 64 C-29.62527189 64.05382106 -32.24944713 64.09358313 -34.875 64.125 C-35.62136719 64.14175781 -36.36773437 64.15851563 -37.13671875 64.17578125 C-39.09194461 64.1933959 -41.04742021 64.10320189 -43 64 C-45 62 -45 62 -45.3125 58.6875 C-44.98064203 54.77157594 -44.48865133 53.00354471 -42 50 C-39.3125 48.6875 -39.3125 48.6875 -37 48 C-36.67 45.69 -36.34 43.38 -36 41 C-36.66 41 -37.32 41 -38 41 C-38.53625 41.825 -39.0725 42.65 -39.625 43.5 C-42.18857424 46.1984992 -42.51466627 46.39634695 -46 46.5 C-48.43457043 46.31412032 -50.14004111 45.94613803 -52.4375 45.0625 C-55.06106856 41.5993895 -55.25082126 38.27023193 -55 34 C-53.35699077 25.86061876 -49.98822276 18.84072959 -44 13 C-43.34 13 -42.68 13 -42 13 C-41.67 12.01 -41.34 11.02 -41 10 C-40.34 10.33 -39.68 10.66 -39 11 C-39.79664063 11.94359375 -39.79664063 11.94359375 -40.609375 12.90625 C-47.0588425 20.72093324 -52.19992115 27.80599289 -52.0625 38.25 C-52.041875 39.8175 -52.02125 41.385 -52 43 C-48.7 43 -45.4 43 -42 43 C-41.67 40.69 -41.34 38.38 -41 36 C-39.68 36 -38.36 36 -37 36 C-37.49756092 33.24358584 -37.49756092 33.24358584 -39 31 C-39.60794251 24.92057494 -38.22342628 21.93587149 -35 17 C-33.39968656 20.20062687 -34.96826309 22.72271806 -36 26 C-34.54077307 25.88590407 -33.08259402 25.75834456 -31.625 25.625 C-30.40683594 25.52058594 -30.40683594 25.52058594 -29.1640625 25.4140625 C-26.79665809 25.17107412 -26.79665809 25.17107412 -25 23 C-18.62353103 22.46862759 -17.18082592 22.90958704 -11 26 C-13.97 17.09 -13.97 17.09 -17 8 C-18.98 10.97 -18.98 10.97 -21 14 C-22.44096586 13.57405412 -23.87768712 13.13373367 -25.3125 12.6875 C-26.11300781 12.44386719 -26.91351563 12.20023438 -27.73828125 11.94921875 C-30.11140424 10.95324485 -31.36904391 9.96875929 -33 8 C-33 7.67 -33 7.34 -33 7 C-32.319375 6.98582031 -31.63875 6.97164063 -30.9375 6.95703125 C-21.71004525 6.50302084 -13.66250755 3.97114975 -5 1 C-2 0 -2 0 0 0 Z " fill="#DEB68E" transform="translate(93,115)"/>
<path d="M0 0 C4.32405309 1.28962987 5.63890242 2.63975161 8.5625 6.0625 C9.95821281 7.60427578 11.3540548 9.14593462 12.75 10.6875 C18.58945172 17.2303656 18.58945172 17.2303656 18.5 19.9921875 C17.15555818 22.96116319 15.15499285 24.23592899 12.5625 26.1875 C6.00706574 31.35342089 0.45637322 37.1456508 -4.50390625 43.859375 C-5.14199219 44.58640625 -5.78007812 45.3134375 -6.4375 46.0625 C-9.4375 46.0625 -9.4375 46.0625 -11.5625 44.5 C-13.95836555 41.38537479 -14.28076758 38.86496491 -14.4375 35.0625 C-14.49744141 33.67417969 -14.49744141 33.67417969 -14.55859375 32.2578125 C-14.81391494 20.45296217 -12.37920307 11.14560773 -5.5625 1.375 C-3.4375 0.0625 -3.4375 0.0625 0 0 Z " fill="#F4E2C7" transform="translate(25.4375,20.9375)"/>
<path d="M0 0 C0 0.66 0 1.32 0 2 C-4.62 3.65 -9.24 5.3 -14 7 C-6.92274972 15.96997691 -6.92274972 15.96997691 3 21 C3.66 21.33 4.32 21.66 5 22 C4.7215625 23.4540625 4.7215625 23.4540625 4.4375 24.9375 C4.293125 25.948125 4.14875 26.95875 4 28 C4.33 28.33 4.66 28.66 5 29 C5.39334786 32.54013078 5.45269651 34.35577804 3.375 37.3125 C0.46049054 39.38333567 -1.4294188 39.92561289 -5 40 C-6.36733028 39.04701223 -7.70264493 38.04625409 -9 37 C-11.58462162 36.58282721 -11.58462162 36.58282721 -14 37 C-14.66 37.66 -15.32 38.32 -16 39 C-18.05859375 39.265625 -18.05859375 39.265625 -20.4375 39.25 C-21.61119141 39.25773437 -21.61119141 39.25773437 -22.80859375 39.265625 C-25 39 -25 39 -28 37 C-29.134375 36.896875 -30.26875 36.79375 -31.4375 36.6875 C-35 36 -35 36 -37.4375 33.875 C-39.44189564 30.18691203 -39.57313759 28.15524754 -39 24 C-37.85677689 21.47209717 -36.52583422 19.33643365 -35 17 C-33.39968656 20.20062687 -34.96826309 22.72271806 -36 26 C-34.54077307 25.88590407 -33.08259402 25.75834456 -31.625 25.625 C-30.40683594 25.52058594 -30.40683594 25.52058594 -29.1640625 25.4140625 C-26.79665809 25.17107412 -26.79665809 25.17107412 -25 23 C-18.62353103 22.46862759 -17.18082592 22.90958704 -11 26 C-12.98 20.06 -14.96 14.12 -17 8 C-18.98 10.97 -18.98 10.97 -21 14 C-22.44096586 13.57405412 -23.87768712 13.13373367 -25.3125 12.6875 C-26.11300781 12.44386719 -26.91351563 12.20023438 -27.73828125 11.94921875 C-30.11140424 10.95324485 -31.36904391 9.96875929 -33 8 C-33 7.67 -33 7.34 -33 7 C-32.319375 6.98582031 -31.63875 6.97164063 -30.9375 6.95703125 C-21.71004525 6.50302084 -13.66250755 3.97114975 -5 1 C-2 0 -2 0 0 0 Z " fill="#DDB08D" transform="translate(93,115)"/>
<path d="M0 0 C4.07223654 2.81924068 5.69330144 4.69266597 6.75 9.546875 C7.60233825 15.40670048 7.30948363 19.15086062 4.25 24.25 C-0.57981052 28.83831999 -4.70208452 29.65831505 -11.171875 29.6015625 C-15.20652481 29.05138298 -18.00572834 27.212566 -20.75 24.25 C-24.23249278 19.03794705 -23.29112676 12.22320695 -22.75 6.25 C-20.97359192 1.88299681 -19.13149664 0.16925968 -14.9375 -1.6875 C-9.48673625 -3.38329317 -5.02403628 -2.58047985 0 0 Z " fill="#FAC23E" transform="translate(54.75,72.75)"/>
<path d="M0 0 C2.22576111 3.33864167 3.04798934 6.20520626 4.125 10.0625 C4.47820312 11.31160156 4.83140625 12.56070313 5.1953125 13.84765625 C6 17 6 17 6 19 C1.125 18.125 1.125 18.125 0 17 C-4.01657143 16.77081758 -4.01657143 16.77081758 -8 17 C-8.66 17.66 -9.32 18.32 -10 19 C-12.1640625 19.1953125 -12.1640625 19.1953125 -14.625 19.125 C-15.44226563 19.10695312 -16.25953125 19.08890625 -17.1015625 19.0703125 C-17.72804688 19.04710937 -18.35453125 19.02390625 -19 19 C-18.67 16.36 -18.34 13.72 -18 11 C-20.64964989 15.52648522 -21.50442453 18.75398486 -21 24 C-20.34 24.66 -19.68 25.32 -19 26 C-19.375 28.125 -19.375 28.125 -20 30 C-21.32 29.67 -22.64 29.34 -24 29 C-23.979375 30.134375 -23.95875 31.26875 -23.9375 32.4375 C-24 36 -24 36 -25 37 C-32.08571429 37.45714286 -32.08571429 37.45714286 -35 36 C-37.08280307 31.83439386 -36.53095186 27.7671167 -35.23828125 23.46484375 C-33.36418138 18.55366504 -31.19587814 14.20029699 -28 10 C-27.47277344 9.30519531 -26.94554687 8.61039063 -26.40234375 7.89453125 C-21.855944 2.24900189 -21.855944 2.24900189 -17.5625 1 C-16.716875 1 -15.87125 1 -15 1 C-15 1.66 -15 2.32 -15 3 C-11.37 3.99 -7.74 4.98 -4 6 C-2.68 4.02 -1.36 2.04 0 0 Z " fill="#F6E6CC" transform="translate(76,122)"/>
<path d="M0 0 C14.75982693 -0.75369329 27.62015101 1.25703272 40 10 C41.36125 10.8353125 41.36125 10.8353125 42.75 11.6875 C51.58840343 20.77141464 54.14408496 33.58854426 54.1875 45.875 C54.14065207 47.58383419 54.08443137 49.29261007 54 51 C54.99 51.495 54.99 51.495 56 52 C56 53.98 56 55.96 56 58 C53.525 58.495 53.525 58.495 51 59 C51.495 58.54625 51.99 58.0925 52.5 57.625 C54.22609337 56.12364481 54.22609337 56.12364481 54 54 C53.01 53.34 52.02 52.68 51 52 C48.39283866 48.08925799 48.25390668 44.60793721 47.66015625 40.0078125 C46.9525673 36.7838865 45.91262711 34.67480182 44 32 C40.86599115 30.43299558 37.36844905 30.14835439 34 31 C30.12435679 34.67706785 29.46180933 37.57021907 29.25 42.8125 C29.19328125 43.97394531 29.1365625 45.13539062 29.078125 46.33203125 C29.05234375 47.21246094 29.0265625 48.09289062 29 49 C26.91123594 45.61476169 26.87074195 43.34945379 27.3125 39.4375 C27.41175781 38.48746094 27.51101562 37.53742188 27.61328125 36.55859375 C28 34 28 34 29 31 C28.34 30.67 27.68 30.34 27 30 C27.34933594 29.48050781 27.69867188 28.96101563 28.05859375 28.42578125 C28.74115234 27.37970703 28.74115234 27.37970703 29.4375 26.3125 C29.88996094 25.62800781 30.34242187 24.94351563 30.80859375 24.23828125 C32.09706974 21.81763619 32.58883567 19.69856128 33 17 C25.27749259 9.5208954 17.00696374 3.91859136 6.19140625 2.421875 C3.84573744 1.9703024 2.0794096 1.15575385 0 0 Z " fill="#C2231F" transform="translate(57,36)"/>
<path d="M0 0 C8.87771637 3.55896618 15.79904176 8.40283129 22.640625 15.05859375 C20.75922401 24.67464328 14.00442287 31.91872297 7.640625 39.05859375 C2.79593323 37.37680726 -1.34929395 34.76262122 -5.671875 32.05859375 C-6.41244141 31.60742188 -7.15300781 31.15625 -7.91601562 30.69140625 C-8.61533203 30.25570312 -9.31464844 29.82 -10.03515625 29.37109375 C-10.67364502 28.97535156 -11.31213379 28.57960938 -11.9699707 28.171875 C-12.65772583 27.62080078 -12.65772583 27.62080078 -13.359375 27.05859375 C-13.359375 26.39859375 -13.359375 25.73859375 -13.359375 25.05859375 C-10.389375 24.39859375 -7.419375 23.73859375 -4.359375 23.05859375 C-4.689375 24.70859375 -5.019375 26.35859375 -5.359375 28.05859375 C-4.369375 28.05859375 -3.379375 28.05859375 -2.359375 28.05859375 C-2.029375 27.06859375 -1.699375 26.07859375 -1.359375 25.05859375 C-0.699375 25.38859375 -0.039375 25.71859375 0.640625 26.05859375 C1.30729167 28.39192708 1.97395833 30.72526042 2.640625 33.05859375 C3.300625 33.38859375 3.960625 33.71859375 4.640625 34.05859375 C4.310625 33.02734375 3.980625 31.99609375 3.640625 30.93359375 C2.6691058 27.57432666 2.46945729 24.56753173 2.640625 21.05859375 C5.640625 22.05859375 5.640625 22.05859375 6.828125 24.43359375 C7.640625 27.05859375 7.640625 27.05859375 7.640625 30.05859375 C8.630625 30.05859375 9.620625 30.05859375 10.640625 30.05859375 C9.650625 26.75859375 8.660625 23.45859375 7.640625 20.05859375 C8.960625 20.05859375 10.280625 20.05859375 11.640625 20.05859375 C11.90875 20.69796875 12.176875 21.33734375 12.453125 21.99609375 C13.52730252 24.38991061 13.52730252 24.38991061 16.640625 25.05859375 C15.980625 23.07859375 15.320625 21.09859375 14.640625 19.05859375 C16.290625 19.38859375 17.940625 19.71859375 19.640625 20.05859375 C17.27842542 16.26220157 15.21910083 13.68280936 11.640625 11.05859375 C11.393125 10.37796875 11.145625 9.69734375 10.890625 8.99609375 C9.29807572 6.52764236 8.31184871 6.50029119 5.515625 5.80859375 C4.236875 5.56109375 2.958125 5.31359375 1.640625 5.05859375 C1.640625 4.39859375 1.640625 3.73859375 1.640625 3.05859375 C-0.009375 3.05859375 -1.659375 3.05859375 -3.359375 3.05859375 C-3.029375 4.04859375 -2.699375 5.03859375 -2.359375 6.05859375 C-3.349375 6.05859375 -4.339375 6.05859375 -5.359375 6.05859375 C-5.359375 7.70859375 -5.359375 9.35859375 -5.359375 11.05859375 C-7.009375 11.05859375 -8.659375 11.05859375 -10.359375 11.05859375 C-10.029375 9.73859375 -9.699375 8.41859375 -9.359375 7.05859375 C-13.27540804 9.85279867 -13.27540804 9.85279867 -15.359375 14.05859375 C-14.369375 14.38859375 -13.379375 14.71859375 -12.359375 15.05859375 C-13.349375 15.71859375 -14.339375 16.37859375 -15.359375 17.05859375 C-15.689375 18.04859375 -16.019375 19.03859375 -16.359375 20.05859375 C-13.059375 19.72859375 -9.759375 19.39859375 -6.359375 19.05859375 C-6.359375 18.06859375 -6.359375 17.07859375 -6.359375 16.05859375 C-7.019375 15.72859375 -7.679375 15.39859375 -8.359375 15.05859375 C-7.039375 14.39859375 -5.719375 13.73859375 -4.359375 13.05859375 C-4.359375 16.02859375 -4.359375 18.99859375 -4.359375 22.05859375 C-7.659375 22.05859375 -10.959375 22.05859375 -14.359375 22.05859375 C-14.359375 23.04859375 -14.359375 24.03859375 -14.359375 25.05859375 C-17.76250238 23.99984301 -20.37290731 23.04957221 -23.359375 21.05859375 C-21.89761142 13.15766906 -15.69451919 5.06420911 -9.515625 0.12109375 C-6.06553699 -1.57894962 -3.60843508 -1.06814106 0 0 Z " fill="#EAAD2F" transform="translate(68.359375,37.94140625)"/>
<path d="M0 0 C1.65 0 3.3 0 5 0 C5 0.66 5 1.32 5 2 C5.9075 1.938125 6.815 1.87625 7.75 1.8125 C11.30029087 2.01732447 12.56086737 2.46705458 15 5 C15 5.99 15 6.98 15 8 C15.5775 8.226875 16.155 8.45375 16.75 8.6875 C19.59739809 10.34848222 21.12067193 12.31524561 23 15 C23 15.66 23 16.32 23 17 C21.35 16.67 19.7 16.34 18 16 C18.66 17.98 19.32 19.96 20 22 C18.68 21.67 17.36 21.34 16 21 C15.67 19.68 15.34 18.36 15 17 C13.68 17 12.36 17 11 17 C11.495 18.093125 11.99 19.18625 12.5 20.3125 C14 24 14 24 14 27 C13.01 27 12.02 27 11 27 C10.80664062 26.43410156 10.61328125 25.86820313 10.4140625 25.28515625 C10.15367188 24.55167969 9.89328125 23.81820312 9.625 23.0625 C9.36976562 22.33160156 9.11453125 21.60070312 8.8515625 20.84765625 C8.14728587 18.81317884 8.14728587 18.81317884 6 18 C6.33 19.216875 6.66 20.43375 7 21.6875 C7.80322213 24.87210604 8.20641973 27.6972843 8 31 C7.01 30.67 6.02 30.34 5 30 C3.8125 26.4375 3.8125 26.4375 3 23 C2.34 23.66 1.68 24.32 1 25 C0.01 25 -0.98 25 -2 25 C-2 23.68 -2 22.36 -2 21 C-4.64 21 -7.28 21 -10 21 C-10 20.34 -10 19.68 -10 19 C-7.03 19 -4.06 19 -1 19 C-1 16.03 -1 13.06 -1 10 C-1.99 10.66 -2.98 11.32 -4 12 C-3.67 13.32 -3.34 14.64 -3 16 C-7.95 16.495 -7.95 16.495 -13 17 C-12.67 15.68 -12.34 14.36 -12 13 C-11.34 12.67 -10.68 12.34 -10 12 C-10.66 11.67 -11.32 11.34 -12 11 C-11.4409112 7.75728494 -10.5867822 6.06942576 -8 4 C-7.34 4 -6.68 4 -6 4 C-6 4.99 -6 5.98 -6 7 C-4.68 7.33 -3.36 7.66 -2 8 C-2 6.35 -2 4.7 -2 3 C-1.34 2.67 -0.68 2.34 0 2 C0 1.34 0 0.68 0 0 Z " fill="#783903" transform="translate(65,41)"/>
<path d="M0 0 C3.9013104 0.14944536 5.56730525 0.48809654 8.8125 2.88671875 C13.12794792 8.72526594 13.71836114 14.67481235 12.9375 21.76171875 C11.32477433 25.44794886 10.307175 26.51526875 6.9375 28.76171875 C4.8515625 29.16796875 4.8515625 29.16796875 2.5625 29.26171875 C1.43714844 29.3390625 1.43714844 29.3390625 0.2890625 29.41796875 C-2.6980492 28.58435618 -4.21039951 27.02202833 -6.06787109 24.58007812 C-7.79123855 21.42945446 -7.78583917 18.24948138 -7.6875 14.76171875 C-7.71650391 13.73304687 -7.71650391 13.73304687 -7.74609375 12.68359375 C-7.70964958 8.86424491 -7.07591261 6.28173658 -4.7734375 3.3046875 C-2.0625 0.76171875 -2.0625 0.76171875 0 0 Z " fill="#9C5734" transform="translate(93.0625,65.23828125)"/>
<path d="M0 0 C8.09494275 2.27670265 13.58756198 9.24345429 18 16 C16.96552734 16.80050781 16.96552734 16.80050781 15.91015625 17.6171875 C9.21265885 22.92741177 3.57826287 28.51450317 -2 35 C-2.66 35.66 -3.32 36.32 -4 37 C-5.94747527 33.10504945 -5.22866446 28.28311038 -5.25 24 C-5.270625 22.99582031 -5.29125 21.99164063 -5.3125 20.95703125 C-5.34714767 14.26136881 -4.66609055 8.20337176 -2 2 C-1.34 1.34 -0.68 0.68 0 0 Z " fill="#FC9B99" transform="translate(25,27)"/>
<path d="M0 0 C6.35714823 6.35714823 6.90303316 18.41321814 7.05078125 26.92578125 C7.03402344 27.61027344 7.01726562 28.29476562 7 29 C6.57332031 28.63648437 6.14664063 28.27296875 5.70703125 27.8984375 C-0.32353391 23.04911706 -6.91956994 20.04372146 -14 17 C-14 12.71 -14 8.42 -14 4 C-3.65466102 -1.58103814 -3.65466102 -1.58103814 0 0 Z " fill="#FB9C9A" transform="translate(94,21)"/>
<path d="M0 0 C1.60031344 3.20062687 0.03173691 5.72271806 -1 9 C0.45922693 8.88590407 1.91740598 8.75834456 3.375 8.625 C4.18710937 8.55539063 4.99921875 8.48578125 5.8359375 8.4140625 C8.20334191 8.17107412 8.20334191 8.17107412 10 6 C15.7504997 5.30597417 19.66044624 6.01858281 24.5 9.2890625 C26.45648649 11.5206799 26.5 12.87758101 26.5 15.8125 C26.37211181 17.21241896 26.21784569 18.61123374 26 20 C25.21625 19.95875 24.4325 19.9175 23.625 19.875 C20.83883881 19.71271266 20.83883881 19.71271266 19 22 C16.94140625 22.265625 16.94140625 22.265625 14.5625 22.25 C13.38880859 22.25773437 13.38880859 22.25773437 12.19140625 22.265625 C10 22 10 22 7 20 C5.865625 19.896875 4.73125 19.79375 3.5625 19.6875 C0 19 0 19 -2.4375 16.875 C-4.44189564 13.18691203 -4.57313759 11.15524754 -4 7 C-2.85677689 4.47209717 -1.52583422 2.33643365 0 0 Z " fill="#FBC351" transform="translate(58,132)"/>
<path d="M0 0 C4.34586828 -0.39507893 6.32003497 -0.45331002 10 2 C12.21582589 2.31560324 12.21582589 2.31560324 14.5625 2.25 C15.34753906 2.25515625 16.13257812 2.2603125 16.94140625 2.265625 C19.22290968 2.18429262 19.22290968 2.18429262 21 0 C21.99 0 22.98 0 24 0 C22.97386916 2.97577944 22.03368909 3.97754061 19.375 5.75 C16 7 16 7 8 7 C7.67 13.27 7.34 19.54 7 26 C-3.83984375 26.09765625 -3.83984375 26.09765625 -7 26 C-8 25 -8 25 -8.25 21.625 C-8 18 -8 18 -6.8125 16.0625 C-5 15 -5 15 0 15 C0.33 11.37 0.66 7.74 1 4 C0.01 3.67 -0.98 3.34 -2 3 C-1.34 2.01 -0.68 1.02 0 0 Z " fill="#F5E4CA" transform="translate(58,151)"/>
<path d="M0 0 C4.09572746 0.7313799 5.76688993 1.48996198 8.5 4.625 C9.5625 8 9.5625 8 9.5 11.625 C6.56329114 17.09335443 6.56329114 17.09335443 3.5 18.625 C-0.37214182 19.05523798 -2.02496371 18.94169086 -5.3125 16.75 C-7.85330753 14.28178697 -8.3995948 13.3613048 -8.875 9.875 C-8.22425679 4.23522555 -5.62697213 1.00481645 0 0 Z " fill="#9C5734" transform="translate(42.5,76.375)"/>
<path d="M0 0 C5.73649128 0.22496044 9.37822691 1.80031093 14 5 C17.72304595 9.21945208 18.13646524 14.54139028 18 20 C17.15518846 23.98268296 15.47191682 26.55167902 12.5 29.375 C7.61018275 32.55338121 2.67123606 32.65944605 -3 32 C-5.54502172 30.944991 -6.90785612 29.87191821 -9 28 C-9 27.34 -9 26.68 -9 26 C-8.16275391 26.23589844 -8.16275391 26.23589844 -7.30859375 26.4765625 C-3.19986492 27.40815245 0.8271722 27.61444552 5 27 C8.34625024 24.47323961 9.67977847 22.96066458 11 19 C11.37909149 14.98163017 11.23118283 12.5126228 9.5625 8.8125 C6.20314998 5.12540851 2.62632547 3.68050284 -2 2 C-1.34 1.34 -0.68 0.68 0 0 Z " fill="#F7F2EF" transform="translate(44,70)"/>
<path d="M0 0 C1.85776765 3.13498292 2.20140476 5.37471432 2 9 C3.093125 8.773125 4.18625 8.54625 5.3125 8.3125 C9 8 9 8 10.875 8.9375 C12 11 12 11 13 19 C7.06 19 1.12 19 -5 19 C-5 13.06 -5 7.12 -5 1 C-3.35 0.67 -1.7 0.34 0 0 Z " fill="#F5E5CA" transform="translate(75,158)"/>
<path d="M0 0 C0 0.99 0 1.98 0 3 C0.5775 3.226875 1.155 3.45375 1.75 3.6875 C4.59739809 5.34848222 6.12067193 7.31524561 8 10 C8 10.66 8 11.32 8 12 C5.525 11.505 5.525 11.505 3 11 C3.66 12.98 4.32 14.96 5 17 C3.68 16.67 2.36 16.34 1 16 C0.67 14.68 0.34 13.36 0 12 C-1.32 12 -2.64 12 -4 12 C-3.505 13.093125 -3.01 14.18625 -2.5 15.3125 C-1 19 -1 19 -1 22 C-1.99 22 -2.98 22 -4 22 C-4.25394531 21.28972656 -4.50789063 20.57945313 -4.76953125 19.84765625 C-5.11371094 18.92855469 -5.45789063 18.00945312 -5.8125 17.0625 C-6.14894531 16.14597656 -6.48539062 15.22945312 -6.83203125 14.28515625 C-7.83409094 11.6659576 -7.83409094 11.6659576 -11 11 C-11 10.01 -11 9.02 -11 8 C-9.68 8.33 -8.36 8.66 -7 9 C-7 8.34 -7 7.68 -7 7 C-9.31 6.67 -11.62 6.34 -14 6 C-14 5.34 -14 4.68 -14 4 C-12.865625 3.855625 -11.73125 3.71125 -10.5625 3.5625 C-7.19222799 3.38828522 -7.19222799 3.38828522 -6 2 C-8.64 2 -11.28 2 -14 2 C-14 1.34 -14 0.68 -14 0 C-12.42074025 -0.39180108 -10.83631206 -0.76280736 -9.25 -1.125 C-8.36828125 -1.33382812 -7.4865625 -1.54265625 -6.578125 -1.7578125 C-3.67124507 -2.03088304 -2.43338652 -1.53508028 0 0 Z " fill="#854708" transform="translate(80,46)"/>
<path d="M0 0 C1.13199353 0.9080162 2.25532363 1.82683826 3.375 2.75 C4.00148438 3.26046875 4.62796875 3.7709375 5.2734375 4.296875 C7.08312318 6.08199481 8.00117455 7.67949644 9 10 C10.98 10 12.96 10 15 10 C14.979375 10.969375 14.95875 11.93875 14.9375 12.9375 C14.64381501 15.87465895 14.64381501 15.87465895 16 17 C15.4 23.6 15.4 23.6 13 26 C10.5625 26.3125 10.5625 26.3125 8 26 C4.29596728 23.01230786 3.82187833 19.14540319 2.875 14.6875 C2.70613281 13.94048828 2.53726563 13.19347656 2.36328125 12.42382812 C1.44379456 8.30061813 0.65055357 4.17549178 0 0 Z " fill="#F5E5CA" transform="translate(80,127)"/>
<path d="M0 0 C12.87 0.495 12.87 0.495 26 1 C24.91724442 6.4137779 24.32062795 7.7825111 20 11 C13.74992956 11.92214154 9.19437757 10.57400758 4 7 C0 2.8 0 2.8 0 0 Z " fill="#EC5D5B" transform="translate(55,104)"/>
<path d="M0 0 C7.17710197 -0.60822898 7.17710197 -0.60822898 10.875 2.125 C15.19044792 7.96354719 15.78086114 13.9130936 15 21 C13.38727433 24.68623011 12.369675 25.75355 9 28 C6.73828125 28.1953125 6.73828125 28.1953125 4.3125 28.125 C3.50425781 28.10695313 2.69601563 28.08890625 1.86328125 28.0703125 C1.24839844 28.04710938 0.63351563 28.02390625 0 28 C-0.33 27.34 -0.66 26.68 -1 26 C0.093125 25.731875 1.18625 25.46375 2.3125 25.1875 C6.33056606 23.92891323 6.33056606 23.92891323 9 21 C10.66770922 15.99687233 10.70259509 11.06387308 9 6.0625 C6.01366082 2.98283772 3.18366339 2.7544311 -1 2 C-0.67 1.34 -0.34 0.68 0 0 Z " fill="#F7F0EC" transform="translate(91,66)"/>
<path d="M0 0 C3.75 0.375 3.75 0.375 6.625 2.75 C10.24464147 7.22132181 10.29492557 10.76032049 9.75 16.375 C8.15493139 20.0436578 6.28560977 22.45566898 2.75 24.375 C-0.3125 24.8125 -0.3125 24.8125 -3.25 24.375 C-5.1875 22.5625 -5.1875 22.5625 -6.25 20.375 C-5.755 18.89 -5.755 18.89 -5.25 17.375 C-4.92 18.365 -4.59 19.355 -4.25 20.375 C-2.93528432 20.09348913 -1.62324233 19.79946661 -0.3125 19.5 C0.41839844 19.33757812 1.14929688 19.17515625 1.90234375 19.0078125 C3.95700294 18.54538477 3.95700294 18.54538477 4.75 16.375 C4.9852732 14.26645964 4.9852732 14.26645964 5 11.9375 C5.02578125 11.15503906 5.0515625 10.37257813 5.078125 9.56640625 C4.67204959 6.85440261 3.91706052 6.00545506 1.75 4.375 C-1.99849077 3.90643865 -3.01746204 4.21997469 -6.25 6.375 C-3.9744582 0.45859133 -3.9744582 0.45859133 0 0 Z " fill="#F7BF3E" transform="translate(92.25,67.625)"/>
<path d="M0 0 C5.87300249 3.45424238 10.7680974 7.12874992 13.08984375 13.70703125 C14.877663 23.13139274 14.877663 23.13139274 13.08984375 26.70703125 C12.09984375 26.37703125 11.10984375 26.04703125 10.08984375 25.70703125 C10.74984375 25.70703125 11.40984375 25.70703125 12.08984375 25.70703125 C11.78060161 23.60238332 11.46733815 21.49832595 11.15234375 19.39453125 C10.97832031 18.22277344 10.80429688 17.05101562 10.625 15.84375 C10.16891344 12.69061722 10.16891344 12.69061722 9.08984375 9.70703125 C8.42984375 9.70703125 7.76984375 9.70703125 7.08984375 9.70703125 C5.97609375 8.56234375 5.97609375 8.56234375 4.83984375 7.39453125 C0.83505583 3.48076123 -2.20212816 1.89987313 -7.78515625 1.26953125 C-12.41140004 1.46450704 -16.12791379 3.08791203 -19.91015625 5.70703125 C-22.36973365 8.27512953 -22.36973365 8.27512953 -23.91015625 10.70703125 C-28.36515625 9.71703125 -28.36515625 9.71703125 -32.91015625 8.70703125 C-32.91015625 11.01703125 -32.91015625 13.32703125 -32.91015625 15.70703125 C-33.57015625 15.37703125 -34.23015625 15.04703125 -34.91015625 14.70703125 C-34.58015625 11.73703125 -34.25015625 8.76703125 -33.91015625 5.70703125 C-32.52828125 6.14015625 -31.14640625 6.57328125 -29.72265625 7.01953125 C-27.26954215 7.63819533 -27.26954215 7.63819533 -24.91015625 7.70703125 C-22.16057595 5.6249365 -22.16057595 5.6249365 -19.91015625 2.70703125 C-13.50886637 -1.9370418 -7.45114771 -3.31050992 0 0 Z " fill="#CE8D1B" transform="translate(66.91015625,11.29296875)"/>
<path d="M0 0 C8.98831041 10.5380191 10.66632952 23.52533639 10 37 C10.66 37.33 11.32 37.66 12 38 C12 39.98 12 41.96 12 44 C9.525 44.495 9.525 44.495 7 45 C7.495 44.54625 7.99 44.0925 8.5 43.625 C10.22609337 42.12364481 10.22609337 42.12364481 10 40 C9.01 39.34 8.02 38.68 7 38 C4.83651193 34.75476789 4.59801216 33.05340388 4.125 29.25 C3.32446154 23.93029278 2.01548625 20.42271317 -1 16 C1.90542812 17.3024333 3.8092961 18.70886268 6 21 C5.06913304 15.02285422 3.82193989 9.96609199 0.8046875 4.69140625 C0 3 0 3 0 0 Z " fill="#9A1816" transform="translate(101,50)"/>
<path d="M0 0 C0.33 0.99 0.66 1.98 1 3 C-0.19718543 4.42997149 -1.40148301 5.85501742 -2.65234375 7.23828125 C-4.92273665 10.20624415 -5.84335578 13.46919132 -7 17 C-8.65 17 -10.3 17 -12 17 C-13.04976964 13.85069107 -13.10131595 11.61185544 -13.0625 8.3125 C-13.05347656 7.31863281 -13.04445313 6.32476562 -13.03515625 5.30078125 C-13.02355469 4.54152344 -13.01195313 3.78226563 -13 3 C-12.01 3.495 -12.01 3.495 -11 4 C-9.08343976 3.22827763 -9.08343976 3.22827763 -7.0625 2.0625 C-4.31063302 0.5451154 -3.22211537 0 0 0 Z " fill="#F4E3CA" transform="translate(93,22)"/>
<path d="M0 0 C3.70344466 3.51263486 6.73549399 6.70987985 7 12 C7.03824623 14.33301986 7.04574284 16.66711508 7 19 C6.67 19 6.34 19 6 19 C5.87882812 18.33613281 5.75765625 17.67226562 5.6328125 16.98828125 C4.51148093 10.26281029 4.51148093 10.26281029 2 4 C0.20072961 2.72510734 0.20072961 2.72510734 -2 2 C-2.721875 1.608125 -3.44375 1.21625 -4.1875 0.8125 C-9.25217398 -0.65062804 -14.08699846 0.1682602 -18.875 2.25 C-23.12921518 5.75347132 -24.13502668 8.95426562 -24.6875 14.3125 C-24.80376854 15.87414611 -24.91195873 17.4365085 -25 19 C-25.33 19 -25.66 19 -26 19 C-26.6249225 8.27216367 -26.6249225 8.27216367 -24.25 3.4375 C-17.59571864 -3.77130481 -8.49617533 -5.72568337 0 0 Z " fill="#720B09" transform="translate(56,71)"/>
<path d="M0 0 C2.475 0.99 2.475 0.99 5 2 C5 4.97 5 7.94 5 11 C4.21625 10.95875 3.4325 10.9175 2.625 10.875 C-0.16116119 10.71271266 -0.16116119 10.71271266 -2 13 C-4.1640625 13.1953125 -4.1640625 13.1953125 -6.625 13.125 C-7.44226563 13.10695312 -8.25953125 13.08890625 -9.1015625 13.0703125 C-9.72804688 13.04710937 -10.35453125 13.02390625 -11 13 C-11.33 12.34 -11.66 11.68 -12 11 C-11.01 11 -10.02 11 -9 11 C-9.495 10.608125 -9.99 10.21625 -10.5 9.8125 C-12.45593143 7.44908285 -12.24207973 5.98564997 -12 3 C-11.13375 4.2065625 -11.13375 4.2065625 -10.25 5.4375 C-8.09797845 8.37853204 -8.09797845 8.37853204 -4 9 C-2.68 6.03 -1.36 3.06 0 0 Z " fill="#F1B44B" transform="translate(79,141)"/>
<path d="M0 0 C3.4375 0.875 3.4375 0.875 6.4375 2.875 C6.4375 3.535 6.4375 4.195 6.4375 4.875 C5.53 4.545 4.6225 4.215 3.6875 3.875 C0.36704193 2.67894277 0.36704193 2.67894277 -3.5625 2.875 C-5.04170526 4.30270767 -5.04170526 4.30270767 -6.125 6.3125 C-6.51816406 6.95058594 -6.91132813 7.58867187 -7.31640625 8.24609375 C-10.72936801 15.44648015 -12.01432567 21.73430708 -11.8125 29.6875 C-11.80734375 30.51958984 -11.8021875 31.35167969 -11.796875 32.20898438 C-11.74892343 35.94621004 -11.57743563 39.26018168 -10.5625 42.875 C-11.5525 42.545 -12.5425 42.215 -13.5625 41.875 C-16.06610669 28.10516318 -14.67514434 15.97516933 -7.5625 3.875 C-5.02150809 0.2329116 -4.49461666 -0.15770585 0 0 Z " fill="#D8B38B" transform="translate(25.5625,21.125)"/>
<path d="M0 0 C0.33 0 0.66 0 1 0 C1.03738281 0.98742187 1.07476562 1.97484375 1.11328125 2.9921875 C1.17902344 4.27351563 1.24476562 5.55484375 1.3125 6.875 C1.37050781 8.15117188 1.42851563 9.42734375 1.48828125 10.7421875 C1.65714844 11.81726563 1.82601562 12.89234375 2 14 C2.99 14.66 3.98 15.32 5 16 C4.3515625 17.890625 4.3515625 17.890625 3 20 C-3.37899511 22.63010875 -10.16133432 23.3945384 -17 23 C-14.40737047 20.62342293 -12.31635964 19.77214807 -8.9375 19.125 C-5.70406994 18.41580902 -5.19991698 18.25795739 -3.0625 15.5 C-2.711875 14.675 -2.36125 13.85 -2 13 C-1.67 12.34 -1.34 11.68 -1 11 C-0.7724985 9.12943209 -0.59037189 7.25314042 -0.4375 5.375 C-0.35371094 4.37210937 -0.26992187 3.36921875 -0.18359375 2.3359375 C-0.09271484 1.17964844 -0.09271484 1.17964844 0 0 Z " fill="#C82120" transform="translate(107,74)"/>
<path d="M0 0 C6.35714823 6.35714823 6.90303316 18.41321814 7.05078125 26.92578125 C7.03402344 27.61027344 7.01726562 28.29476562 7 29 C5.03515625 27.9765625 5.03515625 27.9765625 3 26 C2.61552659 23.3474315 2.44694249 21.02864306 2.4375 18.375 C2.24952053 12.03373073 1.43584003 6.93074093 -1 1 C-1.61488281 1.27714844 -2.22976562 1.55429687 -2.86328125 1.83984375 C-3.67152344 2.20207031 -4.47976562 2.56429688 -5.3125 2.9375 C-6.11300781 3.29714844 -6.91351563 3.65679688 -7.73828125 4.02734375 C-10 5 -10 5 -13 6 C-12 3 -12 3 -10.29296875 1.796875 C-9.59816406 1.45140625 -8.90335937 1.1059375 -8.1875 0.75 C-7.50042969 0.39421875 -6.81335938 0.0384375 -6.10546875 -0.328125 C-3.599374 -1.12784355 -2.42731108 -0.95667606 0 0 Z " fill="#DDB68E" transform="translate(94,21)"/>
<path d="M0 0 C2 1 2 1 2.875 2.75 C3 5 3 5 1.1875 7.6875 C-1.84156969 10.88965938 -3.52116728 11.19025814 -7.8125 11.3125 C-11.62926339 11.29592939 -12.7990735 11.12859296 -16.125 9 C-16.74375 8.34 -17.3625 7.68 -18 7 C-17.67 6.34 -17.34 5.68 -17 5 C-15.948125 5.495 -15.948125 5.495 -14.875 6 C-11.617944 7.13288904 -9.42302438 7.43698184 -6 7 C-3.36943595 4.88093452 -1.8798757 2.81981355 0 0 Z " fill="#F8BE3B" transform="translate(52,87)"/>
<path d="M0 0 C0 0.33 0 0.66 0 1 C-1.175625 1.0928125 -1.175625 1.0928125 -2.375 1.1875 C-3.24125 1.455625 -4.1075 1.72375 -5 2 C-6.19838209 4.32854463 -6.19838209 4.32854463 -7 7 C-7.53625 7.639375 -8.0725 8.27875 -8.625 8.9375 C-10.50091103 11.75136655 -10.2769273 13.67687245 -10 17 C-9.814375 17.70125 -9.62875 18.4025 -9.4375 19.125 C-8.90999006 21.3857569 -9.29772772 22.81515292 -10 25 C-14.12451007 20.6019813 -13.48071671 16.10473672 -13.35546875 10.3671875 C-12.88671161 5.92687262 -12.13116411 4.13116411 -9 1 C-5.79942446 -1.37462056 -3.75752543 -1.04375706 0 0 Z " fill="#F3C354" transform="translate(45,72)"/>
<path d="M0 0 C2.13268166 2.05651446 3.97650518 3.96475777 5.625 6.4375 C12.18172896 13.51186546 22.54425661 16.19101194 31.875 16.625 C32.56335937 16.66367188 33.25171875 16.70234375 33.9609375 16.7421875 C35.64023246 16.83548166 37.32007767 16.91878238 39 17 C37.90625 18.53515625 37.90625 18.53515625 36 20 C24.52368684 19.98489959 13.08191222 16.63568088 4.65625 8.78125 C0 3.77358491 0 3.77358491 0 0 Z " fill="#DCB790" transform="translate(18,105)"/>
<path d="M0 0 C3.3 0 6.6 0 10 0 C10.33 2.97 10.66 5.94 11 9 C7.75 9.3125 7.75 9.3125 4 9 C1.5625 6.75 1.5625 6.75 0 4 C0 2.68 0 1.36 0 0 Z " fill="#C5201D" transform="translate(54,142)"/>
<path d="M0 0 C-1.12451727 2.9719385 -2.22293791 5.33440687 -4 8 C-5.44096586 7.57405412 -6.87768712 7.13373367 -8.3125 6.6875 C-9.11300781 6.44386719 -9.91351563 6.20023437 -10.73828125 5.94921875 C-13.11140424 4.95324485 -14.36904391 3.96875929 -16 2 C-16 1.67 -16 1.34 -16 1 C-14.08351538 0.83125293 -12.16680367 0.66508357 -10.25 0.5 C-9.18265625 0.4071875 -8.1153125 0.314375 -7.015625 0.21875 C-4.6820782 0.04947717 -2.33967818 0 0 0 Z " fill="#C2211F" transform="translate(76,121)"/>
<path d="M0 0 C0 0.66 0 1.32 0 2 C-4.62 3.65 -9.24 5.3 -14 7 C-12.68 8.65 -11.36 10.3 -10 12 C-10.33 12.66 -10.66 13.32 -11 14 C-11 17.01853795 -10.85049285 19.77081079 -10.5 22.75 C-10.36078125 23.94882813 -10.36078125 23.94882813 -10.21875 25.171875 C-10.1465625 25.77515625 -10.074375 26.3784375 -10 27 C-10.66 26.67 -11.32 26.34 -12 26 C-12.4921875 24.1015625 -12.4921875 24.1015625 -12.875 21.625 C-13.91674488 15.81139145 -15.85136552 10.48631911 -18 5 C-15.37605694 4.16320723 -12.75095616 3.33043058 -10.125 2.5 C-9.00544922 2.14228516 -9.00544922 2.14228516 -7.86328125 1.77734375 C-2.2265625 0 -2.2265625 0 0 0 Z " fill="#E2C099" transform="translate(93,115)"/>
<path d="M0 0 C0 0.99 0 1.98 0 3 C0.66 3.33 1.32 3.66 2 4 C0.27192682 4.33895656 -1.45751974 4.67091525 -3.1875 5 C-4.63189453 5.2784375 -4.63189453 5.2784375 -6.10546875 5.5625 C-8.7934206 5.96877612 -11.28771019 6.07933572 -14 6 C-14 5.34 -14 4.68 -14 4 C-12.865625 3.855625 -11.73125 3.71125 -10.5625 3.5625 C-7.19222799 3.38828522 -7.19222799 3.38828522 -6 2 C-8.64 2 -11.28 2 -14 2 C-14 1.34 -14 0.68 -14 0 C-12.42074025 -0.39180108 -10.83631206 -0.76280736 -9.25 -1.125 C-8.36828125 -1.33382812 -7.4865625 -1.54265625 -6.578125 -1.7578125 C-3.67124507 -2.03088304 -2.43338652 -1.53508028 0 0 Z " fill="#AD7016" transform="translate(80,46)"/>
<path d="M0 0 C2.01822917 0.06510417 4.03645833 0.13020833 6.0546875 0.1953125 C6.7146875 1.5153125 7.3746875 2.8353125 8.0546875 4.1953125 C7.0646875 5.5153125 6.0746875 6.8353125 5.0546875 8.1953125 C1.40152079 6.94554494 0.27402914 6.52432497 -1.9453125 3.1953125 C-2.6053125 2.8653125 -3.2653125 2.5353125 -3.9453125 2.1953125 C-1.9453125 0.1953125 -1.9453125 0.1953125 0 0 Z " fill="#F2B84F" transform="translate(69.9453125,137.8046875)"/>
<path d="M0 0 C-6.23448078 3.59681584 -13.02832546 3.12400212 -20 3 C-18.68 2.67 -17.36 2.34 -16 2 C-16 1.34 -16 0.68 -16 0 C-16.99 -0.33 -17.98 -0.66 -19 -1 C-12.44264553 -3.09835343 -6.41896525 -1.80181481 0 0 Z " fill="#F2D8BF" transform="translate(80,102)"/>
<path d="M0 0 C1.76923828 0.01353516 1.76923828 0.01353516 3.57421875 0.02734375 C4.47785156 0.03894531 5.38148437 0.05054687 6.3125 0.0625 C1.53850619 4.99562693 1.53850619 4.99562693 -3.125 5.25 C-6.6875 5.0625 -6.6875 5.0625 -9.6875 3.0625 C-9.6875 2.4025 -9.6875 1.7425 -9.6875 1.0625 C-6.26517028 -0.07827657 -3.60076783 -0.03565117 0 0 Z " fill="#E68C39" transform="translate(80.6875,96.9375)"/>
<path d="M0 0 C1.60031344 3.20062687 0.03173691 5.72271806 -1 9 C1.97 9 4.94 9 8 9 C7.67 10.98 7.34 12.96 7 15 C7.66 15 8.32 15 9 15 C10.38938077 16.96147874 11.7260411 18.96166576 13 21 C11.35 21 9.7 21 8 21 C5.67409146 17.36576791 5.83734167 14.22911669 6 10 C2.7 10 -0.6 10 -4 10 C-3.43454163 6.04179141 -2.19097652 3.3340947 0 0 Z " fill="#E99F51" transform="translate(58,132)"/>
<path d="M0 0 C2.88437779 1.29299694 4.87219421 2.65941363 7 5 C7.33 3.68 7.66 2.36 8 1 C8.78688445 3.77723925 9.11949924 6.22610077 9.09765625 9.109375 C9.09443359 9.86347656 9.09121094 10.61757812 9.08789062 11.39453125 C9.07951172 12.17183594 9.07113281 12.94914062 9.0625 13.75 C9.05798828 14.54277344 9.05347656 15.33554688 9.04882812 16.15234375 C9.03708565 18.10159508 9.01915146 20.05080738 9 22 C6.72447106 20.19931043 6.04587017 19.20778276 5.41015625 16.328125 C5.29542969 15.31234375 5.18070312 14.2965625 5.0625 13.25 C4.30299327 7.90099531 3.02823141 4.44140607 0 0 Z " fill="#A51B1A" transform="translate(100,66)"/>
<path d="M0 0 C1.98 0 3.96 0 6 0 C4.07809421 8.37883488 1.09448756 13.25646852 -5.1875 19 C-5.785625 19.33 -6.38375 19.66 -7 20 C-7.99 19.67 -8.98 19.34 -10 19 C-9.46890625 18.64808594 -8.9378125 18.29617187 -8.390625 17.93359375 C-2.66274951 13.9303523 0.65095919 10.38438262 2.75 3.5625 C2.8325 3.046875 2.915 2.53125 3 2 C2.01 1.34 1.02 0.68 0 0 Z " fill="#DEB08B" transform="translate(104,95)"/>
<path d="M0 0 C0 0.33 0 0.66 0 1 C-1.953125 1.35807292 -3.90625 1.71614583 -5.859375 2.07421875 C-8.98879877 3.42763742 -10.20053196 5.12716506 -12 8 C-12.69102482 11.33902191 -12.69102482 11.33902191 -12.75 14.8125 C-12.80671875 15.97394531 -12.8634375 17.13539062 -12.921875 18.33203125 C-12.94765625 19.21246094 -12.9734375 20.09289062 -13 21 C-15.50312773 16.81830426 -15.26939935 13.44328016 -14.73046875 8.70703125 C-13.71624134 4.94842379 -12.10108064 3.19842576 -8.98828125 0.94921875 C-5.93782337 -0.50709022 -3.29911506 -0.40397327 0 0 Z " fill="#7D150D" transform="translate(99,64)"/>
<path d="M0 0 C4.29 0.66 8.58 1.32 13 2 C11.02 2.99 11.02 2.99 9 4 C11.31 4.33 13.62 4.66 16 5 C16 5.33 16 5.66 16 6 C6.32449735 6.68837568 6.32449735 6.68837568 2.375 4.125 C1.59125 3.42375 0.8075 2.7225 0 2 C0 1.34 0 0.68 0 0 Z " fill="#F6DCC9" transform="translate(35,96)"/>
<path d="M0 0 C4.09806904 2.26352143 6.64597161 5.15341038 8.4375 9.4375 C9.00439989 13.02786599 9.14810441 16.37144195 9 20 C8.67 20 8.34 20 8 20 C7.87882812 19.33613281 7.75765625 18.67226562 7.6328125 17.98828125 C6.51148093 11.26281029 6.51148093 11.26281029 4 5 C2.0998823 3.75825204 2.0998823 3.75825204 0 3 C-0.99 2.34 -1.98 1.68 -3 1 C-2.01 0.67 -1.02 0.34 0 0 Z " fill="#851F20" transform="translate(54,70)"/>
<path d="M0 0 C1.98 0.495 1.98 0.495 4 1 C4 3.97 4 6.94 4 10 C2.35 9.67 0.7 9.34 -1 9 C-0.67 6.03 -0.34 3.06 0 0 Z " fill="#C32319" transform="translate(80,142)"/>
<path d="M0 0 C1.32 0.66 2.64 1.32 4 2 C3.49396008 4.16874252 3.00016187 5.99967627 2 8 C1.01 8 0.02 8 -1 8 C-1 6.68 -1 5.36 -1 4 C-3.64 4 -6.28 4 -9 4 C-9 3.34 -9 2.68 -9 2 C-6.03 2 -3.06 2 0 2 C0 1.34 0 0.68 0 0 Z " fill="#824307" transform="translate(64,58)"/>
<path d="M0 0 C-0.33 0.99 -0.66 1.98 -1 3 C-3.24973447 3.054138 -5.49984383 3.09285491 -7.75 3.125 C-9.00296875 3.14820313 -10.2559375 3.17140625 -11.546875 3.1953125 C-14.72820492 3.01537302 -16.36521896 2.68998582 -19 1 C-16.20837429 0.83262201 -13.41670379 0.66606598 -10.625 0.5 C-9.8309375 0.45230469 -9.036875 0.40460938 -8.21875 0.35546875 C-2.2265625 0 -2.2265625 0 0 0 Z " fill="#E0BF9A" transform="translate(90,176)"/>
<path d="M0 0 C0.33 0.99 0.66 1.98 1 3 C1.66 3 2.32 3 3 3 C3.33 6.63 3.66 10.26 4 14 C0 11 0 11 -0.390625 8.30078125 C-0.34421875 7.31464844 -0.2978125 6.32851563 -0.25 5.3125 C-0.21390625 4.31863281 -0.1778125 3.32476562 -0.140625 2.30078125 C-0.09421875 1.54152344 -0.0478125 0.78226563 0 0 Z " fill="#E9C9A8" transform="translate(97,36)"/>
<path d="M0 0 C0.99 0.66 1.98 1.32 3 2 C3 2.66 3 3.32 3 4 C2.0925 3.67 1.185 3.34 0.25 3 C-3.07045807 1.80394277 -3.07045807 1.80394277 -7 2 C-9.26877535 4.41880929 -9.26877535 4.41880929 -11 7 C-10.64780657 4.39376858 -10.23526531 2.39210885 -8.875 0.125 C-5.81531347 -1.71081192 -3.35406389 -0.77862197 0 0 Z " fill="#DFB893" transform="translate(29,22)"/>
<path d="M0 0 C0.5775 0.804375 1.155 1.60875 1.75 2.4375 C3.74712143 5.01698643 3.74712143 5.01698643 6 6.0625 C8.24191953 6.20215663 8.24191953 6.20215663 10.25 4.0625 C10.8275 3.381875 11.405 2.70125 12 2 C11.42655063 4.86724686 11.1385485 5.8614515 9 8 C5.86295684 8.333728 3.83445834 8.52849028 1.125 6.8125 C-0.34781139 4.43963721 -0.22223194 2.74086056 0 0 Z " fill="#E39A10" transform="translate(67,144)"/>
<path d="M0 0 C2.38325827 1.2659561 4.68407645 2.61044587 7 4 C6.01 4.33 5.02 4.66 4 5 C3.01 4.34 2.02 3.68 1 3 C-0.9896995 2.60986284 -2.99019869 2.26797351 -5 2 C-5 1.34 -5 0.68 -5 0 C-6.65 0 -8.3 0 -10 0 C-6.18790487 -2.63914278 -4.11141598 -1.77355199 0 0 Z " fill="#DA9430" transform="translate(75,41)"/>
<path d="M0 0 C0.33 0 0.66 0 1 0 C3.28571429 8.42857143 3.28571429 8.42857143 3 13 C2.01 12.67 1.02 12.34 0 12 C-0.73046875 10.15234375 -0.73046875 10.15234375 -1.1875 7.9375 C-1.34605469 7.20402344 -1.50460938 6.47054687 -1.66796875 5.71484375 C-1.77753906 5.14894531 -1.88710937 4.58304688 -2 4 C-1.34 4 -0.68 4 0 4 C0 2.68 0 1.36 0 0 Z " fill="#834408" transform="translate(70,59)"/>
<path d="M0 0 C2.875 -0.125 2.875 -0.125 6 0 C6.66 0.66 7.32 1.32 8 2 C7.01 2.99 6.02 3.98 5 5 C2.525 4.01 2.525 4.01 0 3 C0 2.01 0 1.02 0 0 Z " fill="#E39B11" transform="translate(70,141)"/>
<path d="M0 0 C2.31 1.98 4.62 3.96 7 6 C6.67 6.66 6.34 7.32 6 8 C3.23737447 7.6189482 2.15856106 7.16402868 0.1875 5.125 C-0.204375 4.42375 -0.59625 3.7225 -1 3 C-0.67 2.01 -0.34 1.02 0 0 Z " fill="#F0D9BC" transform="translate(32,26)"/>
<path d="M0 0 C2.97 0.99 5.94 1.98 9 3 C9 3.99 9 4.98 9 6 C6.69 6 4.38 6 2 6 C2 4.68 2 3.36 2 2 C1.34 2 0.68 2 0 2 C0 1.34 0 0.68 0 0 Z " fill="#F8EBD3" transform="translate(65,152)"/>
<path d="M0 0 C0.33 0.66 0.66 1.32 1 2 C1.66 2 2.32 2 3 2 C4.25664978 4.90600261 5 6.79604584 5 10 C4.01 10 3.02 10 2 10 C0.68373308 6.38026598 0 3.90432869 0 0 Z " fill="#7F4006" transform="translate(74,58)"/>
<path d="M0 0 C-0.33 1.32 -0.66 2.64 -1 4 C-1.66 4 -2.32 4 -3 4 C-3 3.34 -3 2.68 -3 2 C-7.29 2 -11.58 2 -16 2 C-16 1.67 -16 1.34 -16 1 C-14.08351538 0.83125293 -12.16680367 0.66508357 -10.25 0.5 C-9.18265625 0.4071875 -8.1153125 0.314375 -7.015625 0.21875 C-4.6820782 0.04947717 -2.33967818 0 0 0 Z " fill="#CC5747" transform="translate(76,121)"/>
<path d="M0 0 C0.66 0 1.32 0 2 0 C2 2.97 2 5.94 2 9 C-0.31 9 -2.62 9 -5 9 C-5 8.67 -5 8.34 -5 8 C-3.02 8 -1.04 8 1 8 C0.65555119 5.52733235 0.65555119 5.52733235 0 3 C-0.66 2.67 -1.32 2.34 -2 2 C-1.34 1.34 -0.68 0.68 0 0 Z " fill="#C58920" transform="translate(62,51)"/>
<path d="M0 0 C2.31 0.66 4.62 1.32 7 2 C7.33 3.32 7.66 4.64 8 6 C6.02 6 4.04 6 2 6 C2 5.34 2 4.68 2 4 C1.34 3.67 0.68 3.34 0 3 C0 2.01 0 1.02 0 0 Z " fill="#94550D" transform="translate(80,52)"/>
<path d="M0 0 C2.97 0 5.94 0 9 0 C8.67 1.65 8.34 3.3 8 5 C5.36 3.68 2.72 2.36 0 1 C0 0.67 0 0.34 0 0 Z " fill="#C31616" transform="translate(71,106)"/>
<path d="M0 0 C0.66 0 1.32 0 2 0 C2.125 3.375 2.125 3.375 2 7 C1.34 7.66 0.68 8.32 0 9 C-1.125 6.1875 -1.125 6.1875 -2 3 C-1.34 2.01 -0.68 1.02 0 0 Z " fill="#FCC54A" transform="translate(54,82)"/>
<path d="M0 0 C1 2 1 2 0.25 5.5625 C-0.1625 6.696875 -0.575 7.83125 -1 9 C-1.99 9.33 -2.98 9.66 -4 10 C-3.43454163 6.04179141 -2.19097652 3.3340947 0 0 Z " fill="#E0BB94" transform="translate(58,132)"/>
<path d="M0 0 C-0.99 1.485 -0.99 1.485 -2 3 C-3.65 2.67 -5.3 2.34 -7 2 C-7 1.34 -7 0.68 -7 0 C-3.86650268 -1.04449911 -3.01031744 -0.93423645 0 0 Z " fill="#DF7B27" transform="translate(78,98)"/>
<path d="M0 0 C0.33 0.66 0.66 1.32 1 2 C1.66 2 2.32 2 3 2 C2.34 3.98 1.68 5.96 1 8 C0.01 8 -0.98 8 -2 8 C-1.67 7.67 -1.34 7.34 -1 7 C-0.63239269 4.67182036 -0.29758419 2.3381615 0 0 Z " fill="#DBB781" transform="translate(52,151)"/>
<path d="M0 0 C6.75 -0.125 6.75 -0.125 9 1 C8.67 2.32 8.34 3.64 8 5 C7.34 5 6.68 5 6 5 C6 3.68 6 2.36 6 1 C4.02 1 2.04 1 0 1 C0 0.67 0 0.34 0 0 Z " fill="#E6BF9A" transform="translate(89,136)"/>
<path d="M0 0 C-1 1.5 -1 1.5 -3 3 C-5.71846235 3.27345479 -8.25677199 3.13491285 -11 3 C-7.48550811 -0.37391222 -4.73940561 -0.27342725 0 0 Z " fill="#D35950" transform="translate(101,94)"/>
<path d="M0 0 C2.475 0.99 2.475 0.99 5 2 C4.34 3.65 3.68 5.3 3 7 C1.25372522 4.38058783 0.61277612 2.96175123 0 0 Z " fill="#F0B935" transform="translate(83,57)"/>
<path d="M0 0 C1.65 0 3.3 0 5 0 C5 0.66 5 1.32 5 2 C5.66 2.33 6.32 2.66 7 3 C2.545 3.495 2.545 3.495 -2 4 C-1.34 2.68 -0.68 1.36 0 0 Z " fill="#844408" transform="translate(65,41)"/>
<path d="M0 0 C2.31 0 4.62 0 7 0 C5.68 0.33 4.36 0.66 3 1 C3 1.66 3 2.32 3 3 C3.66 3.33 4.32 3.66 5 4 C3.35 4 1.7 4 0 4 C0 2.68 0 1.36 0 0 Z " fill="#F8BB32" transform="translate(39,73)"/>
<path d="M0 0 C2.64 0 5.28 0 8 0 C6.875 1.5625 6.875 1.5625 5 3 C1.8125 2.6875 1.8125 2.6875 -1 2 C-0.67 1.34 -0.34 0.68 0 0 Z " fill="#F1E5D7" transform="translate(91,66)"/>
</svg>
