<?xml version="1.0" encoding="UTF-8"?>
<svg version="1.1" xmlns="http://www.w3.org/2000/svg" width="512" height="512">
<path d="M0 0 C2.14648497 -0.0029959 4.29296939 -0.00639942 6.43945312 -0.01017761 C12.24781351 -0.01898033 18.05615914 -0.02135422 23.86452556 -0.0219934 C27.50255087 -0.0227063 31.14057249 -0.0248452 34.77859688 -0.02749062 C47.49709433 -0.03673342 60.21558133 -0.04082705 72.93408203 -0.04003906 C84.7451309 -0.03943934 96.55613394 -0.04997315 108.36717123 -0.06578273 C118.54172126 -0.07891104 128.71625642 -0.08422071 138.89081484 -0.08358365 C144.95216362 -0.08333011 151.01347168 -0.08610077 157.07481194 -0.0967617 C162.78518282 -0.10653154 168.49547482 -0.10646177 174.20584869 -0.09924507 C176.28572011 -0.09821 178.36559667 -0.10049685 180.44545937 -0.10660553 C197.0690475 -0.15221382 214.13933224 0.03520537 230.28149414 4.45776367 C231.10842773 4.67577637 231.93536133 4.89378906 232.78735352 5.1184082 C258.15647009 12.02687358 278.97214674 27.84163324 292.78149414 50.14526367 C307.34931245 76.41822858 307.94439737 106.43838392 307.91088867 135.7097168 C307.91224702 137.72549979 307.91402938 139.74128254 307.91619873 141.75706482 C307.92072146 147.18471077 307.91900492 152.61233751 307.91581964 158.03998375 C307.91326919 163.74862084 307.91564101 169.4572564 307.91720581 175.16589355 C307.91901971 184.74837537 307.9166417 194.33084944 307.91186523 203.91333008 C307.90642413 214.95599567 307.90818733 225.99864278 307.91369164 237.04130793 C307.91824503 246.56112401 307.91886245 256.08093457 307.91625297 265.6007514 C307.91470242 271.26952765 307.91446268 276.93829525 307.91778946 282.60707092 C307.92070064 287.93910133 307.91863344 293.27110817 307.9128952 298.60313606 C307.91158489 300.54762292 307.91193189 302.4921118 307.91415787 304.43659782 C307.93043463 320.11310779 307.7192468 335.69090425 304.78149414 351.14526367 C304.66467285 351.78012695 304.54785156 352.41499023 304.42749023 353.0690918 C299.64675712 378.3152504 286.85436515 400.55161632 265.96899414 415.89526367 C248.4941589 427.32218943 231.35845069 432.48936171 210.78149414 435.14526367 C209.60711226 435.31389073 208.43273037 435.4825178 207.22276115 435.65625477 C202.58016445 436.232317 197.99609325 436.28751413 193.32278442 436.27897644 C192.40168282 436.281242 191.48058122 436.28350755 190.53156745 436.28584176 C187.46138033 436.29214492 184.39123778 436.29135475 181.32104492 436.29052734 C179.11264489 436.29352127 176.90424538 436.29692433 174.69584656 436.30070496 C168.70563051 436.3095287 162.71542877 436.31188248 156.72520685 436.31252074 C152.97615441 436.31323255 149.22710559 436.31536941 145.47805405 436.31801796 C133.05488081 436.32679126 120.63171451 436.33143833 108.20853855 436.33068749 C107.5397428 436.33064753 106.87094705 436.33060757 106.18188477 436.33056641 C105.51226081 436.33052553 104.84263686 436.33048464 104.15272127 436.33044253 C93.32424344 436.33003692 82.49580053 436.33958575 71.66733278 436.35370477 C60.51828876 436.36812558 49.36925908 436.37478931 38.22020519 436.374111 C31.97331674 436.37385712 25.72646777 436.37664662 19.47958755 436.38728905 C13.59443813 436.39704123 7.70936531 436.39700086 1.82421303 436.38977242 C-0.32261073 436.38873513 -2.46943945 436.39103783 -4.61625481 436.39713287 C-20.42541108 436.43906894 -36.50759699 436.27221374 -51.84350586 431.95776367 C-52.62290527 431.74345703 -53.40230469 431.52915039 -54.20532227 431.30834961 C-79.22186918 424.123016 -100.18085481 408.72822813 -113.96850586 386.39526367 C-123.55093884 368.98905599 -127.34254664 349.84829324 -128.21850586 330.14526367 C-128.29839435 328.68013002 -128.38005991 327.2150925 -128.46322441 325.75014114 C-129.10320484 314.24754625 -129.36298425 302.7919209 -129.34790039 291.27319336 C-129.34926075 289.48654648 -129.3510442 287.69989987 -129.35321045 285.91325378 C-129.35771077 281.12578212 -129.35602582 276.33833238 -129.35283136 271.5508604 C-129.35026741 266.49462012 -129.35265653 261.43838149 -129.35421753 256.38214111 C-129.35602826 247.8928596 -129.35366256 239.40358682 -129.34887695 230.91430664 C-129.34344351 221.16456866 -129.34519478 211.41485163 -129.35070336 201.66511416 C-129.35527436 193.2304335 -129.3558655 184.79575906 -129.35326469 176.36107755 C-129.35172277 171.35162339 -129.35144966 166.34217901 -129.35480118 161.33272552 C-129.41153378 62.51580381 -129.41153378 62.51580381 -97.29663086 29.10229492 C-79.78347695 11.73074155 -56.17241696 4.05008736 -32.21850586 1.14526367 C-31.51904563 1.05613048 -30.8195854 0.96699728 -30.09892941 0.87516308 C-20.09832924 -0.21915308 -10.04575137 -0.0028027 0 0 Z M-25.21850586 4.14526367 C-25.21850586 4.47526367 -25.21850586 4.80526367 -25.21850586 5.14526367 C-22.24850586 5.14526367 -19.27850586 5.14526367 -16.21850586 5.14526367 C-16.21850586 4.81526367 -16.21850586 4.48526367 -16.21850586 4.14526367 C-19.18850586 4.14526367 -22.15850586 4.14526367 -25.21850586 4.14526367 Z M198.78149414 4.14526367 C198.78149414 4.47526367 198.78149414 4.80526367 198.78149414 5.14526367 C201.75149414 5.14526367 204.72149414 5.14526367 207.78149414 5.14526367 C207.78149414 4.81526367 207.78149414 4.48526367 207.78149414 4.14526367 C204.81149414 4.14526367 201.84149414 4.14526367 198.78149414 4.14526367 Z M213.78149414 5.14526367 C217.78149414 6.14526367 217.78149414 6.14526367 217.78149414 6.14526367 Z " fill="#010100" transform="translate(165.218505859375,44.854736328125)"/>
<path d="M0 0 C0.67946743 -0.00453111 1.35893486 -0.00906223 2.05899221 -0.01373065 C4.31717498 -0.02630785 6.57511451 -0.02475864 8.83332825 -0.02310181 C10.46019294 -0.02909135 12.0870548 -0.03589788 13.71391296 -0.04345703 C18.1212037 -0.0610836 22.5284167 -0.06581108 26.93573928 -0.0670886 C29.69392622 -0.06851297 32.45209358 -0.07278804 35.21027565 -0.07808304 C44.8461952 -0.09657422 54.48205951 -0.10475504 64.11799622 -0.10317993 C73.07765555 -0.10197968 82.03707355 -0.12306152 90.99667186 -0.15466726 C98.70650233 -0.18088793 106.41625429 -0.19154476 114.12612897 -0.19026911 C118.72299874 -0.18976106 123.31965404 -0.19535672 127.91647911 -0.21662521 C132.24469406 -0.23610478 136.57249215 -0.23606626 140.9007225 -0.22159195 C142.48083804 -0.21951455 144.06098033 -0.22414035 145.64105034 -0.23631287 C162.55038342 -0.35804286 176.08629934 4.1190402 188.53962708 15.81820679 C198.57951445 26.24040775 203.30058431 38.55034026 203.10603333 52.94711304 C202.44850323 63.492407 199.62018905 71.15180143 192.89900208 79.26742554 C192.05982239 80.3309021 192.05982239 80.3309021 191.20368958 81.41586304 C182.95305597 91.43174849 172.72213057 97.69534486 159.89900208 100.26742554 C157.62630412 100.36580141 155.35092317 100.406682 153.07611084 100.41459656 C152.0474456 100.42011159 152.0474456 100.42011159 150.99799925 100.42573804 C148.70058827 100.43674881 146.40322257 100.44061432 144.10578918 100.44442749 C142.45804196 100.45069425 140.81029615 100.45734124 139.16255188 100.46434021 C133.75049317 100.48536268 128.33843424 100.49574284 122.92634583 100.50570679 C121.06058297 100.50975542 119.19482025 100.51387237 117.32905769 100.51805687 C108.56022093 100.53710678 99.79139256 100.55133665 91.02253908 100.55966884 C80.91520963 100.56943235 70.8080997 100.59572954 60.70084757 100.63616973 C52.87985107 100.66638338 45.0589173 100.6811428 37.2378636 100.68444985 C32.57110414 100.68679489 27.90457923 100.69568365 23.23788261 100.72091103 C18.84242701 100.74428793 14.44735879 100.74838657 10.05185699 100.73814964 C8.44551615 100.73765646 6.83915561 100.74391234 5.23287392 100.75770569 C-10.64940085 100.88637055 -22.07402914 96.90544038 -33.85099792 85.95492554 C-43.61703211 75.61576728 -48.90715495 62.13367071 -48.69035339 48.00741577 C-47.98054129 33.51772334 -41.17698272 21.85066097 -30.85099792 11.95492554 C-22.10680099 4.58741013 -11.4641793 0.0317694 0 0 Z " fill="#010000" transform="translate(179.1009979248047,180.73257446289063)"/>
<path d="M0 0 C0.67211504 -0.00226556 1.34423007 -0.00453111 2.03671223 -0.00686532 C4.28800652 -0.01319318 6.53924041 -0.01237671 8.7905426 -0.0115509 C10.40548785 -0.01454335 12.02043238 -0.01794608 13.63537598 -0.02172852 C18.02430559 -0.03056889 22.4132157 -0.03290678 26.80215335 -0.0335443 C29.5480976 -0.03425535 32.29403691 -0.03639081 35.03997993 -0.03904152 C44.63164204 -0.04829849 54.22329024 -0.05237639 63.81495667 -0.05158997 C72.73412745 -0.05099065 81.65323746 -0.06151284 90.57239288 -0.07733363 C98.24310445 -0.09045144 105.91379628 -0.09577201 113.58451897 -0.09513456 C118.15960293 -0.0948806 122.73463301 -0.09767416 127.30970573 -0.10831261 C131.62136827 -0.1180639 135.93292624 -0.11802506 140.24459267 -0.11079597 C141.8178307 -0.10975847 143.39107549 -0.11206278 144.96430206 -0.11815643 C157.63322091 -0.16400482 169.68368935 0.67826598 181.61695862 5.25871277 C182.36912659 5.53586121 183.12129456 5.81300964 183.89625549 6.09855652 C185.70305595 6.76603694 187.50442576 7.44819127 189.30445862 8.13371277 C189.30445862 8.79371277 189.30445862 9.45371277 189.30445862 10.13371277 C190.6405719 10.51849792 190.6405719 10.51849792 192.00367737 10.91105652 C205.35870752 15.85794934 215.93213764 30.01182035 222.30445862 42.13371277 C223.88509719 45.74315877 225.16227975 49.36502566 226.30445862 53.13371277 C226.55381165 53.85429871 226.80316467 54.57488464 227.06007385 55.31730652 C229.12833334 61.56444471 229.81691611 67.19407647 229.74195862 73.75871277 C229.73293518 74.71729187 229.72391174 75.67587097 229.71461487 76.66349792 C229.18829402 98.54601799 219.85499306 117.25350202 204.11695862 132.32121277 C187.18586821 146.78256592 167.70912468 150.59952136 146.17408752 150.55363464 C144.51474444 150.56099569 142.85540643 150.56958774 141.19607544 150.57929993 C136.73517442 150.60130811 132.27445921 150.6044572 127.81351137 150.60255241 C124.06895517 150.60243177 120.32443703 150.61103354 116.57989156 150.61932993 C107.7357755 150.6384887 98.89175379 150.64147507 90.04762268 150.63468933 C80.96854592 150.6280508 71.88987564 150.6509228 62.81088126 150.68800306 C54.97341176 150.71883377 47.13607215 150.73004578 39.29854333 150.72616625 C34.63620169 150.72411291 29.97417683 150.72935684 25.31189346 150.75405884 C20.92355721 150.77654684 16.53587629 150.77426803 12.14753532 150.75413132 C10.551776 150.7507601 8.95597058 150.75563898 7.36027336 150.7701149 C-13.1443088 150.94306623 -31.39339302 144.83390801 -46.45726013 130.41105652 C-57.52666228 119.14847108 -64.39211952 108.30045423 -68.69554138 93.13371277 C-69.06292419 91.87043152 -69.43030701 90.60715027 -69.80882263 89.30558777 C-73.39685273 74.55638017 -71.44277619 56.62396992 -63.63304138 43.63371277 C-63.14706482 42.92215027 -62.66108826 42.21058777 -62.16038513 41.47746277 C-60.54232126 39.04320812 -60.54232126 39.04320812 -59.33616638 35.72746277 C-57.58368118 31.88868566 -55.39905474 29.13257379 -52.50804138 26.13371277 C-52.016828 25.61534851 -51.52561462 25.09698425 -51.01951599 24.56291199 C-49.59198043 23.07223588 -48.14815653 21.59991353 -46.69554138 20.13371277 C-46.00976013 19.43504089 -45.32397888 18.73636902 -44.61741638 18.01652527 C-39.71495293 13.38184343 -31.66684934 7.13371277 -24.69554138 7.13371277 C-24.69554138 6.47371277 -24.69554138 5.81371277 -24.69554138 5.13371277 C-22.44577786 4.48705614 -20.19572171 3.84141754 -17.94554138 3.19621277 C-16.69257263 2.83656433 -15.43960388 2.47691589 -14.14866638 2.10636902 C-13.00913513 1.78539246 -11.86960388 1.46441589 -10.69554138 1.13371277 C-10.10241622 0.95140956 -9.50929106 0.76910635 -8.89819241 0.5812788 C-5.90660457 -0.02659466 -3.05301453 0.004251 0 0 Z M-35.91038513 44.64152527 C-44.56226763 56.72008332 -47.28273311 69.57753593 -45.69554138 84.13371277 C-44.55359933 88.78969968 -42.87252764 92.87188782 -40.69554138 97.13371277 C-40.02651794 98.47175964 -40.02651794 98.47175964 -39.34397888 99.83683777 C-33.04369402 111.31109959 -22.9538257 120.07306649 -10.45582581 124.20471287 C-6.66190812 125.14202206 -3.43901215 125.39300427 0.4611969 125.40786743 C1.14671474 125.41310411 1.83223257 125.41834079 2.53852367 125.42373616 C4.81733321 125.43864192 7.09591634 125.43943922 9.37477112 125.44010925 C11.01647313 125.4477374 12.65817158 125.45616602 14.29986572 125.46533203 C18.74867056 125.48722661 23.19740668 125.49606981 27.64625931 125.50115848 C30.43194128 125.50480977 33.21760547 125.51105401 36.00328064 125.51815987 C45.73991175 125.54264246 55.47648972 125.55570248 65.21315002 125.55924988 C74.25800271 125.56287826 83.30251464 125.59272661 92.34726334 125.63465446 C100.13527192 125.66947768 107.9231683 125.68480044 115.71125412 125.68549591 C120.35242999 125.68628501 124.99325891 125.69485242 129.63435364 125.72349358 C134.00778194 125.74987944 138.38058081 125.75176656 142.75405312 125.73583794 C144.34742938 125.73403928 145.94084357 125.7405687 147.53413963 125.75665665 C162.4884373 125.89828518 175.53712753 123.07248235 187.30445862 113.13371277 C188.25385315 112.33320496 188.25385315 112.33320496 189.22242737 111.51652527 C198.60099027 102.86257539 204.52689789 91.27310462 205.49977112 78.58683777 C206.05880158 64.49927011 201.3966374 52.61188907 192.42555237 41.88761902 C184.23088265 33.1300831 171.48057955 25.54442308 159.24327278 24.99669838 C157.42880559 24.98833993 157.42880559 24.98833993 155.5776825 24.97981262 C154.56444296 24.97323924 154.56444296 24.97323924 153.53073394 24.96653306 C151.2679687 24.95318249 149.00524239 24.9469745 146.7424469 24.94084167 C145.1192711 24.93293737 143.49609703 24.92466822 141.8729248 24.9160614 C136.54022391 24.88986595 131.2075153 24.87453017 125.87477112 24.86027527 C124.03507864 24.85491343 122.19538621 24.84953591 120.35569382 24.84414291 C112.69680778 24.82251242 105.03792382 24.8037801 97.37901497 24.79252052 C86.42735718 24.7763116 75.47605587 24.74321028 64.52453244 24.68611968 C56.81219495 24.64729692 49.09995229 24.62787294 41.38751972 24.62259996 C36.78823001 24.61896162 32.18932073 24.60710413 27.59013748 24.57449722 C23.25452866 24.54420094 18.91952608 24.53818063 14.58383369 24.54988098 C13.00293137 24.55009997 11.42199915 24.54194187 9.84119606 24.52422714 C-8.65054678 24.32849237 -23.73218684 30.18772935 -35.91038513 44.64152527 Z " fill="#E74D5A" transform="translate(176.69554138183594,155.8662872314453)"/>
<path d="M0 0 C16.83 0 33.66 0 51 0 C51 26.4 51 52.8 51 80 C34.17 80 17.34 80 0 80 C0 53.6 0 27.2 0 0 Z " fill="#C7A434" transform="translate(274,382)"/>
<path d="M0 0 C15.84 0 31.68 0 48 0 C48 26.4 48 52.8 48 80 C32.16 80 16.32 80 0 80 C0 53.6 0 27.2 0 0 Z " fill="#C09F33" transform="translate(187,382)"/>
<path d="M0 0 C-1.53513727 3.78912415 -3.7971423 5.81732798 -6.85302734 8.48632812 C-15.89175685 16.55735297 -24.36097017 25.21473516 -32.92062426 33.78629875 C-35.34712971 36.21536988 -37.77611238 38.64196207 -40.2046814 41.06896973 C-44.26927148 45.13175336 -48.33177677 49.19661263 -52.39306641 53.26269531 C-57.08449958 57.95960128 -61.77956868 62.65284971 -66.47647727 67.34427977 C-70.52781562 71.39108266 -74.57720553 75.43982749 -78.62496698 79.49020815 C-81.03497291 81.90177023 -83.44564289 84.31265807 -85.85808182 86.7217865 C-88.53622868 89.39740307 -91.21116519 92.07618781 -93.88525391 94.75585938 C-94.68207581 95.55065704 -95.47889771 96.34545471 -96.29986572 97.16433716 C-97.38864517 98.25734634 -97.38864517 98.25734634 -98.49942017 99.37243652 C-99.13093302 100.0043264 -99.76244587 100.63621628 -100.41309547 101.28725433 C-102.19255427 103.11701071 -102.19255427 103.11701071 -104 106 C-104.66 106 -105.32 106 -106 106 C-106.78396693 76.55768646 -101.80304409 50.18283783 -81 28 C-70.56682781 17.30067546 -58.27780577 9.44862668 -44 5 C-43.05640625 4.70480469 -42.1128125 4.40960938 -41.140625 4.10546875 C-28.02219849 0.5829283 -13.54757927 -0.24805427 0 0 Z " fill="#E34B57" transform="translate(156,49)"/>
<path d="M0 0 C5.73075516 2.59841693 8.64707021 6.21324129 11 12 C11.41530868 15.29084001 11.37969433 18.54774039 11.34057617 21.86083984 C11.34123329 23.32518967 11.34123329 23.32518967 11.34190369 24.81912231 C11.33982023 28.03326693 11.31650965 31.24688444 11.29296875 34.4609375 C11.28737123 36.6943839 11.28310187 38.92783399 11.28010559 41.1612854 C11.26866915 47.03035713 11.23921205 52.89920499 11.20599365 58.76818848 C11.17526703 64.76079276 11.1615947 70.75343334 11.14648438 76.74609375 C11.11434137 88.49750985 11.061583 100.24870126 11 112 C-0.55 112 -12.1 112 -24 112 C-24.11306807 99.09980267 -24.20475549 86.19993574 -24.25906086 73.29935455 C-24.28512785 67.30875706 -24.32047394 61.31851687 -24.37719727 55.328125 C-24.43161893 49.54445393 -24.46144234 43.76112603 -24.47438622 37.97721863 C-24.48360775 35.77323507 -24.50161543 33.56926978 -24.52865028 31.36543274 C-24.56507458 28.27250942 -24.56993962 25.18099474 -24.56762695 22.08789062 C-24.58560333 21.18157898 -24.60357971 20.27526733 -24.62210083 19.3414917 C-24.56026029 11.67217698 -21.87217971 6.87217971 -16.5 1.5 C-11.01646268 -0.85008742 -5.86226263 -0.9436813 0 0 Z " fill="#D1AC36" transform="translate(261,350)"/>
<path d="M0 0 C5.73075516 2.59841693 8.64707021 6.21324129 11 12 C11.41530868 15.29084001 11.37969433 18.54774039 11.34057617 21.86083984 C11.34123329 23.32518967 11.34123329 23.32518967 11.34190369 24.81912231 C11.33982023 28.03326693 11.31650965 31.24688444 11.29296875 34.4609375 C11.28737123 36.6943839 11.28310187 38.92783399 11.28010559 41.1612854 C11.26866915 47.03035713 11.23921205 52.89920499 11.20599365 58.76818848 C11.17526703 64.76079276 11.1615947 70.75343334 11.14648438 76.74609375 C11.11434137 88.49750985 11.061583 100.24870126 11 112 C-0.55 112 -12.1 112 -24 112 C-24.11306807 99.09980267 -24.20475549 86.19993574 -24.25906086 73.29935455 C-24.28512785 67.30875706 -24.32047394 61.31851687 -24.37719727 55.328125 C-24.43161893 49.54445393 -24.46144234 43.76112603 -24.47438622 37.97721863 C-24.48360775 35.77323507 -24.50161543 33.56926978 -24.52865028 31.36543274 C-24.56507458 28.27250942 -24.56993962 25.18099474 -24.56762695 22.08789062 C-24.58560333 21.18157898 -24.60357971 20.27526733 -24.62210083 19.3414917 C-24.56026029 11.67217698 -21.87217971 6.87217971 -16.5 1.5 C-11.01646268 -0.85008742 -5.86226263 -0.9436813 0 0 Z " fill="#D1AC36" transform="translate(174,350)"/>
<path d="M0 0 C5.67458259 1.89152753 9.32628019 5.65256038 12 11 C12.09149007 12.35579449 12.12194047 13.71598278 12.12025452 15.07485962 C12.12162918 15.92743851 12.12300385 16.7800174 12.12442017 17.65843201 C12.11902725 19.06428307 12.11902725 19.06428307 12.11352539 20.49853516 C12.11367142 21.48393784 12.11381744 22.46934052 12.1139679 23.48460388 C12.11326933 26.75277889 12.10547955 30.02089741 12.09765625 33.2890625 C12.09579187 35.55064869 12.09436806 37.81223528 12.09336853 40.07382202 C12.08954493 46.03492339 12.07971596 51.99600051 12.06866455 57.95709229 C12.05844707 64.03649569 12.05387019 70.11590299 12.04882812 76.1953125 C12.03809357 88.13022072 12.02049802 100.06510455 12 112 C0.78 112 -10.44 112 -22 112 C-22.09037763 98.93487099 -22.16376048 85.86994968 -22.20724869 72.80457878 C-22.22812109 66.73776508 -22.25643301 60.67117639 -22.30175781 54.60449219 C-22.34522702 48.74952102 -22.36913972 42.89476624 -22.37950897 37.03964615 C-22.38689833 34.80611896 -22.40132799 32.57260359 -22.42292023 30.33916855 C-22.45196775 27.21006448 -22.45595534 24.08185397 -22.45410156 20.95263672 C-22.46848267 20.02978378 -22.48286377 19.10693085 -22.49768066 18.15611267 C-22.46203459 12.59346465 -21.72822994 9.4034795 -18 5 C-12.02699628 -0.26193185 -7.81748614 -0.59793803 0 0 Z " fill="#D2AD36" transform="translate(350,350)"/>
<path d="M0 0 C15.84 0 31.68 0 48 0 C48 26.4 48 52.8 48 80 C40.86169169 80 34.54507776 79.90797625 27.625 78.75 C26.81208496 78.61722656 25.99916992 78.48445313 25.16162109 78.34765625 C6.5690909 75.14799445 6.5690909 75.14799445 0 70 C-0.60127258 66.98176575 -0.60127258 66.98176575 -0.56762695 63.23364258 C-0.56835709 62.55045456 -0.56908722 61.86726654 -0.56983948 61.16337585 C-0.56635724 58.9062851 -0.52747226 56.65126111 -0.48828125 54.39453125 C-0.47895523 52.82941312 -0.47183812 51.2642804 -0.46684265 49.69914246 C-0.44775576 45.5805732 -0.39864169 41.46288626 -0.34332275 37.34466553 C-0.28317113 32.40306076 -0.26022195 27.46116087 -0.23105621 22.51929474 C-0.18257621 15.0122496 -0.0867766 7.50714016 0 0 Z " fill="#C2A134" transform="translate(100,382)"/>
<path d="M0 0 C15.51 0 31.02 0 47 0 C47 23.43 47 46.86 47 71 C30.56684923 77.3204426 17.48557665 80 0 80 C0 53.6 0 27.2 0 0 Z " fill="#C8A534" transform="translate(365,382)"/>
<path d="M0 0 C5.67458259 1.89152753 9.32628019 5.65256038 12 11 C12.12645549 12.79463488 12.19048102 14.59381727 12.22460938 16.39257812 C12.24712769 17.52135376 12.269646 18.65012939 12.29284668 19.81311035 C12.36389351 25.00259547 12.42160083 30.19201234 12.45996094 35.38183594 C12.48214673 38.11360324 12.52377279 40.84398483 12.58300781 43.57519531 C12.66835539 47.51880149 12.69532538 51.46176884 12.71875 55.40625 C12.75174194 56.61704224 12.78473389 57.82783447 12.81872559 59.07531738 C12.79853405 67.70855468 10.62506741 72.51382738 5 79 C4.26394531 79.93972656 3.52789062 80.87945312 2.76953125 81.84765625 C-4.20442116 89.74033293 -11.82717217 96.8002329 -22 100 C-22.09272449 88.49953489 -22.16377763 76.99915887 -22.20724869 65.49839592 C-22.2281138 60.15797588 -22.25641212 54.8178118 -22.30175781 49.47753906 C-22.34525346 44.32282117 -22.3691452 39.16834932 -22.37950897 34.01346207 C-22.38689363 32.04787448 -22.4013142 30.08230019 -22.42292023 28.11681747 C-22.45200353 25.36127487 -22.45595393 22.60674588 -22.45410156 19.85107422 C-22.46848267 19.04043015 -22.48286377 18.22978607 -22.49768066 17.39457703 C-22.45943265 12.12822431 -21.45685839 9.19439593 -18 5 C-12.02699628 -0.26193185 -7.81748614 -0.59793803 0 0 Z " fill="#D1AC36" transform="translate(437,350)"/>
<path d="M0 0 C5.67458259 1.89152753 9.32628019 5.65256038 12 11 C12.0932753 13.80730125 12.12575925 16.58961098 12.11352539 19.39697266 C12.11367142 20.26533249 12.11381744 21.13369232 12.1139679 22.02836609 C12.11326961 24.90695672 12.1054811 27.78548314 12.09765625 30.6640625 C12.09579177 32.65660568 12.09436801 34.64914931 12.09336853 36.64169312 C12.08954569 41.89259094 12.07971737 47.14346122 12.06866455 52.39434814 C12.05844543 57.74987414 12.05386983 63.10540457 12.04882812 68.4609375 C12.03809491 78.97397045 12.02102127 89.48698294 12 100 C3.37305305 96.636454 -3.21470567 91.06744213 -9.75 84.625 C-10.28044922 84.10832764 -10.81089844 83.59165527 -11.35742188 83.05932617 C-18.59082384 75.74126361 -22.66711636 69.84968601 -22.78237915 59.29121399 C-22.76395966 58.08780869 -22.74554016 56.88440338 -22.7265625 55.64453125 C-22.72805801 53.7539222 -22.72805801 53.7539222 -22.72958374 51.82511902 C-22.72491978 49.17225893 -22.70879767 46.52265274 -22.67236328 43.87036133 C-22.62684765 40.48414145 -22.62593664 37.09970379 -22.63939857 33.7132616 C-22.64771083 30.46105188 -22.6237261 27.20915487 -22.6015625 23.95703125 C-22.60338531 22.74755325 -22.60520813 21.53807526 -22.60708618 20.29194641 C-22.49985292 13.92623918 -22.36645295 9.79407458 -18 5 C-12.02699628 -0.26193185 -7.81748614 -0.59793803 0 0 Z " fill="#D1AC36" transform="translate(85,350)"/>
<path d="M0 0 C1.64064518 -0.01333858 3.28153154 0.01270118 4.921875 0.046875 C3.38673773 3.83599915 1.1247327 5.86420298 -1.93115234 8.53320312 C-10.96988185 16.60422797 -19.43909517 25.26161016 -27.99874926 33.83317375 C-30.42525471 36.26224488 -32.85423738 38.68883707 -35.2828064 41.11584473 C-39.34739648 45.17862836 -43.40990177 49.24348763 -47.47119141 53.30957031 C-52.16262458 58.00647628 -56.85769368 62.69972471 -61.55460227 67.39115477 C-65.60594062 71.43795766 -69.65533053 75.48670249 -73.70309198 79.53708315 C-76.11309791 81.94864523 -78.52376789 84.35953307 -80.93620682 86.7686615 C-83.61435368 89.44427807 -86.28929019 92.12306281 -88.96337891 94.80273438 C-89.76020081 95.59753204 -90.55702271 96.39232971 -91.37799072 97.21121216 C-92.46677017 98.30422134 -92.46677017 98.30422134 -93.57754517 99.41931152 C-94.20905802 100.0512014 -94.84057087 100.68309128 -95.49122047 101.33412933 C-97.27067927 103.16388571 -97.27067927 103.16388571 -99.078125 106.046875 C-99.738125 106.046875 -100.398125 106.046875 -101.078125 106.046875 C-101.078125 99.116875 -101.078125 92.186875 -101.078125 85.046875 C-100.748125 85.046875 -100.418125 85.046875 -100.078125 85.046875 C-99.748125 87.356875 -99.418125 89.666875 -99.078125 92.046875 C-87.91083312 80.92632532 -76.7492902 69.80003994 -65.59453869 58.66691303 C-60.41494168 53.49762404 -55.23348827 48.33022192 -50.04760742 43.16723633 C-45.52705521 38.6666325 -41.01004192 34.16251181 -36.49722463 29.65415162 C-34.10810209 27.267634 -31.71725715 24.88290193 -29.32216454 22.50237465 C-26.64785253 19.8425572 -23.97984141 17.17657016 -21.31323242 14.5090332 C-20.51985474 13.72284607 -19.72647705 12.93665894 -18.90905762 12.12664795 C-18.18131638 11.39615738 -17.45357513 10.66566681 -16.70378113 9.91304016 C-15.75663884 8.96866325 -15.75663884 8.96866325 -14.79036236 8.00520802 C-12.95083794 6.03996463 -12.95083794 6.03996463 -11.58589649 3.35602093 C-10.078125 1.046875 -10.078125 1.046875 -6.328125 0.234375 C-4.21686228 0.09362415 -2.11511077 0.04770927 0 0 Z " fill="#B03A44" transform="translate(151.078125,48.953125)"/>
<path d="M0 0 C3.24168949 1.62084474 5.19736744 2.94198435 7.375 5.8125 C8.72975066 10.55412733 8.54860733 14.46867512 6.25 18.8125 C4.04053981 21.9425686 3.39485862 22.70322518 0 24 C-3.39847993 24.52496844 -6.60250035 24.54514176 -10 24 C-13.27928748 21.54053439 -15.72760732 18.9328501 -17 15 C-17.480151 10.67864101 -17.29173086 8.5331633 -15.1875 4.6875 C-10.77788464 -0.73002745 -6.57836214 -0.83892021 0 0 Z " fill="#050401" transform="translate(259,355)"/>
<path d="M0 0 C3.24168949 1.62084474 5.19736744 2.94198435 7.375 5.8125 C8.72975066 10.55412733 8.54860733 14.46867512 6.25 18.8125 C4.04053981 21.9425686 3.39485862 22.70322518 0 24 C-3.39847993 24.52496844 -6.60250035 24.54514176 -10 24 C-13.27928748 21.54053439 -15.72760732 18.9328501 -17 15 C-17.480151 10.67864101 -17.29173086 8.5331633 -15.1875 4.6875 C-10.77788464 -0.73002745 -6.57836214 -0.83892021 0 0 Z " fill="#050401" transform="translate(172,355)"/>
<path d="M0 0 C4.26004714 0.95447514 7.07080882 2.8763419 9.74609375 6.28125 C11.19508783 11.49762867 11.07163032 15.18021519 8.62109375 19.90625 C5.93311228 23.04222838 4.04933178 24.27200998 -0.03125 24.90234375 C-6.89441493 25.08211849 -6.89441493 25.08211849 -10.62890625 22.28125 C-14.0947231 17.51575183 -15.54047705 14.60838864 -14.62890625 8.53125 C-11.14916318 2.14239697 -7.32345978 -0.62422184 0 0 Z " fill="#E24C59" transform="translate(334.62890625,218.46875)"/>
<path d="M0 0 C3.66195861 1.59215592 6.20204902 3.40409804 8 7 C8.58703194 11.2861373 8.47084867 14.8600506 6.8125 18.875 C4.15722613 21.98807971 1.99804331 23.66391508 -2.11328125 24.35546875 C-6.32167074 24.61716692 -9.14474264 24.36362093 -12.5 21.6875 C-16.14158814 17.77279275 -16.39287308 14.42654891 -16.359375 9.29296875 C-15.74961638 5.40244364 -13.81165184 3.67776365 -11 1 C-7.55105608 -0.72447196 -3.77843255 -0.36671096 0 0 Z " fill="#030300" transform="translate(436,355)"/>
<path d="M0 0 C3.66195861 1.59215592 6.20204902 3.40409804 8 7 C8.58703194 11.2861373 8.47084867 14.8600506 6.8125 18.875 C4.15722613 21.98807971 1.99804331 23.66391508 -2.11328125 24.35546875 C-6.32167074 24.61716692 -9.14474264 24.36362093 -12.5 21.6875 C-16.14158814 17.77279275 -16.39287308 14.42654891 -16.359375 9.29296875 C-15.74961638 5.40244364 -13.81165184 3.67776365 -11 1 C-7.55105608 -0.72447196 -3.77843255 -0.36671096 0 0 Z " fill="#030300" transform="translate(349,355)"/>
<path d="M0 0 C3.66195861 1.59215592 6.20204902 3.40409804 8 7 C8.58703194 11.2861373 8.47084867 14.8600506 6.8125 18.875 C4.15722613 21.98807971 1.99804331 23.66391508 -2.11328125 24.35546875 C-6.32167074 24.61716692 -9.14474264 24.36362093 -12.5 21.6875 C-16.14158814 17.77279275 -16.39287308 14.42654891 -16.359375 9.29296875 C-15.74961638 5.40244364 -13.81165184 3.67776365 -11 1 C-7.55105608 -0.72447196 -3.77843255 -0.36671096 0 0 Z " fill="#030300" transform="translate(84,355)"/>
<path d="M0 0 C3.8026029 2.0050088 5.61790841 3.42686262 8 7 C8.66624845 11.07463524 8.94496094 15.24356703 6.94921875 18.953125 C4.54480216 21.87530681 2.60173645 23.82706916 -1.20703125 24.23828125 C-8.24770268 24.43884011 -8.24770268 24.43884011 -12 22.25 C-15.67916439 18.11094006 -16.49336702 14.70276511 -16.39453125 9.2578125 C-15.72202988 5.40924032 -13.79323112 3.66022012 -11 1 C-7.53081128 -0.73459436 -3.79303468 -0.47173877 0 0 Z " fill="#E44D59" transform="translate(180,219)"/>
<path d="M0 0 C1.32 0 2.64 0 4 0 C3.50427182 4.0840814 2.67526808 5.75857871 -0.54498291 8.29711914 C-5.07339024 12.03012861 -9.16552007 16.06611562 -13.28027344 20.24609375 C-14.45744682 21.43509529 -14.45744682 21.43509529 -15.65840149 22.64811707 C-17.3481072 24.35491421 -19.03675897 26.06275528 -20.72444916 27.77154541 C-24.31135438 31.40068984 -27.90773243 35.02038456 -31.50355911 38.64068604 C-38.18735879 45.3701792 -44.86743174 52.10325944 -51.53076172 58.85302734 C-56.17769353 63.56013244 -60.83758326 68.25415203 -65.50525665 72.94070435 C-67.28165424 74.72887787 -69.05349789 76.521587 -70.82073212 78.31881714 C-73.28160886 80.82044316 -75.75737748 83.30634166 -78.23730469 85.7890625 C-79.33299522 86.91407417 -79.33299522 86.91407417 -80.45082092 88.06181335 C-81.12630478 88.73186905 -81.80178864 89.40192474 -82.4977417 90.09228516 C-83.08098583 90.68143707 -83.66422997 91.27058899 -84.26514816 91.87759399 C-86 93 -86 93 -88.21889114 92.68173218 C-89.10054003 92.34427475 -89.10054003 92.34427475 -90 92 C-89.331586 91.33435138 -89.331586 91.33435138 -88.64966869 90.65525532 C-77.802449 79.85222318 -66.96078673 69.04364746 -56.12526226 58.2288866 C-50.88513107 52.99906367 -45.64314318 47.77112755 -40.39672852 42.54760742 C-35.82343897 37.9942655 -31.25368755 33.43740726 -26.68813258 28.87630957 C-24.27106447 26.4618465 -21.85227323 24.04916896 -19.42923546 21.64069557 C-16.72379124 18.94974475 -14.02464596 16.25262476 -11.3269043 13.55395508 C-10.52417587 12.75841721 -9.72144745 11.96287933 -8.89439392 11.14323425 C-8.15823853 10.40432953 -7.42208313 9.6654248 -6.66362 8.90412903 C-6.02481746 8.26717008 -5.38601492 7.63021112 -4.72785473 6.97395039 C-2.86525604 4.99395456 -2.86525604 4.99395456 -1.52102375 2.25599194 C-1.01908591 1.5115146 -0.51714808 0.76703726 0 0 Z " fill="#C13F4A" transform="translate(141,50)"/>
<path d="M0 0 C2.31 0 4.62 0 7 0 C5.46486273 3.78912415 3.2028577 5.81732798 0.14697266 8.48632812 C-8.89175685 16.55735297 -17.36097017 25.21473516 -25.92062426 33.78629875 C-28.34712971 36.21536988 -30.77611238 38.64196207 -33.2046814 41.06896973 C-37.26927148 45.13175336 -41.33177677 49.19661263 -45.39306641 53.26269531 C-50.08449958 57.95960128 -54.77956868 62.65284971 -59.47647727 67.34427977 C-63.52781562 71.39108266 -67.57720553 75.43982749 -71.62496698 79.49020815 C-74.03497291 81.90177023 -76.44564289 84.31265807 -78.85808182 86.7217865 C-81.53622868 89.39740307 -84.21116519 92.07618781 -86.88525391 94.75585938 C-87.68207581 95.55065704 -88.47889771 96.34545471 -89.29986572 97.16433716 C-90.38864517 98.25734634 -90.38864517 98.25734634 -91.49942017 99.37243652 C-92.13093302 100.0043264 -92.76244587 100.63621628 -93.41309547 101.28725433 C-95.19255427 103.11701071 -95.19255427 103.11701071 -97 106 C-97.66 106 -98.32 106 -99 106 C-99 99.07 -99 92.14 -99 85 C-98.67 85 -98.34 85 -98 85 C-98 87.97 -98 90.94 -98 94 C-97.01 94.33 -96.02 94.66 -95 95 C-95.66 96.32 -96.32 97.64 -97 99 C-91.15299933 95.5220677 -86.66477173 90.93974804 -81.8894043 86.13232422 C-80.99280594 85.23762421 -80.09620758 84.34292419 -79.17243958 83.42111206 C-76.7260687 80.97956543 -74.28595574 78.53185296 -71.84709144 76.08281088 C-69.29107597 73.51798256 -66.7297602 70.95845717 -64.16914368 68.39822388 C-59.87456182 64.10270733 -55.58386074 59.80334547 -51.2956543 55.50146484 C-46.33540089 50.52545298 -41.36990678 45.55472054 -36.40140218 40.58694828 C-31.6191588 35.80531462 -26.83977561 31.0208334 -22.06199074 26.23474503 C-20.02889884 24.19811978 -17.99495749 22.16234847 -15.96036339 20.12722397 C-13.125102 17.29077413 -10.2941199 14.4500911 -7.46362305 11.60888672 C-6.61637665 10.76209351 -5.76913025 9.91530029 -4.89620972 9.04284668 C-4.12940384 8.27177582 -3.36259796 7.50070496 -2.57255554 6.70626831 C-1.90283061 6.03486753 -1.23310568 5.36346676 -0.54308605 4.6717205 C1.08320572 3.06529314 1.08320572 3.06529314 2 1 C1.01 0.505 1.01 0.505 0 0 Z " fill="#943139" transform="translate(149,49)"/>
<path d="M0 0 C16.83 0 33.66 0 51 0 C51 26.4 51 52.8 51 80 C34.17 80 17.34 80 0 80 C0 53.6 0 27.2 0 0 Z M1 6 C0.27435859 9.29665717 0.27435859 9.29665717 0.41650391 12.94580078 C0.41416748 13.62446198 0.41183105 14.30312317 0.40942383 15.00234985 C0.40781555 17.23413367 0.44176916 19.46382383 0.4765625 21.6953125 C0.48335564 23.25038915 0.4880756 24.80547611 0.49081421 26.36056519 C0.50420586 30.44670243 0.54847625 34.53196684 0.59838867 38.61779785 C0.63381876 41.95586513 0.64687327 45.29384483 0.65880775 48.63206673 C0.67359363 52.61153678 0.69880751 56.59091419 0.7265625 60.5703125 C0.73147327 61.32984348 0.73638405 62.08937447 0.74144363 62.87192154 C0.75772027 65.01904626 0.78112414 67.16596189 0.80712891 69.31298828 C0.81998932 70.5347879 0.83284973 71.75658752 0.84609985 73.01541138 C0.86963043 76.05381511 0.86963043 76.05381511 2 79 C8.35368197 79.07597749 14.70724709 79.12856897 21.0612793 79.16479492 C23.22343321 79.17989444 25.38555643 79.20037571 27.54760742 79.22631836 C30.652909 79.26265017 33.75780614 79.27971462 36.86328125 79.29296875 C38.31653557 79.31619453 38.31653557 79.31619453 39.79914856 79.33988953 C40.6998558 79.34011612 41.60056305 79.34034271 42.52856445 79.34057617 C43.71770195 79.35056892 43.71770195 79.35056892 44.93086243 79.36076355 C47.55309849 78.90356476 48.43709819 78.12816843 50 76 C50.25048636 72.87450983 50.25048636 72.87450983 50 70 C49.34 70 48.68 70 48 70 C48.875 66.125 48.875 66.125 50 65 C50.09405142 63.0056827 50.11743249 61.00800457 50.11352539 59.01147461 C50.11344986 57.73022202 50.11337433 56.44896942 50.11329651 55.12889099 C50.10818909 53.72004152 50.10297309 52.31119244 50.09765625 50.90234375 C50.09579202 49.46887766 50.09436814 48.03541093 50.09336853 46.60194397 C50.08954372 42.82240043 50.07971377 39.0428951 50.06866455 35.2633667 C50.05844963 31.40930702 50.05387074 27.55524118 50.04882812 23.70117188 C50.03809146 16.13409713 50.02101549 8.56705391 50 1 C43.82535087 0.87627098 37.65142544 0.78559856 31.47583008 0.7253418 C29.3757673 0.70021949 27.27579177 0.66611542 25.17602539 0.62280273 C22.1548916 0.56205129 19.13491504 0.53376737 16.11328125 0.51171875 C15.17664139 0.48591232 14.24000153 0.4601059 13.27497864 0.43351746 C12.39444321 0.4331398 11.51390778 0.43276215 10.60668945 0.43237305 C9.83613724 0.42126999 9.06558502 0.41016693 8.27168274 0.39872742 C4.71625942 1.33978249 3.22562277 3.13092047 1 6 Z " fill="#796628" transform="translate(274,382)"/>
<path d="M0 0 C15.51 0 31.02 0 47 0 C47 23.43 47 46.86 47 71 C43.535 71.99 43.535 71.99 40 73 C41.21562622 71.47729492 41.21562622 71.47729492 42.45581055 69.92382812 C46.25870851 63.79734215 45.72990199 57.20878689 45.70703125 50.21875 C45.72016544 48.79526673 45.73547493 47.37180204 45.75285339 45.94836426 C45.79251642 42.22638004 45.80288157 38.50488541 45.80688477 34.78271484 C45.81790266 30.30370126 45.8657709 25.82494426 45.90737152 21.34613037 C45.96628693 14.5638689 45.97875498 7.78295468 46 1 C31.48 1.33 16.96 1.66 2 2 C2 27.08 2 52.16 2 78 C4.97 78.33 7.94 78.66 11 79 C11 79.33 11 79.66 11 80 C7.37 80 3.74 80 0 80 C0 53.6 0 27.2 0 0 Z " fill="#977E2F" transform="translate(365,382)"/>
<path d="M0 0 C0.99 0 1.98 0 3 0 C1.56155747 3.28472912 -0.21260428 5.46564981 -2.73750305 7.99819946 C-3.90456284 9.17588646 -3.90456284 9.17588646 -5.09519958 10.37736511 C-5.94977249 11.2294606 -6.8043454 12.08155609 -7.68481445 12.95947266 C-8.5841571 13.86392624 -9.48349976 14.76837982 -10.41009521 15.70024109 C-12.8744677 18.1779951 -15.34519863 20.64931414 -17.81753564 23.11911821 C-19.88195961 25.18247197 -21.94339819 27.24879567 -24.00489014 29.31507814 C-28.86867004 34.18995014 -33.73775568 39.05947783 -38.61010742 43.92578125 C-43.63459754 48.94422995 -48.64983812 53.97178814 -53.66064864 59.00389254 C-57.96529936 63.32616147 -62.27573749 67.64259842 -66.59083337 71.95443952 C-69.16702011 74.52881373 -71.74093414 77.10536073 -74.30925941 79.68758011 C-77.17342865 82.56666294 -80.04956593 85.43349276 -82.92700195 88.29931641 C-83.77550217 89.15546036 -84.62400238 90.01160431 -85.49821472 90.89369202 C-86.28471405 91.67317703 -87.07121338 92.45266205 -87.88154602 93.25576782 C-88.89945709 94.2739305 -88.89945709 94.2739305 -89.93793201 95.31266212 C-92.18664185 97.15272429 -94.26333841 98.06526076 -97 99 C-97 98.01 -97 97.02 -97 96 C-95.37306637 94.93657876 -93.69826756 93.94533861 -92 93 C-82.27485598 85.189366 -73.67064245 75.83455074 -64.86328125 67.03125 C-63.21289567 65.38408397 -61.56243764 63.73699052 -59.91191101 62.08996582 C-56.46839106 58.65240432 -53.02691425 55.21281218 -49.58666992 51.77197266 C-45.19399469 47.37919558 -40.79446352 42.99335485 -36.3931551 38.60923004 C-32.98809768 35.21532371 -29.58762795 31.816849 -26.18840599 28.417099 C-24.56862166 26.79848862 -22.9472297 25.18148527 -21.32415199 23.56617737 C-19.05153768 21.30343317 -16.7854326 19.03435292 -14.52075195 16.76367188 C-13.86032394 16.10886337 -13.19989594 15.45405487 -12.51945496 14.77940369 C-8.44402708 10.67667871 -4.92460361 6.40300188 -1.55981731 1.69580841 C-1.0450776 1.13619164 -0.53033789 0.57657486 0 0 Z " fill="#A4363F" transform="translate(148,50)"/>
<path d="M0 0 C0.99 0 1.98 0 3 0 C3.06943402 7.91883684 3.12277728 15.83754703 3.15543652 23.75661278 C3.17110937 27.43355415 3.19237658 31.11028765 3.22631836 34.78710938 C3.25885497 38.33380813 3.27684081 41.88030664 3.28463173 45.4271431 C3.29018558 46.78199035 3.30103069 48.13682633 3.31719017 49.49158859 C3.33888603 51.38539745 3.34022473 53.27940675 3.34057617 55.17333984 C3.34723801 56.25255707 3.35389984 57.33177429 3.36076355 58.44369507 C3.18218559 59.70906601 3.18218559 59.70906601 3 61 C2.01 61.66 1.02 62.32 0 63 C-1.35852482 60.28295036 -1.07803404 58.21383805 -1.02172852 55.17333984 C-1.00163223 53.95222504 -0.98153595 52.73111023 -0.96083069 51.47299194 C-0.93363242 50.13563822 -0.90632161 48.79828679 -0.87890625 47.4609375 C-0.85460701 46.09616882 -0.83076335 44.73139196 -0.80735779 43.36660767 C-0.74449724 39.77277311 -0.67543627 36.17908322 -0.60510254 32.58538818 C-0.53443683 28.9189717 -0.46960933 25.25245256 -0.40429688 21.5859375 C-0.27525916 14.39051147 -0.13967382 7.19522825 0 0 Z " fill="#B49739" transform="translate(408,383)"/>
<path d="M0 0 C2.97 0 5.94 0 9 0 C8.79664459 7.21911704 7.46165844 13.30494193 5.0625 20.0625 C4.79743652 20.81265381 4.53237305 21.56280762 4.25927734 22.33569336 C2.27572927 27.72427073 2.27572927 27.72427073 0 30 C0 20.1 0 10.2 0 0 Z " fill="#907829" transform="translate(452,382)"/>
<path d="M0 0 C2.64 0 5.28 0 8 0 C8 9.57 8 19.14 8 29 C5.31015958 26.31015958 4.57422882 23.22586358 3.4375 19.6875 C3.21642578 19.02298828 2.99535156 18.35847656 2.76757812 17.67382812 C0.76283562 11.55058138 -0.12638084 6.4454227 0 0 Z " fill="#9B8230" transform="translate(52,382)"/>
<path d="M0 0 C15.18 0 30.36 0 46 0 C45.34 0.33 44.68 0.66 44 1 C44 21.13 44 41.26 44 62 C43.01 61.505 43.01 61.505 42 61 C42 41.2 42 21.4 42 1 C32.9971875 1.12375 32.9971875 1.12375 23.8125 1.25 C20.98328979 1.27368652 20.98328979 1.27368652 18.09692383 1.29785156 C16.59192871 1.32723273 15.08696085 1.35806058 13.58203125 1.390625 C12.8087146 1.39175293 12.03539795 1.39288086 11.23864746 1.39404297 C6.24250697 1.52596489 3.68404472 2.31916158 0 6 C0 4.02 0 2.04 0 0 Z " fill="#B69838" transform="translate(188,382)"/>
<path d="M0 0 C0.99 0 1.98 0 3 0 C3 18.15 3 36.3 3 55 C2.67 55 2.34 55 2 55 C1.67 53.02 1.34 51.04 1 49 C0.67 49 0.34 49 0 49 C0 39.43 0 29.86 0 20 C-2.64 20 -5.28 20 -8 20 C-8.33 21.32 -8.66 22.64 -9 24 C-9 22.35 -9 20.7 -9 19 C-6.03 19 -3.06 19 0 19 C0 12.73 0 6.46 0 0 Z " fill="#30280D" transform="translate(60,362)"/>
<path d="M0 0 C0.99 0 1.98 0 3 0 C3 20.13 3 40.26 3 61 C2.01 61.495 2.01 61.495 1 62 C0.67 41.54 0.34 21.08 0 0 Z " fill="#B09439" transform="translate(321,383)"/>
<path d="M0 0 C0.33 0 0.66 0 1 0 C1 2.31 1 4.62 1 7 C-15.5 7 -32 7 -49 7 C-48.67 5.68 -48.34 4.36 -48 3 C-48 3.99 -48 4.98 -48 6 C-41.64568156 5.9837462 -35.29253359 5.92903844 -28.9387207 5.84741211 C-26.77668853 5.82419587 -24.61454269 5.80982793 -22.45239258 5.80444336 C-19.34644428 5.79518038 -16.24229297 5.75424764 -13.13671875 5.70703125 C-11.68346443 5.71293022 -11.68346443 5.71293022 -10.20085144 5.71894836 C-7.69676592 5.66433795 -5.43491136 5.58811946 -3 5 C-0.84613671 2.62782962 -0.84613671 2.62782962 0 0 Z " fill="#8D7425" transform="translate(324,455)"/>
<path d="M0 0 C15.18 0 30.36 0 46 0 C46 0.33 46 0.66 46 1 C44.17625854 1.01401855 44.17625854 1.01401855 42.31567383 1.02832031 C37.79593545 1.06825418 33.27687532 1.13402254 28.75756836 1.20751953 C26.80323004 1.23570944 24.84877814 1.25693383 22.89428711 1.27099609 C20.08127777 1.29245307 17.26963129 1.33911695 14.45703125 1.390625 C13.15050346 1.39246796 13.15050346 1.39246796 11.81758118 1.39434814 C6.61275779 1.51943691 3.80339446 2.09105028 0 6 C0 4.02 0 2.04 0 0 Z " fill="#9E832B" transform="translate(275,382)"/>
<path d="M0 0 C15.18 0 30.36 0 46 0 C46 0.33 46 0.66 46 1 C44.17625854 1.01401855 44.17625854 1.01401855 42.31567383 1.02832031 C37.79593545 1.06825418 33.27687532 1.13402254 28.75756836 1.20751953 C26.80323004 1.23570944 24.84877814 1.25693383 22.89428711 1.27099609 C20.08127777 1.29245307 17.26963129 1.33911695 14.45703125 1.390625 C13.15050346 1.39246796 13.15050346 1.39246796 11.81758118 1.39434814 C6.61275779 1.51943691 3.80339446 2.09105028 0 6 C0 4.02 0 2.04 0 0 Z " fill="#9D822B" transform="translate(188,382)"/>
<path d="M0 0 C2.67526573 2.42963255 5.15652778 4.87846557 7 8 C6.69140625 10.2578125 6.69140625 10.2578125 6 12 C5.608125 11.443125 5.21625 10.88625 4.8125 10.3125 C-0.25039256 3.83046181 -0.25039256 3.83046181 -7.48046875 0.5859375 C-8.37378906 0.51632812 -9.26710938 0.44671875 -10.1875 0.375 C-11.08855469 0.30023438 -11.98960937 0.22546875 -12.91796875 0.1484375 C-13.60503906 0.09945313 -14.29210937 0.05046875 -15 0 C-15 -0.33 -15 -0.66 -15 -1 C-4.89695646 -2.66138938 -4.89695646 -2.66138938 0 0 Z " fill="#181407" transform="translate(266,350)"/>
<path d="M0 0 C2.67526573 2.42963255 5.15652778 4.87846557 7 8 C6.69140625 10.2578125 6.69140625 10.2578125 6 12 C5.608125 11.443125 5.21625 10.88625 4.8125 10.3125 C-0.25039256 3.83046181 -0.25039256 3.83046181 -7.48046875 0.5859375 C-8.37378906 0.51632812 -9.26710937 0.44671875 -10.1875 0.375 C-11.08855469 0.30023438 -11.98960937 0.22546875 -12.91796875 0.1484375 C-13.60503906 0.09945313 -14.29210937 0.05046875 -15 0 C-15 -0.33 -15 -0.66 -15 -1 C-4.89695646 -2.66138938 -4.89695646 -2.66138938 0 0 Z " fill="#181407" transform="translate(179,350)"/>
<path d="M0 0 C0.66 0.33 1.32 0.66 2 1 C-3.28 6.28 -8.56 11.56 -14 17 C-14.66 16.67 -15.32 16.34 -16 16 C-14.27538679 14.07906479 -12.54557391 12.163278 -10.8125 10.25 C-10.32974609 9.71117188 -9.84699219 9.17234375 -9.34960938 8.6171875 C-6.43837795 5.41287909 -3.47293499 2.6158121 0 0 Z " fill="#D34651" transform="translate(85,68)"/>
<path d="M0 0 C1.60407328 -0.02708567 3.2082785 -0.04643483 4.8125 -0.0625 C5.70582031 -0.07410156 6.59914063 -0.08570313 7.51953125 -0.09765625 C10 0 10 0 13 1 C13 1.99 13 2.98 13 4 C8.71 3.67 4.42 3.34 0 3 C0 2.01 0 1.02 0 0 Z " fill="#030302" transform="translate(427,347)"/>
<path d="M0 0 C1.60407328 -0.02708567 3.2082785 -0.04643483 4.8125 -0.0625 C5.70582031 -0.07410156 6.59914063 -0.08570313 7.51953125 -0.09765625 C10 0 10 0 13 1 C13 1.99 13 2.98 13 4 C8.71 3.67 4.42 3.34 0 3 C0 2.01 0 1.02 0 0 Z " fill="#030302" transform="translate(340,347)"/>
<path d="M0 0 C1.60407328 -0.02708567 3.2082785 -0.04643483 4.8125 -0.0625 C5.70582031 -0.07410156 6.59914063 -0.08570313 7.51953125 -0.09765625 C10 0 10 0 13 1 C13 1.99 13 2.98 13 4 C8.71 3.67 4.42 3.34 0 3 C0 2.01 0 1.02 0 0 Z " fill="#030302" transform="translate(75,347)"/>
<path d="M0 0 C0.66 0.33 1.32 0.66 2 1 C-2.03523352 5.81123996 -6.04467233 10.13242719 -11 14 C-11 11 -11 11 -8.59375 8.30078125 C-7.5700032 7.29697757 -6.5383946 6.30114351 -5.5 5.3125 C-4.97535156 4.80138672 -4.45070312 4.29027344 -3.91015625 3.76367188 C-2.61339096 2.50227292 -1.30753883 1.25022788 0 0 Z " fill="#B83C46" transform="translate(134,172)"/>
<path d="M0 0 C0.66 0.33 1.32 0.66 2 1 C2 1.66 2 2.32 2 3 C0.01399663 4.3540932 -1.98817543 5.68457624 -4 7 C-5.36886951 8.29682374 -6.7169291 9.61823134 -8 11 C-8.33 10.01 -8.66 9.02 -9 8 C-6.57691427 4.2721758 -4.02300147 1.90563227 0 0 Z " fill="#0F0D05" transform="translate(424,348)"/>
<path d="M0 0 C0.66 0.33 1.32 0.66 2 1 C2 1.66 2 2.32 2 3 C0.01399663 4.3540932 -1.98817543 5.68457624 -4 7 C-5.36886951 8.29682374 -6.7169291 9.61823134 -8 11 C-8.33 10.01 -8.66 9.02 -9 8 C-6.57691427 4.2721758 -4.02300147 1.90563227 0 0 Z " fill="#0F0D05" transform="translate(337,348)"/>
<path d="M0 0 C0.66 0.33 1.32 0.66 2 1 C2 1.66 2 2.32 2 3 C0.01399663 4.3540932 -1.98817543 5.68457624 -4 7 C-5.36886951 8.29682374 -6.7169291 9.61823134 -8 11 C-8.33 10.01 -8.66 9.02 -9 8 C-6.57691427 4.2721758 -4.02300147 1.90563227 0 0 Z " fill="#0F0D05" transform="translate(72,348)"/>
<path d="M0 0 C3.82453562 1.27484521 5.85376392 3.66141054 8 7 C7.75 9.3125 7.75 9.3125 7 11 C6.443125 10.278125 5.88625 9.55625 5.3125 8.8125 C3.02090666 6.02542701 0.58540143 3.51358472 -2 1 C-1.34 0.67 -0.68 0.34 0 0 Z " fill="#100D05" transform="translate(442,350)"/>
<path d="M0 0 C3.82453562 1.27484521 5.85376392 3.66141054 8 7 C7.75 9.3125 7.75 9.3125 7 11 C6.443125 10.278125 5.88625 9.55625 5.3125 8.8125 C3.02090666 6.02542701 0.58540143 3.51358472 -2 1 C-1.34 0.67 -0.68 0.34 0 0 Z " fill="#100D05" transform="translate(355,350)"/>
<path d="M0 0 C3.82453562 1.27484521 5.85376392 3.66141054 8 7 C7.75 9.3125 7.75 9.3125 7 11 C6.443125 10.278125 5.88625 9.55625 5.3125 8.8125 C3.02090666 6.02542701 0.58540143 3.51358472 -2 1 C-1.34 0.67 -0.68 0.34 0 0 Z " fill="#100D05" transform="translate(90,350)"/>
<path d="M0 0 C1.32 0.66 2.64 1.32 4 2 C1.66666667 4.33333333 -0.66666667 6.66666667 -3 9 C-3.75 7.3125 -3.75 7.3125 -4 5 C-2.0625 2.25 -2.0625 2.25 0 0 Z " fill="#0D0B05" transform="translate(241,351)"/>
<path d="M0 0 C1.32 0.66 2.64 1.32 4 2 C1.66666667 4.33333333 -0.66666667 6.66666667 -3 9 C-3.75 7.3125 -3.75 7.3125 -4 5 C-2.0625 2.25 -2.0625 2.25 0 0 Z " fill="#0D0B05" transform="translate(154,351)"/>
<path d="M0 0 C0.33 0 0.66 0 1 0 C1 1.98 1 3.96 1 6 C-0.98 6.66 -2.96 7.32 -5 8 C-4.19185349 6.66402348 -3.37836819 5.331275 -2.5625 4 C-2.11003906 3.2575 -1.65757812 2.515 -1.19140625 1.75 C-0.79824219 1.1725 -0.40507812 0.595 0 0 Z " fill="#9D8431" transform="translate(410,447)"/>
<path d="M0 0 C0 0.99 0 1.98 0 3 C-3.96 2.67 -7.92 2.34 -12 2 C-12 1.67 -12 1.34 -12 1 C-10.56274129 0.83126522 -9.12518162 0.66509263 -7.6875 0.5 C-6.88699219 0.4071875 -6.08648437 0.314375 -5.26171875 0.21875 C-3 0 -3 0 0 0 Z " fill="#30270D" transform="translate(440,348)"/>
<path d="M0 0 C0 0.99 0 1.98 0 3 C-3.96 2.67 -7.92 2.34 -12 2 C-12 1.67 -12 1.34 -12 1 C-10.56274129 0.83126522 -9.12518162 0.66509263 -7.6875 0.5 C-6.88699219 0.4071875 -6.08648437 0.314375 -5.26171875 0.21875 C-3 0 -3 0 0 0 Z " fill="#30270D" transform="translate(353,348)"/>
<path d="M0 0 C0 0.99 0 1.98 0 3 C-3.96 2.67 -7.92 2.34 -12 2 C-12 1.67 -12 1.34 -12 1 C-10.56274129 0.83126522 -9.12518162 0.66509263 -7.6875 0.5 C-6.88699219 0.4071875 -6.08648437 0.314375 -5.26171875 0.21875 C-3 0 -3 0 0 0 Z " fill="#30270D" transform="translate(88,348)"/>
<path d="M0 0 C0.33 0 0.66 0 1 0 C1 2.31 1 4.62 1 7 C-0.65 7 -2.3 7 -4 7 C-2.68 4.69 -1.36 2.38 0 0 Z " fill="#7F6C2C" transform="translate(324,455)"/>
</svg>
