<?xml version="1.0" encoding="UTF-8"?>
<svg version="1.1" xmlns="http://www.w3.org/2000/svg" width="256" height="256">
<path d="M0 0 C1.67993391 -0.00270794 3.35986626 -0.00660102 5.03979492 -0.01159668 C8.52896318 -0.01743079 12.01771665 -0.00912911 15.50683594 0.00976562 C19.92387438 0.03255169 24.33993978 0.0193953 28.75694275 -0.00452423 C32.21650193 -0.01914939 35.67583974 -0.01430089 39.13540649 -0.00401306 C40.76168948 -0.0013916 42.38799426 -0.00444888 44.01425171 -0.01393127 C58.59082015 -0.08032475 73.13770328 1.83578418 86.625 7.71875 C87.31601807 8.01281738 88.00703613 8.30688477 88.71899414 8.60986328 C99.81243159 13.54056423 109.18982134 21.05300482 117.8125 29.53125 C118.57175781 30.27761719 119.33101562 31.02398437 120.11328125 31.79296875 C138.99613821 51.52376057 145.30617239 76.85193772 145.24609375 103.45703125 C145.25067022 105.25717869 145.25598006 107.05732439 145.26197815 108.85746765 C145.27085268 112.61004787 145.26855208 116.36241465 145.25854492 120.11499023 C145.24707475 124.87521347 145.26726606 129.63469263 145.29646206 134.39481831 C145.31499188 138.10738141 145.31449838 141.81977177 145.30882454 145.53236961 C145.3086733 147.28508738 145.31455013 149.03781838 145.32711601 150.7904911 C145.49994232 178.84291706 136.45190762 203.26895072 116.8125 223.53125 C116.2865625 224.13066406 115.760625 224.73007813 115.21875 225.34765625 C101.34049529 240.60665569 79.78506311 248.69299153 59.8125 251.53125 C57.29540236 251.63526096 54.77601135 251.68943677 52.25683594 251.70825195 C51.52409454 251.71482315 50.79135315 251.72139435 50.03640747 251.72816467 C47.62322862 251.74778786 45.21011205 251.75954284 42.796875 251.76953125 C41.96430428 251.77360678 41.13173355 251.7776823 40.27393341 251.78188133 C35.85710402 251.80270702 31.44030527 251.81701735 27.0234375 251.82641602 C22.51199945 251.83740379 18.00106509 251.8717241 13.48980331 251.91158772 C9.97881302 251.93803929 6.46793688 251.94613333 2.95685577 251.94969749 C1.29704685 251.95449936 -0.36275929 251.96592431 -2.02246857 251.98473549 C-30.22165182 252.28418559 -54.82034664 243.27228834 -75.1875 223.53125 C-75.78691406 223.0053125 -76.38632813 222.479375 -77.00390625 221.9375 C-92.08785342 208.21845756 -100.7764004 186.3228233 -103.1875 166.53125 C-103.28586887 163.85848959 -103.34441767 161.21129367 -103.34863281 158.5390625 C-103.35359772 157.77209549 -103.35856262 157.00512848 -103.36367798 156.21492004 C-103.37819507 153.69535395 -103.3850861 151.17585093 -103.390625 148.65625 C-103.39345238 147.78775421 -103.39627975 146.91925842 -103.39919281 146.02444458 C-103.41414744 141.42303162 -103.42339888 136.82164968 -103.42773438 132.22021484 C-103.43319576 127.50794916 -103.45718499 122.79597581 -103.48570633 118.08380127 C-103.50449605 114.42538677 -103.50954703 110.76704018 -103.51107025 107.10858154 C-103.51406353 105.3737428 -103.52197687 103.63890427 -103.53525543 101.90411377 C-103.72758377 74.83260078 -96.13169786 49.80529985 -76.86328125 30.171875 C-75.53876953 28.86476563 -75.53876953 28.86476563 -74.1875 27.53125 C-73.45917969 26.80421875 -72.73085937 26.0771875 -71.98046875 25.328125 C-52.11167188 6.60206042 -26.68454656 -0.15559254 0 0 Z " fill="#896041" transform="translate(107.1875,3.46875)"/>
<path d="M0 0 C0 5.28 0 10.56 0 16 C10.23 16 20.46 16 31 16 C31 21.28 31 26.56 31 32 C36.28 32 41.56 32 47 32 C47 26.72 47 21.44 47 16 C62.84 16 78.68 16 95 16 C95 21.28 95 26.56 95 32 C84.44 32 73.88 32 63 32 C63 36.95 63 41.9 63 47 C57.72 47 52.44 47 47 47 C47 52.28 47 57.56 47 63 C52.28 63 57.56 63 63 63 C63 73.56 63 84.12 63 95 C57.72 95 52.44 95 47 95 C47 89.72 47 84.44 47 79 C31.49 79 15.98 79 0 79 C0 73.72 0 68.44 0 63 C10.23 63 20.46 63 31 63 C31 57.72 31 52.44 31 47 C20.77 47 10.54 47 0 47 C0 42.05 0 37.1 0 32 C-5.28 32 -10.56 32 -16 32 C-16 52.79 -16 73.58 -16 95 C-10.72 95 -5.44 95 0 95 C0 105.56 0 116.12 0 127 C-5.28 127 -10.56 127 -16 127 C-16 131.95 -16 136.9 -16 142 C-17.98 142 -19.96 142 -22 142 C-22.50615298 140.73160474 -23.00469099 139.46016898 -23.5 138.1875 C-23.7784375 137.47980469 -24.056875 136.77210938 -24.34375 136.04296875 C-25 134 -25 134 -25 131 C-25.66 131 -26.32 131 -27 131 C-29.35637706 121.26321654 -29.31000695 111.68096981 -29.30078125 101.734375 C-29.30467857 99.96999004 -29.30901534 98.20560601 -29.31376648 96.44122314 C-29.32119165 92.75652008 -29.32096503 89.07191288 -29.31567383 85.38720703 C-29.30989245 80.70641789 -29.32679616 76.02602616 -29.3500185 71.34530258 C-29.36487959 67.70403822 -29.36561074 64.06286678 -29.36250877 60.42157745 C-29.36301607 58.69791123 -29.36814011 56.97423896 -29.37832069 55.25060272 C-29.46609036 38.31187601 -26.59427949 23.63786279 -20 8 C-19.67902344 7.08089844 -19.35804687 6.16179688 -19.02734375 5.21484375 C-15.56937839 -2.72307673 -7.3706824 -0.51274312 0 0 Z " fill="#A57B54" transform="translate(33,50)"/>
<path d="M0 0 C1.67993391 -0.00270794 3.35986626 -0.00660102 5.03979492 -0.01159668 C8.52896318 -0.01743079 12.01771665 -0.00912911 15.50683594 0.00976562 C19.92387438 0.03255169 24.33993978 0.0193953 28.75694275 -0.00452423 C32.21650193 -0.01914939 35.67583974 -0.01430089 39.13540649 -0.00401306 C40.76168948 -0.0013916 42.38799426 -0.00444888 44.01425171 -0.01393127 C58.59082015 -0.08032475 73.13770328 1.83578418 86.625 7.71875 C87.31601807 8.01281738 88.00703613 8.30688477 88.71899414 8.60986328 C103.31974559 15.09946034 115.89248681 26.11737874 125.8125 38.53125 C125.8125 38.86125 125.8125 39.19125 125.8125 39.53125 C117.2325 39.53125 108.6525 39.53125 99.8125 39.53125 C99.8125 34.25125 99.8125 28.97125 99.8125 23.53125 C94.5325 23.53125 89.2525 23.53125 83.8125 23.53125 C83.8125 31.12125 83.8125 38.71125 83.8125 46.53125 C78.5325 46.53125 73.2525 46.53125 67.8125 46.53125 C67.8125 49.50125 67.8125 52.47125 67.8125 55.53125 C62.5325 55.53125 57.2525 55.53125 51.8125 55.53125 C51.8125 50.25125 51.8125 44.97125 51.8125 39.53125 C46.5325 39.53125 41.2525 39.53125 35.8125 39.53125 C35.8125 44.81125 35.8125 50.09125 35.8125 55.53125 C30.8625 55.53125 25.9125 55.53125 20.8125 55.53125 C20.8125 44.97125 20.8125 34.41125 20.8125 23.53125 C15.5325 23.53125 10.2525 23.53125 4.8125 23.53125 C4.8125 28.81125 4.8125 34.09125 4.8125 39.53125 C-0.4675 39.53125 -5.7475 39.53125 -11.1875 39.53125 C-11.1875 28.97125 -11.1875 18.41125 -11.1875 7.53125 C-16.4675 7.53125 -21.7475 7.53125 -27.1875 7.53125 C-27.1875 23.37125 -27.1875 39.21125 -27.1875 55.53125 C-32.4675 55.53125 -37.7475 55.53125 -43.1875 55.53125 C-43.1875 50.25125 -43.1875 44.97125 -43.1875 39.53125 C-53.4175 39.53125 -63.6475 39.53125 -74.1875 39.53125 C-74.1875 27.53125 -74.1875 27.53125 -70.5625 23.34375 C-68.80653144 22.02402988 -67.01022021 20.7571284 -65.1875 19.53125 C-64.135625 18.77972656 -63.08375 18.02820313 -62 17.25390625 C-43.33317541 4.28259358 -22.40120788 -0.1306172 0 0 Z " fill="#C5DB90" transform="translate(107.1875,3.46875)"/>
<path d="M0 0 C5.28 0 10.56 0 16 0 C16 10.56 16 21.12 16 32 C21.28 32 26.56 32 32 32 C32 26.72 32 21.44 32 16 C37.28 16 42.56 16 48 16 C48 26.56 48 37.12 48 48 C52.95 48 57.9 48 63 48 C63 42.72 63 37.44 63 32 C68.28 32 73.56 32 79 32 C79 37.28 79 42.56 79 48 C84.28 48 89.56 48 95 48 C95 45.03 95 42.06 95 39 C100.28 39 105.56 39 111 39 C111 44.28 111 49.56 111 55 C105.72 55 100.44 55 95 55 C95 60.28 95 65.56 95 71 C84.44 71 73.88 71 63 71 C63 75.95 63 80.9 63 86 C47.49 86 31.98 86 16 86 C16 81.05 16 76.1 16 71 C26.56 71 37.12 71 48 71 C48 65.72 48 60.44 48 55 C32.16 55 16.32 55 0 55 C0 60.28 0 65.56 0 71 C-5.28 71 -10.56 71 -16 71 C-16 65.72 -16 60.44 -16 55 C-26.23 55 -36.46 55 -47 55 C-47 49.72 -47 44.44 -47 39 C-51.95 39 -56.9 39 -62 39 C-57.93886993 32.28670336 -54.0948333 26.04459366 -48 21 C-47.67 21 -47.34 21 -47 21 C-47 24.63 -47 28.26 -47 32 C-36.77 32 -26.54 32 -16 32 C-16 37.28 -16 42.56 -16 48 C-10.72 48 -5.44 48 0 48 C0 32.16 0 16.32 0 0 Z " fill="#6B4931" transform="translate(80,11)"/>
<path d="M0 0 C26.07 0 52.14 0 79 0 C79 5.28 79 10.56 79 16 C83.95 16 88.9 16 94 16 C94 10.72 94 5.44 94 0 C104.56 0 115.12 0 126 0 C126 10.23 126 20.46 126 31 C105.21 31 84.42 31 63 31 C63 36.28 63 41.56 63 47 C47.16 47 31.32 47 15 47 C15 41.72 15 36.44 15 31 C10.05 31 5.1 31 0 31 C0 20.77 0 10.54 0 0 Z " fill="#A07651" transform="translate(49,161)"/>
<path d="M0 0 C10.56 0 21.12 0 32 0 C32 4.95 32 9.9 32 15 C37.28 15 42.56 15 48 15 C48 25.56 48 36.12 48 47 C42.72 47 37.44 47 32 47 C32 52.28 32 57.56 32 63 C21.44 63 10.88 63 0 63 C0 57.72 0 52.44 0 47 C5.28 47 10.56 47 16 47 C16 41.72 16 36.44 16 31 C0.49 31 -15.02 31 -31 31 C-31 25.72 -31 20.44 -31 15 C-20.77 15 -10.54 15 0 15 C0 10.05 0 5.1 0 0 Z " fill="#9D6E4B" transform="translate(143,82)"/>
<path d="M0 0 C10.23 0 20.46 0 31 0 C31 10.56 31 21.12 31 32 C36.28 32 41.56 32 47 32 C47 37.28 47 42.56 47 48 C73.07 48 99.14 48 126 48 C126 51.63 126 55.26 126 59 C119.70937884 59.14562699 113.41869205 59.28785175 107.12792969 59.42724609 C104.99867804 59.4748682 102.86944514 59.52333764 100.74023438 59.57275391 C89.47616574 59.83359482 78.21250687 60.05286803 66.9453125 60.10546875 C66.05923309 60.11352539 65.17315369 60.12158203 64.26022339 60.12988281 C38.77499174 60.16661255 15.19367437 47.86856008 -2.73828125 30.3203125 C-6.88452906 25.85512255 -10.27415497 21.45169006 -13 16 C-8.71 16 -4.42 16 0 16 C0 10.72 0 5.44 0 0 Z " fill="#7B563B" transform="translate(33,192)"/>
<path d="M0 0 C7.5031342 -0.102679 15.00608277 -0.17199321 22.50976562 -0.21972656 C25.05443084 -0.23965699 27.59905139 -0.26681128 30.14355469 -0.30175781 C48.11410668 -0.54211925 65.08308165 -0.10963288 81.8125 7.1875 C82.50351807 7.48156738 83.19453613 7.77563477 83.90649414 8.07861328 C98.50724559 14.56821034 111.07998681 25.58612874 121 38 C121 38.33 121 38.66 121 39 C112.42 39 103.84 39 95 39 C95 33.72 95 28.44 95 23 C89.72 23 84.44 23 79 23 C79 30.59 79 38.18 79 46 C73.72 46 68.44 46 63 46 C63 48.97 63 51.94 63 55 C57.72 55 52.44 55 47 55 C47 44.44 47 33.88 47 23 C41.72 23 36.44 23 31 23 C31 17.72 31 12.44 31 7 C20.77 7 10.54 7 0 7 C0 4.69 0 2.38 0 0 Z " fill="#BEDA8A" transform="translate(112,4)"/>
<path d="M0 0 C5.28 0 10.56 0 16 0 C16 15.51 16 31.02 16 47 C10.72 47 5.44 47 0 47 C0 52.28 0 57.56 0 63 C-5.94 63.495 -5.94 63.495 -12 64 C-9.68839702 67.01923655 -7.35402853 70.01417454 -5 73 C-4.50628906 73.65742188 -4.01257813 74.31484375 -3.50390625 74.9921875 C8.26203027 89.72252881 27.93208704 99.75120091 46 104 C46.70460861 104.16590637 47.40921722 104.33181274 48.13517761 104.50274658 C56.74967493 106.30649091 65.27699936 106.32776487 74.03125 106.3359375 C75.6739513 106.34238534 77.31665152 106.34911507 78.95935059 106.35610962 C82.39187269 106.36802368 85.82429465 106.37179684 89.25683594 106.37060547 C92.7381681 106.37044337 96.21897157 106.38426663 99.70019531 106.41162109 C132.71425949 106.66733095 159.59768563 104.28706747 186 82 C186.90298828 81.31550781 186.90298828 81.31550781 187.82421875 80.6171875 C199.55189168 71.4865517 207.81266305 56.69456954 213 43 C214.75533867 48.266016 211.25798504 53.33775703 208.94433594 58.14990234 C204.33605917 67.17821706 197.95578933 74.71237485 191 82 C190.20916016 82.90298828 190.20916016 82.90298828 189.40234375 83.82421875 C175.50557157 99.07157237 153.98146873 107.16047597 134 110 C131.48290236 110.10401096 128.96351135 110.15818677 126.44433594 110.17700195 C125.71159454 110.18357315 124.97885315 110.19014435 124.22390747 110.19691467 C121.81072862 110.21653786 119.39761205 110.22829284 116.984375 110.23828125 C116.15180428 110.24235678 115.31923355 110.2464323 114.46143341 110.25063133 C110.04460402 110.27145702 105.62780527 110.28576735 101.2109375 110.29516602 C96.69949945 110.30615379 92.18856509 110.3404741 87.67730331 110.38033772 C84.16631302 110.40678929 80.65543688 110.41488333 77.14435577 110.41844749 C75.48454685 110.42324936 73.82474071 110.43467431 72.16503143 110.45348549 C43.96584818 110.75293559 19.36715336 101.74103834 -1 82 C-1.59941406 81.4740625 -2.19882812 80.948125 -2.81640625 80.40625 C-12.85499023 71.27602977 -19.35036851 58.55086338 -24 46 C-24.4021875 44.95972656 -24.804375 43.91945312 -25.21875 42.84765625 C-26 40 -26 40 -25 36 C-24.01 39.63 -23.02 43.26 -22 47 C-20.02 47 -18.04 47 -16 47 C-16 42.05 -16 37.1 -16 32 C-10.72 32 -5.44 32 0 32 C0 21.44 0 10.88 0 0 Z " fill="#825B3E" transform="translate(33,145)"/>
<path d="M0 0 C10.56 0 21.12 0 32 0 C32 5.28 32 10.56 32 16 C47.51 16 63.02 16 79 16 C79 21.28 79 26.56 79 32 C63.49 32 47.98 32 32 32 C32 37.28 32 42.56 32 48 C26.72 48 21.44 48 16 48 C16 37.44 16 26.88 16 16 C10.72 16 5.44 16 0 16 C0 10.72 0 5.44 0 0 Z " fill="#976A48" transform="translate(80,97)"/>
<path d="M0 0 C1.32102974 0.0001133 1.32102974 0.0001133 2.66874695 0.00022888 C3.61570938 0.00539017 4.56267181 0.01055145 5.53833008 0.01586914 C6.51071121 0.01728409 7.48309235 0.01869904 8.48493958 0.02015686 C11.59261137 0.02575722 14.70021129 0.03830977 17.80786133 0.05102539 C19.91398008 0.05604034 22.02009996 0.06060326 24.1262207 0.06469727 C29.29096197 0.07572677 34.45564946 0.09299164 39.62036133 0.11352539 C39.62036133 5.39352539 39.62036133 10.67352539 39.62036133 16.11352539 C44.90036133 16.11352539 50.18036133 16.11352539 55.62036133 16.11352539 C55.62036133 21.39352539 55.62036133 26.67352539 55.62036133 32.11352539 C50.34036133 32.11352539 45.06036133 32.11352539 39.62036133 32.11352539 C39.62036133 37.39352539 39.62036133 42.67352539 39.62036133 48.11352539 C34.67036133 48.11352539 29.72036133 48.11352539 24.62036133 48.11352539 C24.62036133 37.55352539 24.62036133 26.99352539 24.62036133 16.11352539 C19.34036133 16.11352539 14.06036133 16.11352539 8.62036133 16.11352539 C8.62036133 21.39352539 8.62036133 26.67352539 8.62036133 32.11352539 C3.34036133 32.11352539 -1.93963867 32.11352539 -7.37963867 32.11352539 C-7.37963867 21.88352539 -7.37963867 11.65352539 -7.37963867 1.11352539 C-4.57426564 0.17840105 -2.89798503 -0.00830368 0 0 Z " fill="#94CD58" transform="translate(103.379638671875,10.886474609375)"/>
<path d="M0 0 C3.36758843 4.20948553 5.05268376 6.90287587 7 11.75 C7.474375 12.89984375 7.94875 14.0496875 8.4375 15.234375 C13.02636874 28.35140455 14.58342018 40.82563885 14.390625 54.62890625 C14.38313608 56.24127997 14.37745575 57.85366299 14.37347412 59.46604919 C14.35842573 63.64674393 14.31933251 67.82685519 14.2746582 72.00732422 C14.23324783 76.29842238 14.2153669 80.58961769 14.1953125 84.88085938 C14.15281036 93.25419983 14.08264019 101.62695944 14 110 C9.38 110 4.76 110 0 110 C0 99.44 0 88.88 0 78 C-5.28 78 -10.56 78 -16 78 C-16 72.72 -16 67.44 -16 62 C-10.72 62 -5.44 62 0 62 C0 41.54 0 21.08 0 0 Z " fill="#A77D56" transform="translate(238,51)"/>
<path d="M0 0 C5.28 0 10.56 0 16 0 C16 5.28 16 10.56 16 16 C21.28 16 26.56 16 32 16 C32 26.56 32 37.12 32 48 C26.72 48 21.44 48 16 48 C16 42.72 16 37.44 16 32 C0.49 32 -15.02 32 -31 32 C-31 26.72 -31 21.44 -31 16 C-20.77 16 -10.54 16 0 16 C0 10.72 0 5.44 0 0 Z " fill="#AD835A" transform="translate(64,97)"/>
<path d="M0 0 C10.23 0 20.46 0 31 0 C31 5.28 31 10.56 31 16 C36.28 16 41.56 16 47 16 C47 21.28 47 26.56 47 32 C41.72 32 36.44 32 31 32 C31 36.95 31 41.9 31 47 C26.05 47 21.1 47 16 47 C16 42.05 16 37.1 16 32 C10.72 32 5.44 32 0 32 C0 21.44 0 10.88 0 0 Z " fill="#A07651" transform="translate(191,145)"/>
<path d="M0 0 C5.28 0 10.56 0 16 0 C16 5.28 16 10.56 16 16 C17.90265625 15.93039063 19.8053125 15.86078125 21.765625 15.7890625 C24.26038141 15.7327898 26.75517594 15.67818914 29.25 15.625 C31.13138672 15.54958984 31.13138672 15.54958984 33.05078125 15.47265625 C34.25605469 15.45332031 35.46132812 15.43398438 36.703125 15.4140625 C37.81333008 15.3826416 38.92353516 15.3512207 40.06738281 15.31884766 C43 16 43 16 45.36914062 18.54882812 C47.21575974 22.45658379 47.51691139 25.57865198 47.390625 29.8046875 C47.38496521 30.5286673 47.37930542 31.25264709 47.37347412 31.99856567 C47.35123667 34.29140788 47.30106987 36.58263716 47.25 38.875 C47.22991841 40.43747729 47.21167055 41.99997929 47.1953125 43.5625 C47.15482834 47.37610816 47.07652975 51.18626761 47 55 C41.72 55 36.44 55 31 55 C31 49.72 31 44.44 31 39 C26.05 39 21.1 39 16 39 C16 33.72 16 28.44 16 23 C10.72 23 5.44 23 0 23 C0 15.41 0 7.82 0 0 Z " fill="#6A4931" transform="translate(191,27)"/>
<path d="M0 0 C10.56 0 21.12 0 32 0 C32 5.28 32 10.56 32 16 C42.56 16 53.12 16 64 16 C64 21.28 64 26.56 64 32 C48.16 32 32.32 32 16 32 C16 26.72 16 21.44 16 16 C10.72 16 5.44 16 0 16 C0 10.72 0 5.44 0 0 Z " fill="#7E583C" transform="translate(64,208)"/>
<path d="M0 0 C10.23 0 20.46 0 31 0 C31 10.56 31 21.12 31 32 C26.05 32 21.1 32 16 32 C16 36.29 16 40.58 16 45 C4.1147429 37.59606935 -5.24709436 28.61978697 -13 17 C-13 16.67 -13 16.34 -13 16 C-8.71 16 -4.42 16 0 16 C0 10.72 0 5.44 0 0 Z " fill="#7D583C" transform="translate(33,192)"/>
<path d="M0 0 C10.56 0 21.12 0 32 0 C32 5.28 32 10.56 32 16 C26.72 16 21.44 16 16 16 C16 21.28 16 26.56 16 32 C5.44 32 -5.12 32 -16 32 C-16 26.72 -16 21.44 -16 16 C-10.72 16 -5.44 16 0 16 C0 10.72 0 5.44 0 0 Z " fill="#AD835A" transform="translate(159,113)"/>
<path d="M0 0 C10.23 0 20.46 0 31 0 C31 10.56 31 21.12 31 32 C20.77 32 10.54 32 0 32 C0 21.44 0 10.88 0 0 Z " fill="#8C6243" transform="translate(49,129)"/>
<path d="M0 0 C10.23 0 20.46 0 31 0 C31 10.23 31 20.46 31 31 C20.77 31 10.54 31 0 31 C0 20.77 0 10.54 0 0 Z " fill="#B0875C" transform="translate(33,66)"/>
<path d="M0 0 C1.97452963 2.96179445 2.94660372 5.47096368 4.125 8.8125 C13.55607841 33.46998616 31.27078573 51.39644669 55.1796875 62.3828125 C60.6407179 64.76016091 66.20154361 66.63645146 72 68 C72.70460861 68.16590637 73.40921722 68.33181274 74.13517761 68.50274658 C82.74967493 70.30649091 91.27699936 70.32776487 100.03125 70.3359375 C101.6739513 70.34238534 103.31665152 70.34911507 104.95935059 70.35610962 C108.39187269 70.36802368 111.82429465 70.37179684 115.25683594 70.37060547 C118.7381681 70.37044337 122.21897157 70.38426663 125.70019531 70.41162109 C158.71425949 70.66733095 185.59768563 68.28706747 212 46 C212.90298828 45.31550781 212.90298828 45.31550781 213.82421875 44.6171875 C225.55189168 35.4865517 233.81266305 20.69456954 239 7 C240.75533867 12.266016 237.25798504 17.33775703 234.94433594 22.14990234 C230.33605917 31.17821706 223.95578933 38.71237485 217 46 C216.20916016 46.90298828 216.20916016 46.90298828 215.40234375 47.82421875 C201.50557157 63.07157237 179.98146873 71.16047597 160 74 C157.48290236 74.10401096 154.96351135 74.15818677 152.44433594 74.17700195 C151.71159454 74.18357315 150.97885315 74.19014435 150.22390747 74.19691467 C147.81072862 74.21653786 145.39761205 74.22829284 142.984375 74.23828125 C142.15180428 74.24235678 141.31923355 74.2464323 140.46143341 74.25063133 C136.04460402 74.27145702 131.62780527 74.28576735 127.2109375 74.29516602 C122.69949945 74.30615379 118.18856509 74.3404741 113.67730331 74.38033772 C110.16631302 74.40678929 106.65543688 74.41488333 103.14435577 74.41844749 C101.48454685 74.42324936 99.82474071 74.43467431 98.16503143 74.45348549 C69.96584818 74.75293559 45.36715336 65.74103834 25 46 C24.40058594 45.4740625 23.80117188 44.948125 23.18359375 44.40625 C11.71822824 33.97835376 4.33862198 18.64284918 0 4 C0 2.68 0 1.36 0 0 Z " fill="#030201" transform="translate(7,181)"/>
<path d="M0 0 C4.95 0 9.9 0 15 0 C15 10.56 15 21.12 15 32 C9.72 32 4.44 32 -1 32 C-1 36.95 -1 41.9 -1 47 C-4.3 47 -7.6 47 -11 47 C-11.84719003 36.62192209 -8.20559029 26.36316233 -4 17 C-5.32 16.34 -6.64 15.68 -8 15 C-6.85657478 12.68628057 -5.71038936 10.37400323 -4.5625 8.0625 C-4.23701172 7.40314453 -3.91152344 6.74378906 -3.57617188 6.06445312 C-1.11328125 1.11328125 -1.11328125 1.11328125 0 0 Z " fill="#946847" transform="translate(18,50)"/>
<path d="M0 0 C10.23 0 20.46 0 31 0 C31 10.56 31 21.12 31 32 C25.72 32 20.44 32 15 32 C15 26.72 15 21.44 15 16 C10.05 16 5.1 16 0 16 C0 10.72 0 5.44 0 0 Z " fill="#8EC855" transform="translate(49,27)"/>
<path d="M0 0 C15.75553004 4.39088542 29.30484529 15.90624814 40 28 C40.66 29.32 41.32 30.64 42 32 C33.42 32 24.84 32 16 32 C16 26.72 16 21.44 16 16 C5.44 16 -5.12 16 -16 16 C-16 11.71 -16 7.42 -16 3 C-10.13190493 3.52393706 -5.45126259 4.76108858 0 7 C0 4.69 0 2.38 0 0 Z " fill="#A5D25E" transform="translate(191,11)"/>
<path d="M0 0 C10.23 0 20.46 0 31 0 C31 5.28 31 10.56 31 16 C25.72 16 20.44 16 15 16 C15 21.28 15 26.56 15 32 C10.05 32 5.1 32 0 32 C0 21.44 0 10.88 0 0 Z " fill="#B3D977" transform="translate(128,27)"/>
<path d="M0 0 C20.79 0 41.58 0 63 0 C63 3.63 63 7.26 63 11 C56.59949547 11.14469635 50.19894351 11.28700332 43.79833984 11.42724609 C41.62807843 11.47511715 39.45783046 11.52360287 37.28759766 11.57275391 C24.85617482 11.85385207 12.4349818 12.08283852 0 12 C0 8.04 0 4.08 0 0 Z " fill="#976D4A" transform="translate(96,240)"/>
<path d="M0 0 C4.62 0 9.24 0 14 0 C14.60172923 9.47723538 12.36400058 17.90281921 10 27 C9.34 27 8.68 27 8 27 C7.67 28.65 7.34 30.3 7 32 C-4.385 31.505 -4.385 31.505 -16 31 C-16 26.05 -16 21.1 -16 16 C-10.72 16 -5.44 16 0 16 C0 10.72 0 5.44 0 0 Z " fill="#805A3D" transform="translate(238,161)"/>
<path d="M0 0 C1.65 0 3.3 0 5 0 C4.74605469 0.65484375 4.49210938 1.3096875 4.23046875 1.984375 C0.66106106 11.44932123 -2.02995364 20.91151787 -3 31 C0.3 31 3.6 31 7 31 C7 41.56 7 52.12 7 63 C3.37 63 -0.26 63 -4 63 C-4 75.87 -4 88.74 -4 102 C-4.33 102 -4.66 102 -5 102 C-6.13680519 93.78606989 -6.18175673 85.61176566 -6.203125 77.3359375 C-6.20595238 76.59063404 -6.20877975 75.84533058 -6.21169281 75.07744217 C-6.22660808 71.13088895 -6.23588514 67.18437154 -6.24023438 63.23779297 C-6.24569954 59.20713324 -6.26970822 55.17681458 -6.29820633 51.14626122 C-6.31703011 48.00598253 -6.32204872 44.8657827 -6.32357025 41.72545242 C-6.32655439 40.24180875 -6.33443491 38.75816497 -6.34775543 37.27457809 C-6.45537383 24.36473355 -5.13829687 11.98935936 0 0 Z " fill="#C39A6D" transform="translate(10,66)"/>
<path d="M0 0 C5.28 0 10.56 0 16 0 C16 5.28 16 10.56 16 16 C24.91 16 33.82 16 43 16 C44.32 18.31 45.64 20.62 47 23 C31.49 23 15.98 23 0 23 C0 15.41 0 7.82 0 0 Z " fill="#5D402B" transform="translate(191,27)"/>
<path d="M0 0 C5.28 0 10.56 0 16 0 C16 10.56 16 21.12 16 32 C10.72 32 5.44 32 0 32 C0 21.44 0 10.88 0 0 Z " fill="#5B3E2A" transform="translate(175,208)"/>
<path d="M0 0 C10.56 0 21.12 0 32 0 C32 5.28 32 10.56 32 16 C21.44 16 10.88 16 0 16 C0 10.72 0 5.44 0 0 Z " fill="#9B714D" transform="translate(96,208)"/>
<path d="M0 0 C10.56 0 21.12 0 32 0 C32 5.28 32 10.56 32 16 C21.44 16 10.88 16 0 16 C0 10.72 0 5.44 0 0 Z " fill="#C29568" transform="translate(143,161)"/>
<path d="M0 0 C5.28 0 10.56 0 16 0 C16 10.56 16 21.12 16 32 C10.72 32 5.44 32 0 32 C0 21.44 0 10.88 0 0 Z " fill="#865E40" transform="translate(222,129)"/>
<path d="M0 0 C10.56 0 21.12 0 32 0 C32 5.28 32 10.56 32 16 C21.44 16 10.88 16 0 16 C0 10.72 0 5.44 0 0 Z " fill="#68472F" transform="translate(80,145)"/>
<path d="M0 0 C10.56 0 21.12 0 32 0 C32 5.28 32 10.56 32 16 C21.44 16 10.88 16 0 16 C0 10.72 0 5.44 0 0 Z " fill="#CBA574" transform="translate(159,97)"/>
<path d="M0 0 C10.56 0 21.12 0 32 0 C32 5.28 32 10.56 32 16 C21.44 16 10.88 16 0 16 C0 10.72 0 5.44 0 0 Z " fill="#A1714D" transform="translate(96,66)"/>
<path d="M0 0 C3.36758843 4.20948553 5.05268376 6.90287587 7 11.75 C7.474375 12.89984375 7.94875 14.0496875 8.4375 15.234375 C13.48546302 29.79670922 14.53690989 43.24665479 14.25 58.5625 C14.22987143 60.46026726 14.21163208 62.35805553 14.1953125 64.25585938 C14.15189584 68.83777308 14.08323336 73.4186438 14 78 C13.34 78 12.68 78 12 78 C12 67.44 12 56.88 12 46 C8.04 46 4.08 46 0 46 C0 30.82 0 15.64 0 0 Z " fill="#C29B6C" transform="translate(238,51)"/>
<path d="M0 0 C10.23 0 20.46 0 31 0 C31 5.28 31 10.56 31 16 C20.77 16 10.54 16 0 16 C0 10.72 0 5.44 0 0 Z " fill="#C19366" transform="translate(49,161)"/>
<path d="M0 0 C10.23 0 20.46 0 31 0 C31 5.28 31 10.56 31 16 C20.77 16 10.54 16 0 16 C0 10.72 0 5.44 0 0 Z " fill="#C29568" transform="translate(191,145)"/>
<path d="M0 0 C10.23 0 20.46 0 31 0 C31 5.28 31 10.56 31 16 C20.77 16 10.54 16 0 16 C0 10.72 0 5.44 0 0 Z " fill="#C69C6D" transform="translate(33,113)"/>
<path d="M0 0 C10.23 0 20.46 0 31 0 C31 5.28 31 10.56 31 16 C20.77 16 10.54 16 0 16 C0 10.72 0 5.44 0 0 Z " fill="#CDA776" transform="translate(112,97)"/>
<path d="M0 0 C10.23 0 20.46 0 31 0 C31 5.28 31 10.56 31 16 C20.77 16 10.54 16 0 16 C0 10.72 0 5.44 0 0 Z " fill="#946746" transform="translate(33,97)"/>
<path d="M0 0 C5.28 0 10.56 0 16 0 C16 10.23 16 20.46 16 31 C10.72 31 5.44 31 0 31 C0 20.77 0 10.54 0 0 Z " fill="#6A4931" transform="translate(17,82)"/>
<path d="M0 0 C10.56 0 21.12 0 32 0 C32 4.95 32 9.9 32 15 C21.44 15 10.88 15 0 15 C0 10.05 0 5.1 0 0 Z " fill="#A17751" transform="translate(143,177)"/>
<path d="M0 0 C10.23 0 20.46 0 31 0 C31 4.95 31 9.9 31 15 C20.77 15 10.54 15 0 15 C0 10.05 0 5.1 0 0 Z " fill="#8ACA4E" transform="translate(112,12)"/>
<path d="M0 0 C4.62 0 9.24 0 14 0 C14 10.56 14 21.12 14 32 C9.38 32 4.76 32 0 32 C0 21.44 0 10.88 0 0 Z " fill="#A37A54" transform="translate(238,129)"/>
<path d="M0 0 C10.56 0 21.12 0 32 0 C32 2.31 32 4.62 32 7 C26.72 7 21.44 7 16 7 C16 9.97 16 12.94 16 16 C10.72 16 5.44 16 0 16 C0 10.72 0 5.44 0 0 Z " fill="#95CB5B" transform="translate(159,43)"/>
<path d="M0 0 C15.51 0 31.02 0 47 0 C47 2.31 47 4.62 47 7 C52.28 7 57.56 7 63 7 C63 7.66 63 8.32 63 9 C52.44 9 41.88 9 31 9 C31 8.34 31 7.68 31 7 C20.77 7 10.54 7 0 7 C0 4.69 0 2.38 0 0 Z " fill="#C3E190" transform="translate(112,4)"/>
<path d="M0 0 C7.26 0 14.52 0 22 0 C20.74703435 6.26482827 18.14403762 10.44776335 15 16 C10.05 16 5.1 16 0 16 C0 10.72 0 5.44 0 0 Z " fill="#BA885F" transform="translate(222,192)"/>
<path d="M0 0 C7.26 0 14.52 0 22 0 C22 5.28 22 10.56 22 16 C17.38 16 12.76 16 8 16 C5.36 10.72 2.72 5.44 0 0 Z " fill="#5B3F2A" transform="translate(11,192)"/>
<path d="M0 0 C0 3.63 0 7.26 0 11 C5.28 11 10.56 11 16 11 C16 13.31 16 15.62 16 18 C5.77 18 -4.46 18 -15 18 C-3.54545455 0 -3.54545455 0 0 0 Z " fill="#735135" transform="translate(33,32)"/>
<path d="M0 0 C1.60488281 0.00676758 1.60488281 0.00676758 3.2421875 0.01367188 C5.86984986 0.02540251 8.49739538 0.04181772 11.125 0.0625 C11.125 2.3725 11.125 4.6825 11.125 7.0625 C-4.51341631 8.70998308 -20.20289442 7.71353604 -35.875 7.0625 C-32.54666693 4.84361128 -29.37736361 3.97503317 -25.5625 3 C-24.91087891 2.82662109 -24.25925781 2.65324219 -23.58789062 2.47460938 C-15.55648846 0.37631512 -8.26346767 -0.06614845 0 0 Z " fill="#B8DD7C" transform="translate(100.875,3.9375)"/>
<path d="M0 0 C5.28 0 10.56 0 16 0 C16 5.28 16 10.56 16 16 C10.72 16 5.44 16 0 16 C0 10.72 0 5.44 0 0 Z " fill="#5B3E2A" transform="translate(112,224)"/>
<path d="M0 0 C5.28 0 10.56 0 16 0 C16 5.28 16 10.56 16 16 C10.72 16 5.44 16 0 16 C0 10.72 0 5.44 0 0 Z " fill="#7C573B" transform="translate(96,224)"/>
<path d="M0 0 C5.28 0 10.56 0 16 0 C16 5.28 16 10.56 16 16 C10.72 16 5.44 16 0 16 C0 10.72 0 5.44 0 0 Z " fill="#5B3E29" transform="translate(80,224)"/>
<path d="M0 0 C5.28 0 10.56 0 16 0 C16 5.28 16 10.56 16 16 C10.72 16 5.44 16 0 16 C0 10.72 0 5.44 0 0 Z " fill="#BC8A60" transform="translate(159,208)"/>
<path d="M0 0 C5.28 0 10.56 0 16 0 C16 5.28 16 10.56 16 16 C10.72 16 5.44 16 0 16 C0 10.72 0 5.44 0 0 Z " fill="#5D402B" transform="translate(143,208)"/>
<path d="M0 0 C5.28 0 10.56 0 16 0 C16 5.28 16 10.56 16 16 C10.72 16 5.44 16 0 16 C0 10.72 0 5.44 0 0 Z " fill="#5C3F2A" transform="translate(64,208)"/>
<path d="M0 0 C5.28 0 10.56 0 16 0 C16 5.28 16 10.56 16 16 C10.72 16 5.44 16 0 16 C0 10.72 0 5.44 0 0 Z " fill="#BE8E63" transform="translate(96,192)"/>
<path d="M0 0 C5.28 0 10.56 0 16 0 C16 5.28 16 10.56 16 16 C10.72 16 5.44 16 0 16 C0 10.72 0 5.44 0 0 Z " fill="#9B714D" transform="translate(33,192)"/>
<path d="M0 0 C5.28 0 10.56 0 16 0 C16 5.28 16 10.56 16 16 C10.72 16 5.44 16 0 16 C0 10.72 0 5.44 0 0 Z " fill="#919191" transform="translate(222,161)"/>
<path d="M0 0 C5.28 0 10.56 0 16 0 C16 5.28 16 10.56 16 16 C10.72 16 5.44 16 0 16 C0 10.72 0 5.44 0 0 Z " fill="#C29668" transform="translate(96,161)"/>
<path d="M0 0 C5.28 0 10.56 0 16 0 C16 5.28 16 10.56 16 16 C10.72 16 5.44 16 0 16 C0 10.72 0 5.44 0 0 Z " fill="#896041" transform="translate(80,161)"/>
<path d="M0 0 C5.28 0 10.56 0 16 0 C16 5.28 16 10.56 16 16 C10.72 16 5.44 16 0 16 C0 10.72 0 5.44 0 0 Z " fill="#64442E" transform="translate(33,145)"/>
<path d="M0 0 C5.28 0 10.56 0 16 0 C16 5.28 16 10.56 16 16 C10.72 16 5.44 16 0 16 C0 10.72 0 5.44 0 0 Z " fill="#65452E" transform="translate(222,129)"/>
<path d="M0 0 C5.28 0 10.56 0 16 0 C16 5.28 16 10.56 16 16 C10.72 16 5.44 16 0 16 C0 10.72 0 5.44 0 0 Z " fill="#6C4A31" transform="translate(112,129)"/>
<path d="M0 0 C5.28 0 10.56 0 16 0 C16 5.28 16 10.56 16 16 C10.72 16 5.44 16 0 16 C0 10.72 0 5.44 0 0 Z " fill="#6F4C33" transform="translate(143,113)"/>
<path d="M0 0 C5.28 0 10.56 0 16 0 C16 5.28 16 10.56 16 16 C10.72 16 5.44 16 0 16 C0 10.72 0 5.44 0 0 Z " fill="#A5A5A5" transform="translate(64,97)"/>
<path d="M0 0 C5.28 0 10.56 0 16 0 C16 5.28 16 10.56 16 16 C10.72 16 5.44 16 0 16 C0 10.72 0 5.44 0 0 Z " fill="#8B8B8B" transform="translate(175,66)"/>
<path d="M0 0 C5.28 0 10.56 0 16 0 C16 5.28 16 10.56 16 16 C10.72 16 5.44 16 0 16 C0 10.72 0 5.44 0 0 Z " fill="#6D4B32" transform="translate(64,66)"/>
<path d="M0 0 C5.28 0 10.56 0 16 0 C16 5.28 16 10.56 16 16 C10.72 16 5.44 16 0 16 C0 10.72 0 5.44 0 0 Z " fill="#67462F" transform="translate(175,50)"/>
<path d="M0 0 C5.28 0 10.56 0 16 0 C16 5.28 16 10.56 16 16 C10.72 16 5.44 16 0 16 C0 10.72 0 5.44 0 0 Z " fill="#97CB5F" transform="translate(64,43)"/>
<path d="M0 0 C5.28 0 10.56 0 16 0 C16 5.28 16 10.56 16 16 C10.72 16 5.44 16 0 16 C0 10.72 0 5.44 0 0 Z " fill="#9DD062" transform="translate(96,27)"/>
<path d="M0 0 C6.30367803 0.58367389 11.98660063 2.04071619 18 4 C18 4.66 18 5.32 18 6 C18.59167969 6.17015625 19.18335938 6.3403125 19.79296875 6.515625 C20.58316406 6.75796875 21.37335938 7.0003125 22.1875 7.25 C22.96480469 7.48203125 23.74210937 7.7140625 24.54296875 7.953125 C27 9 27 9 32 13 C21.44 13 10.88 13 0 13 C0 8.71 0 4.42 0 0 Z " fill="#9ED064" transform="translate(175,14)"/>
<path d="M0 0 C1.39456867 0.00574201 2.78910972 0.01875397 4.18359375 0.03515625 C6.63796875 0.05578125 9.09234375 0.07640625 11.62109375 0.09765625 C11.62109375 5.37765625 11.62109375 10.65765625 11.62109375 16.09765625 C6.34109375 16.09765625 1.06109375 16.09765625 -4.37890625 16.09765625 C-4.39953125 13.64328125 -4.42015625 11.18890625 -4.44140625 8.66015625 C-4.45051025 7.88615479 -4.45961426 7.11215332 -4.46899414 6.31469727 C-4.47615538 4.57543908 -4.42915327 2.83620321 -4.37890625 1.09765625 C-3.37890625 0.09765625 -3.37890625 0.09765625 0 0 Z " fill="#828282" transform="translate(21.37890625,49.90234375)"/>
<path d="M0 0 C0 4.29 0 8.58 0 13 C-10.23 13 -20.46 13 -31 13 C-25.36703643 8.49362914 -25.36703643 8.49362914 -22.29296875 7.1484375 C-21.62330078 6.85453125 -20.95363281 6.560625 -20.26367188 6.2578125 C-19.2359668 5.82082031 -19.2359668 5.82082031 -18.1875 5.375 C-17.17719727 4.92640625 -17.17719727 4.92640625 -16.14648438 4.46875 C-11.09537885 2.2839656 -5.57287661 0 0 0 Z " fill="#B0CD71" transform="translate(80,14)"/>
<path d="M0 0 C4.95 0 9.9 0 15 0 C15 5.28 15 10.56 15 16 C10.05 16 5.1 16 0 16 C0 10.72 0 5.44 0 0 Z " fill="#BA885E" transform="translate(207,208)"/>
<path d="M0 0 C5.28 0 10.56 0 16 0 C16 4.95 16 9.9 16 15 C10.72 15 5.44 15 0 15 C0 10.05 0 5.1 0 0 Z " fill="#60422C" transform="translate(191,177)"/>
<path d="M0 0 C5.28 0 10.56 0 16 0 C16 4.95 16 9.9 16 15 C10.72 15 5.44 15 0 15 C0 10.05 0 5.1 0 0 Z " fill="#865E40" transform="translate(96,177)"/>
<path d="M0 0 C5.28 0 10.56 0 16 0 C16 4.95 16 9.9 16 15 C10.72 15 5.44 15 0 15 C0 10.05 0 5.1 0 0 Z " fill="#C09165" transform="translate(80,177)"/>
<path d="M0 0 C4.95 0 9.9 0 15 0 C15 5.28 15 10.56 15 16 C10.05 16 5.1 16 0 16 C0 10.72 0 5.44 0 0 Z " fill="#65452E" transform="translate(128,161)"/>
<path d="M0 0 C4.95 0 9.9 0 15 0 C15 5.28 15 10.56 15 16 C10.05 16 5.1 16 0 16 C0 10.72 0 5.44 0 0 Z " fill="#A87E56" transform="translate(49,129)"/>
<path d="M0 0 C4.95 0 9.9 0 15 0 C15 5.28 15 10.56 15 16 C10.05 16 5.1 16 0 16 C0 10.72 0 5.44 0 0 Z " fill="#B0875C" transform="translate(128,113)"/>
<path d="M0 0 C4.95 0 9.9 0 15 0 C15 5.28 15 10.56 15 16 C10.05 16 5.1 16 0 16 C0 10.72 0 5.44 0 0 Z " fill="#AC835A" transform="translate(207,97)"/>
<path d="M0 0 C5.28 0 10.56 0 16 0 C16 4.95 16 9.9 16 15 C10.72 15 5.44 15 0 15 C0 10.05 0 5.1 0 0 Z " fill="#724E34" transform="translate(175,82)"/>
<path d="M0 0 C5.28 0 10.56 0 16 0 C16 4.95 16 9.9 16 15 C10.72 15 5.44 15 0 15 C0 10.05 0 5.1 0 0 Z " fill="#9B6D4A" transform="translate(64,82)"/>
<path d="M0 0 C4.95 0 9.9 0 15 0 C15 5.28 15 10.56 15 16 C10.05 16 5.1 16 0 16 C0 10.72 0 5.44 0 0 Z " fill="#B1885D" transform="translate(207,66)"/>
<path d="M0 0 C4.95 0 9.9 0 15 0 C15 5.28 15 10.56 15 16 C10.05 16 5.1 16 0 16 C0 10.72 0 5.44 0 0 Z " fill="#CAA573" transform="translate(49,66)"/>
<path d="M0 0 C4.95 0 9.9 0 15 0 C15 5.28 15 10.56 15 16 C10.05 16 5.1 16 0 16 C0 10.72 0 5.44 0 0 Z " fill="#84C54A" transform="translate(128,43)"/>
<path d="M0 0 C4.95 0 9.9 0 15 0 C15 5.28 15 10.56 15 16 C10.05 16 5.1 16 0 16 C0 10.72 0 5.44 0 0 Z " fill="#A4D369" transform="translate(128,27)"/>
<path d="M0 0 C4.95 0 9.9 0 15 0 C15 5.28 15 10.56 15 16 C10.05 16 5.1 16 0 16 C0 10.72 0 5.44 0 0 Z " fill="#85C24D" transform="translate(49,27)"/>
<path d="M0 0 C3.350451 4.18806375 5.27804721 7.50842599 7.125 12.375 C7.37636719 13.00921875 7.62773437 13.6434375 7.88671875 14.296875 C10.02912993 19.7931131 12 25.03926215 12 31 C8.04 31 4.08 31 0 31 C0 20.77 0 10.54 0 0 Z " fill="#B08359" transform="translate(238,51)"/>
<path d="M0 0 C4.95 0 9.9 0 15 0 C15 5.28 15 10.56 15 16 C4.78199052 16.36492891 4.78199052 16.36492891 1.65625 14.90625 C-1.7538183 10.98145441 -0.19252502 4.86125665 0 0 Z " fill="#B9865C" transform="translate(49,224)"/>
<path d="M0 0 C4.95 0 9.9 0 15 0 C15 4.95 15 9.9 15 15 C10.05 15 5.1 15 0 15 C0 10.05 0 5.1 0 0 Z " fill="#787878" transform="translate(128,177)"/>
<path d="M0 0 C4.62 0 9.24 0 14 0 C14 5.28 14 10.56 14 16 C9.38 16 4.76 16 0 16 C0 10.72 0 5.44 0 0 Z " fill="#8C6243" transform="translate(238,129)"/>
<path d="M0 0 C4.62 0 9.24 0 14 0 C14.27792919 5.14168995 14.45462098 8.80145379 12.625 13.625 C9.5790577 16.38085256 8.71539737 16.35253316 4.75 16.375 C2.39875 16.189375 2.39875 16.189375 0 16 C0 10.72 0 5.44 0 0 Z " fill="#815B3E" transform="translate(238,161)"/>
<path d="M0 0 C8.91 0 17.82 0 27 0 C28.32 2.31 29.64 4.62 31 7 C20.77 7 10.54 7 0 7 C0 4.69 0 2.38 0 0 Z " fill="#3E6C20" transform="translate(207,43)"/>
<path d="M0 0 C5.28 0 10.56 0 16 0 C16 3.96 16 7.92 16 12 C10.72 12 5.44 12 0 12 C0 8.04 0 4.08 0 0 Z " fill="#868686" transform="translate(96,240)"/>
<path d="M0 0 C5.28 0 10.56 0 16 0 C16 3.96 16 7.92 16 12 C13.9160597 11.88556397 11.83283507 11.75804453 9.75 11.625 C8.58984375 11.55539063 7.4296875 11.48578125 6.234375 11.4140625 C3 11 3 11 -1 9 C-0.67 6.03 -0.34 3.06 0 0 Z " fill="#765338" transform="translate(80,240)"/>
<path d="M0 0 C1.31534494 3.65857532 0.65468309 6.08026481 -0.4375 9.75 C-0.72496094 10.73484375 -1.01242188 11.7196875 -1.30859375 12.734375 C-1.53675781 13.48203125 -1.76492187 14.2296875 -2 15 C-2.66 15 -3.32 15 -4 15 C-4.33 16.65 -4.66 18.3 -5 20 C-7.31 19.67 -9.62 19.34 -12 19 C-12 14.05 -12 9.1 -12 4 C-8.7 4 -5.4 4 -2 4 C-1.67 3.01 -1.34 2.02 -1 1 C-0.67 0.67 -0.34 0.34 0 0 Z " fill="#573B28" transform="translate(250,173)"/>
<path d="M0 0 C13.79104478 8.98507463 13.79104478 8.98507463 18 16 C12.06 16 6.12 16 0 16 C0 10.72 0 5.44 0 0 Z " fill="#72B73B" transform="translate(207,27)"/>
<path d="M0 0 C0 5.28 0 10.56 0 16 C-5.28 16 -10.56 16 -16 16 C-14.68278763 10.73115054 -6.242016 0 0 0 Z " fill="#BADA8C" transform="translate(49,27)"/>
<path d="M0 0 C6.02273725 -0.20578829 11.27530221 0.48409378 17.125 1.875 C17.89714844 2.04902344 18.66929687 2.22304687 19.46484375 2.40234375 C23.73297338 3.38394085 27.86661035 4.53416533 32 6 C32 6.33 32 6.66 32 7 C21.44 7 10.88 7 0 7 C0 4.69 0 2.38 0 0 Z " fill="#B2DA72" transform="translate(159,4)"/>
<path d="M0 0 C3.90511093 -0.83022043 7.1030783 -0.94014999 11 0 C16.59816771 3.7397663 22.4429242 9.76618207 25 16 C17.5340751 16.36717663 17.5340751 16.36717663 15 14.625 C14 13 14 13 14 11 C13.44828125 10.75378906 12.8965625 10.50757813 12.328125 10.25390625 C9.53615902 8.75017961 7.21875464 6.92621901 4.75 4.9375 C3.85796875 4.22464844 2.9659375 3.51179688 2.046875 2.77734375 C1.37140625 2.19082031 0.6959375 1.60429687 0 1 C0 0.67 0 0.34 0 0 Z " fill="#91CA4B" transform="translate(208,27)"/>
<path d="M0 0 C8.25 0 16.5 0 25 0 C25 2.97 25 5.94 25 9 C15.75626096 8.83493323 8.21799381 4.86195292 0 1 C0 0.67 0 0.34 0 0 Z " fill="#916847" transform="translate(55,240)"/>
<path d="M0 0 C2.64 0 5.28 0 8 0 C8 4.95 8 9.9 8 15 C4.7 15 1.4 15 -2 15 C-2.19392201 9.47322267 -1.7479503 5.24385089 0 0 Z " fill="#8F6545" transform="translate(9,82)"/>
<path d="M0 0 C0.33 0 0.66 0 1 0 C1 9.57 1 19.14 1 29 C-1.31 29 -3.62 29 -6 29 C-5.50341703 23.33895411 -4.45489316 19.12325529 -2 14 C-3.32 13.34 -4.64 12.68 -6 12 C-4.02 8.04 -2.04 4.08 0 0 Z " fill="#AC835A" transform="translate(16,53)"/>
<path d="M0 0 C4.62 0 9.24 0 14 0 C10.89286504 6.08480596 6.95567279 11.26958506 2 16 C1.34 16 0.68 16 0 16 C0 10.72 0 5.44 0 0 Z " fill="#946B49" transform="translate(222,208)"/>
<path d="M0 0 C4.29 0 8.58 0 13 0 C13 4.95 13 9.9 13 15 C8.77257137 12.88628569 6.91167913 10.64390986 4.25 6.9375 C3.63318359 6.10508789 3.63318359 6.10508789 3.00390625 5.25585938 C0 1.15916995 0 1.15916995 0 0 Z " fill="#946B49" transform="translate(20,208)"/>
<path d="M0 0 C5.28 0 10.56 0 16 0 C16 2.31 16 4.62 16 7 C8.08 7.495 8.08 7.495 0 8 C0 5.36 0 2.72 0 0 Z " fill="#AAD761" transform="translate(96,4)"/>
<path d="M0 0 C5.28 0 10.56 0 16 0 C16 2.31 16 4.62 16 7 C10.72 7 5.44 7 0 7 C0 4.69 0 2.38 0 0 Z " fill="#507F30" transform="translate(159,59)"/>
<path d="M0 0 C5.28 0 10.56 0 16 0 C16 2.31 16 4.62 16 7 C10.72 7 5.44 7 0 7 C0 4.69 0 2.38 0 0 Z " fill="#517F32" transform="translate(64,59)"/>
<path d="M0 0 C5.28 0 10.56 0 16 0 C16 2.31 16 4.62 16 7 C10.72 7 5.44 7 0 7 C0 4.69 0 2.38 0 0 Z " fill="#6F914C" transform="translate(175,43)"/>
<path d="M0 0 C5.28 0 10.56 0 16 0 C16 2.31 16 4.62 16 7 C10.72 7 5.44 7 0 7 C0 4.69 0 2.38 0 0 Z " fill="#608F40" transform="translate(143,43)"/>
<path d="M0 0 C5.28 0 10.56 0 16 0 C16 2.31 16 4.62 16 7 C10.72 7 5.44 7 0 7 C0 4.69 0 2.38 0 0 Z " fill="#548434" transform="translate(96,43)"/>
<path d="M0 0 C5.28 0 10.56 0 16 0 C16 2.31 16 4.62 16 7 C10.72 7 5.44 7 0 7 C0 4.69 0 2.38 0 0 Z " fill="#6C8E4B" transform="translate(33,43)"/>
<path d="M0 0 C5.28 0 10.56 0 16 0 C16 2.31 16 4.62 16 7 C10.72 7 5.44 7 0 7 C0 4.69 0 2.38 0 0 Z " fill="#457428" transform="translate(191,27)"/>
<path d="M0 0 C5.28 0 10.56 0 16 0 C16 2.31 16 4.62 16 7 C10.72 7 5.44 7 0 7 C0 4.69 0 2.38 0 0 Z " fill="#4B7D2A" transform="translate(112,27)"/>
<path d="M0 0 C5.28 0 10.56 0 16 0 C16 2.31 16 4.62 16 7 C10.72 7 5.44 7 0 7 C0 4.69 0 2.38 0 0 Z " fill="#588B36" transform="translate(80,11)"/>
<path d="M0 0 C5.28 0 10.56 0 16 0 C16 2.31 16 4.62 16 7 C10.72 7 5.44 7 0 7 C0 4.69 0 2.38 0 0 Z " fill="#B8DE7B" transform="translate(112,4)"/>
<path d="M0 0 C5.28 0 10.56 0 16 0 C16 4.29 16 8.58 16 13 C10.29257425 9.3121249 5.01593106 5.58904331 0 1 C0 0.67 0 0.34 0 0 Z " fill="#573C28" transform="translate(33,224)"/>
<path d="M0 0 C2.55948414 3.41264552 4.0623575 6.06741591 5.6875 9.9375 C6.12449219 10.95714844 6.56148437 11.97679688 7.01171875 13.02734375 C7.96958468 15.9085136 8.20480497 17.99434869 8 21 C5.36 21 2.72 21 0 21 C0 14.07 0 7.14 0 0 Z " fill="#946847" transform="translate(238,61)"/>
<path d="M0 0 C4.95 0 9.9 0 15 0 C15 2.31 15 4.62 15 7 C10.05 7 5.1 7 0 7 C0 4.69 0 2.38 0 0 Z " fill="#467628" transform="translate(128,59)"/>
<path d="M0 0 C4.95 0 9.9 0 15 0 C15 2.31 15 4.62 15 7 C10.05 7 5.1 7 0 7 C0 4.69 0 2.38 0 0 Z " fill="#477528" transform="translate(49,43)"/>
<path d="M0 0 C4.95 0 9.9 0 15 0 C15 2.31 15 4.62 15 7 C10.05 7 5.1 7 0 7 C0 4.69 0 2.38 0 0 Z " fill="#CBE59D" transform="translate(128,4)"/>
<path d="M0 0 C-10.35294118 10.67647059 -10.35294118 10.67647059 -15 13 C-15.60191083 5.17515924 -15.60191083 5.17515924 -13.6875 1.4375 C-9.33926401 -0.88830065 -4.82751646 -0.29963895 0 0 Z " fill="#CCE4AB" transform="translate(48,27)"/>
<path d="M0 0 C5.28 0 10.56 0 16 0 C16 2.31 16 4.62 16 7 C12.34056353 6.31092878 8.77558041 5.43178734 5.1875 4.4375 C4.21167969 4.16808594 3.23585937 3.89867187 2.23046875 3.62109375 C1.12638672 3.31365234 1.12638672 3.31365234 0 3 C0 2.01 0 1.02 0 0 Z " fill="#B9DD80" transform="translate(175,11)"/>
<path d="M0 0 C5.68502535 1.64566523 10.76681636 4.29032784 16 7 C16 7.33 16 7.66 16 8 C10.72 8 5.44 8 0 8 C0 5.36 0 2.72 0 0 Z " fill="#83C24A" transform="translate(191,19)"/>
<path d="M0 0 C4.56048012 3.61251516 8.01665146 6.98797445 11 12 C3.52767962 12.36749117 3.52767962 12.36749117 1.25 10.78125 C-0.36575414 8.47880036 -0.30855839 7.09684299 -0.1875 4.3125 C-0.16042969 3.50425781 -0.13335937 2.69601563 -0.10546875 1.86328125 C-0.07066406 1.24839844 -0.03585938 0.63351563 0 0 Z " fill="#9ECE58" transform="translate(222,31)"/>
<path d="M0 0 C1.65 0 3.3 0 5 0 C4.72285156 0.73605469 4.44570312 1.47210938 4.16015625 2.23046875 C3.79792969 3.20628906 3.43570312 4.18210937 3.0625 5.1875 C2.70285156 6.15042969 2.34320312 7.11335938 1.97265625 8.10546875 C1.08843438 10.7368278 0.47431414 13.26894908 0 16 C-1.32 16 -2.64 16 -4 16 C-3.47606294 10.13190493 -2.23891142 5.45126259 0 0 Z " fill="#C2A471" transform="translate(10,66)"/>
<path d="M0 0 C0.33 0 0.66 0 1 0 C1 4.29 1 8.58 1 13 C-1.31 13 -3.62 13 -6 13 C-5.1905146 11.01959844 -4.37732831 9.04070923 -3.5625 7.0625 C-3.11003906 5.96035156 -2.65757813 4.85820313 -2.19140625 3.72265625 C-1 1 -1 1 0 0 Z " fill="#865B3D" transform="translate(16,53)"/>
<path d="M0 0 C1.32 0 2.64 0 4 0 C5.03590199 5.05002222 5.10251672 9.87416389 5 15 C4.01 15 3.02 15 2 15 C1.66223316 13.2508503 1.32996329 11.50063855 1 9.75 C0.814375 8.77546875 0.62875 7.8009375 0.4375 6.796875 C0 4 0 4 0 0 Z " fill="#D3B589" transform="translate(247,82)"/>
<path d="M0 0 C1.32 0 2.64 0 4 0 C3.7834375 1.485 3.7834375 1.485 3.5625 3 C2.99074821 6.99409465 2.49180166 10.99532937 2 15 C1.01 15 0.02 15 -1 15 C-1.09038099 9.84828377 -0.84681133 5.08086796 0 0 Z " fill="#AC7E56" transform="translate(5,82)"/>
<path d="M0 0 C2.64 0 5.28 0 8 0 C9.32 2.31 10.64 4.62 12 7 C8.8125 7.4375 8.8125 7.4375 5 7 C2.88841619 4.91454966 1.43260857 2.58793807 0 0 Z " fill="#548D2F" transform="translate(226,43)"/>
<path d="M0 0 C4.28477792 2.30718811 7.72291137 4.32966073 11 8 C7.37 8 3.74 8 0 8 C0 5.36 0 2.72 0 0 Z " fill="#AFD670" transform="translate(207,19)"/>
<path d="M0 0 C0.33 0 0.66 0 1 0 C1 3.3 1 6.6 1 10 C-1.64 10 -4.28 10 -7 10 C-2.22352941 2.75294118 -2.22352941 2.75294118 0 0 Z " fill="#60412C" transform="translate(32,40)"/>
<path d="M0 0 C0 1.65 0 3.3 0 5 C-4.95 5 -9.9 5 -15 5 C-12.18178397 3.12118931 -10.14357281 2.30990783 -6.9375 1.375 C-6.05964844 1.11460938 -5.18179688 0.85421875 -4.27734375 0.5859375 C-2 0 -2 0 0 0 Z " fill="#ADD76A" transform="translate(80,6)"/>
<path d="M0 0 C1.98 0 3.96 0 6 0 C4.02 3.63 2.04 7.26 0 11 C-0.33 11 -0.66 11 -1 11 C-1.02688151 9.35425434 -1.04634123 7.70838587 -1.0625 6.0625 C-1.07410156 5.14597656 -1.08570312 4.22945312 -1.09765625 3.28515625 C-1 1 -1 1 0 0 Z " fill="#9F9F9F" transform="translate(18,50)"/>
<path d="M0 0 C1.98 0 3.96 0 6 0 C6 3.3 6 6.6 6 10 C2.62358918 6.62358918 1.72549695 4.35482564 0 0 Z " fill="#785439" transform="translate(11,192)"/>
<path d="M0 0 C1.98 0 3.96 0 6 0 C6 3.3 6 6.6 6 10 C3.51275097 6.68366796 1.76890085 3.70626844 0 0 Z " fill="#7F573A" transform="translate(232,50)"/>
<path d="M0 0 C2.97 0 5.94 0 9 0 C5.68987756 3.31012244 4.46840411 3.50351065 0 4 C0 2.68 0 1.36 0 0 Z " fill="#906747" transform="translate(191,240)"/>
</svg>
