<?xml version="1.0" encoding="UTF-8"?>
<svg version="1.1" xmlns="http://www.w3.org/2000/svg" width="880" height="880">
<path d="M0 0 C1.53704086 0.00090637 1.53704086 0.00090637 3.10513306 0.00183105 C53.19555243 0.08156577 103.66469317 5.11384118 149.25 27.1875 C150.32121094 27.70183594 151.39242187 28.21617188 152.49609375 28.74609375 C160.09453544 32.63905444 166.66831054 37.80995815 173.25 43.1875 C174.12785156 43.88617188 175.00570312 44.58484375 175.91015625 45.3046875 C191.55114516 58.44212668 201.51521186 76.9843099 204.25 97.1875 C204.77041203 103.79320997 204.65128285 110.42909245 204.62231445 117.05004883 C204.62474756 119.01465548 204.62847188 120.97926088 204.63337708 122.94386292 C204.64272055 128.2415942 204.63341498 133.53913858 204.62004495 138.83685517 C204.60865368 144.40756873 204.61284398 149.9782741 204.61479187 155.54899597 C204.61567265 164.90386981 204.60464155 174.25867089 204.58618164 183.61352539 C204.565036 194.39031165 204.56150156 205.16699127 204.5677436 215.94379407 C204.57346288 226.35553047 204.5677603 236.76722976 204.55657005 247.1789608 C204.55195601 251.58878969 204.55103627 255.99859565 204.5531559 260.40842628 C204.55505673 265.61488954 204.54679877 270.82124621 204.5310955 276.02768517 C204.52689711 277.92498203 204.52597162 279.82228981 204.52878571 281.71958923 C204.54738203 296.51546595 204.03683309 311.38515471 200.125 325.75 C199.91472168 326.53173584 199.70444336 327.31347168 199.48779297 328.11889648 C192.32721644 353.1201886 175.19306782 372.85174416 152.69140625 385.49609375 C127.98354546 397.63968481 101.64023446 400.5015707 74.47973633 400.44287109 C72.33413562 400.44562732 70.18853593 400.44931103 68.04293823 400.45384216 C63.45257497 400.46190113 58.86226026 400.46413605 54.27189064 400.46189499 C46.99353252 400.45903916 39.71526969 400.47349842 32.43693542 400.49087524 C11.75020772 400.53768553 -8.93651262 400.56182939 -29.62329102 400.56835938 C-41.07177384 400.57212551 -52.52014774 400.59027573 -63.96858388 400.62345374 C-71.18336157 400.64351576 -78.39785545 400.64611345 -85.61264932 400.63517356 C-90.1260718 400.63254188 -94.63933345 400.64668868 -99.15271378 400.66525459 C-101.22248684 400.67051697 -103.29229067 400.66918388 -105.36205101 400.66021919 C-132.2974877 400.55309642 -156.49091108 405.64789362 -178.75 421.1875 C-180.11318359 422.13689453 -180.11318359 422.13689453 -181.50390625 423.10546875 C-186.64981402 426.91048008 -190.80809894 431.15931305 -194.75 436.1875 C-195.52214844 437.15042969 -196.29429687 438.11335938 -197.08984375 439.10546875 C-218.90520793 467.29887376 -221.96437484 501.62861216 -221.82516479 535.99781609 C-221.81222334 539.22125276 -221.80584276 542.44464761 -221.80102539 545.66810608 C-221.78970621 552.48708989 -221.77040132 559.30603813 -221.75 566.125 C-221.72638753 574.08393144 -221.7060595 582.04284435 -221.69406128 590.00180244 C-221.68756664 593.18221237 -221.67507134 596.36256323 -221.66235352 599.54295349 C-221.65872483 601.47256417 -221.65537262 603.4021754 -221.65234375 605.33178711 C-221.64717743 606.21942749 -221.64201111 607.10706787 -221.63668823 608.02160645 C-221.63650773 610.07725132 -221.68751484 612.13280501 -221.75 614.1875 C-223.68782659 616.12532659 -227.35303164 615.36481018 -229.99755859 615.38037109 C-230.75722427 615.38854858 -231.51688995 615.39672607 -232.29957581 615.40515137 C-234.83252173 615.43009897 -237.36541034 615.4465645 -239.8984375 615.4609375 C-241.20194593 615.46892302 -241.20194593 615.46892302 -242.53178787 615.47706985 C-247.15074024 615.50386941 -251.76966523 615.52320354 -256.38867188 615.53759766 C-260.18091595 615.5508192 -263.97260677 615.57843882 -267.76464844 615.61962891 C-272.36301972 615.66957356 -276.96089753 615.69379627 -281.55952835 615.70082474 C-283.29668176 615.70745043 -285.03382803 615.72243856 -286.77082443 615.74671555 C-314.24257295 616.10807517 -338.28444579 606.07882922 -358.25 587.25 C-401.792534 541.5303393 -409.95387155 473.21286512 -410 412.75 C-410.00100708 411.82184479 -410.00201416 410.89368958 -410.00305176 409.93740845 C-409.9658852 358.74976036 -403.67451337 297.51271131 -368.75 257.1875 C-368.32364258 256.6925 -367.89728516 256.1975 -367.45800781 255.6875 C-357.78800197 244.54854438 -347.67760777 235.43704152 -334.75 228.1875 C-333.6465625 227.56746094 -332.543125 226.94742188 -331.40625 226.30859375 C-325.14381287 222.98346945 -318.96736072 220.40543502 -312.1875 218.375 C-311.54006836 218.18010986 -310.89263672 217.98521973 -310.22558594 217.78442383 C-299.61699362 214.81564041 -288.92487582 213.88958691 -277.9493866 213.94699097 C-276.11962806 213.94442769 -276.11962806 213.94442769 -274.25290471 213.94181263 C-270.90732076 213.93911129 -267.56197663 213.94527204 -264.21642196 213.95536876 C-260.59357677 213.96407482 -256.97073786 213.96107808 -253.34788513 213.95956421 C-247.08441129 213.95851985 -240.82097939 213.96474927 -234.5575161 213.97603989 C-225.50181113 213.99235314 -216.44612626 213.99750883 -207.3904082 214.00001587 C-192.69507511 214.00438387 -177.99976434 214.01766859 -163.30444336 214.03662109 C-149.03654084 214.05500312 -134.7686444 214.06914824 -120.50073242 214.07763672 C-119.17962949 214.07842489 -119.17962949 214.07842489 -117.83183762 214.07922898 C-113.41307081 214.08183922 -108.99430396 214.0843666 -104.57553709 214.08685279 C-67.96700834 214.1075574 -31.35850738 214.14331218 5.25 214.1875 C5.25 204.9475 5.25 195.7075 5.25 186.1875 C1.49490807 186.19083092 1.49490807 186.19083092 -2.33604431 186.19422913 C-25.86685214 186.21462761 -49.3976588 186.22952892 -72.92847347 186.23931217 C-85.02743312 186.24447582 -97.1263863 186.25151981 -109.2253418 186.26293945 C-119.76666806 186.27288421 -130.30798964 186.27935293 -140.84932047 186.28158849 C-146.43458134 186.28289596 -152.01982879 186.28598404 -157.60508537 186.29323006 C-162.85559648 186.29998699 -168.10608858 186.30211763 -173.35660362 186.30060768 C-175.28964084 186.30088416 -177.22267865 186.30289121 -179.15571213 186.30670547 C-181.78282261 186.31163762 -184.40986009 186.31050007 -187.03697205 186.30775452 C-188.19988727 186.31212378 -188.19988727 186.31212378 -189.38629574 186.31658131 C-194.63587879 186.30162121 -194.63587879 186.30162121 -195.75 185.1875 C-195.86140198 182.05443436 -195.90740864 178.94321571 -195.91113281 175.80932617 C-195.91609772 174.82383789 -195.92106262 173.83834961 -195.92617798 172.82299805 C-195.94085441 169.54214796 -195.94761402 166.26134637 -195.953125 162.98046875 C-195.95887613 160.70136005 -195.96463386 158.42225137 -195.97039795 156.1431427 C-195.98092634 151.35039036 -195.98675558 146.55765487 -195.99023438 141.76489258 C-195.9956942 135.64645035 -196.01966044 129.52823349 -196.04820633 123.40986156 C-196.06691436 118.69384636 -196.07204285 113.97788426 -196.07357025 109.2618351 C-196.07658369 107.00816949 -196.08456763 104.75450451 -196.09775543 102.50087547 C-196.22642274 78.80286528 -192.35540535 62.15353264 -175.21875 44.59375 C-131.42827344 2.86400175 -56.95795151 -0.06253707 0 0 Z M-135.0625 73.875 C-141.91657478 81.22755295 -145.26212208 90.13781381 -146.0625 100.0625 C-145.70599865 110.22278837 -141.01233067 119.91425163 -133.8671875 127.07421875 C-126.09178571 133.32287161 -116.71211215 136.51457345 -106.75 136.1875 C-96.53190629 134.80918386 -87.55067059 130.95964342 -80.875 122.9375 C-73.98514426 113.11579076 -72.63230754 103.94091863 -73.75 92.1875 C-75.5737782 82.53717696 -81.21913775 75.46362943 -88.90234375 69.5234375 C-103.69186505 59.81515288 -122.17832097 61.90939284 -135.0625 73.875 Z " fill="#3772A4" transform="translate(434.75,24.8125)"/>
<path d="M0 0 C9.98936662 -0.09342489 19.97862624 -0.16412763 29.96834373 -0.20724869 C34.60893764 -0.22796352 39.24922873 -0.25597946 43.88964844 -0.30175781 C48.38307212 -0.34579945 52.87620792 -0.3692575 57.36983109 -0.37950897 C59.06872707 -0.38679735 60.76761057 -0.40102304 62.46638107 -0.42292023 C90.90762654 -0.77434036 114.02937725 8.38025821 134.77734375 27.8125 C158.51147876 51.1712269 170.48413452 81.96037215 178.3125 113.75 C178.65825073 115.14762573 178.65825073 115.14762573 179.01098633 116.57348633 C183.313232 135.00694218 184.46497894 152.97826009 184.43359375 171.86328125 C184.43817095 174.31308637 184.443481 176.76289021 184.44947815 179.21269226 C184.4583477 184.31657162 184.45605725 189.42029399 184.44604492 194.52416992 C184.43456852 200.9986894 184.45477918 207.47266234 184.48396206 213.94711018 C184.50248875 218.9981163 184.50199903 224.04899543 184.49632454 229.10002708 C184.4961733 231.48415073 184.50204983 233.86828411 184.51461601 236.25237465 C184.60858878 256.99751198 182.09057468 276.60440188 176.125 296.5 C175.77477783 297.68795166 175.42455566 298.87590332 175.0637207 300.09985352 C168.68802739 321.36139835 159.6434777 342.08973009 145 359 C144.56719727 359.50821289 144.13439453 360.01642578 143.68847656 360.54003906 C123.74051699 383.83937242 96.70872751 398.26769295 66 401 C61.97113366 401.1391913 57.94549225 401.13076855 53.91455078 401.12025452 C52.71123454 401.12110894 51.5079183 401.12196337 50.26813793 401.12284368 C46.94552941 401.12420151 43.62298035 401.12109337 40.30037904 401.11606562 C36.71084743 401.11173405 33.12131755 401.11320946 29.53178406 401.1139679 C23.31843636 401.11449142 17.1050992 401.11136256 10.89175415 401.10573006 C1.9083782 401.09759178 -7.07499267 401.09499745 -16.0583719 401.09374207 C-30.63445785 401.09155521 -45.21053819 401.08490503 -59.78662109 401.07543945 C-73.94319633 401.06625587 -88.09977004 401.05917967 -102.25634766 401.05493164 C-103.56597953 401.05453756 -103.56597953 401.05453756 -104.90206861 401.05413551 C-109.28223641 401.05283044 -113.66240421 401.05156674 -118.04257202 401.05032361 C-154.3617188 401.03996239 -190.68085859 401.02207817 -227 401 C-227.33 410.24 -227.66 419.48 -228 429 C-162 429 -96 429 -28 429 C-26.84979593 448.55346916 -26.84979593 448.55346916 -26.83886719 455.61816406 C-26.83390228 456.43857178 -26.82893738 457.25897949 -26.82382202 458.10424805 C-26.80955469 460.741383 -26.8024649 463.3784583 -26.796875 466.015625 C-26.79404762 466.93260918 -26.79122025 467.84959335 -26.78830719 468.79436493 C-26.77347124 473.63342052 -26.76413987 478.47244743 -26.75976562 483.31152344 C-26.75425722 488.26582661 -26.73013445 493.21985833 -26.70179367 498.17407608 C-26.68306829 502.02969115 -26.67795677 505.88524146 -26.67642975 509.74089813 C-26.67343267 511.56670388 -26.66550582 513.39250931 -26.65224457 515.21826935 C-26.50726129 536.68245032 -30.96741206 553.53563686 -46.21484375 569.25195312 C-87.81385543 609.98621511 -158.15846733 613.79616148 -213 615 C-214.02254883 615.02336426 -215.04509766 615.04672852 -216.09863281 615.07080078 C-278.85646068 616.29790915 -355.13316106 610.59663919 -403.125 565.375 C-424.25388366 543.43085395 -427.20410326 518.49659758 -427.06933594 489.34277344 C-427.06409261 487.38816938 -427.05926733 485.43356417 -427.05482483 483.47895813 C-427.04126754 478.20393428 -427.0208181 472.92896015 -426.99825954 467.65396786 C-426.98433256 464.34930412 -426.9717165 461.04463786 -426.9595108 457.73996735 C-426.91655535 446.18550102 -426.86727892 434.63107851 -426.81298828 423.07666016 C-426.76276844 412.34709126 -426.72753556 401.61754188 -426.69905448 390.88789535 C-426.67375167 381.64068046 -426.63710406 372.39355321 -426.59196877 363.14641404 C-426.56531805 357.63908332 -426.54324509 352.13183072 -426.53295135 346.62444305 C-426.522929 341.4400783 -426.49867438 336.25596351 -426.46401787 331.07170677 C-426.45372975 329.18248994 -426.44830833 327.29323845 -426.44845009 325.40399361 C-426.44506295 310.77363127 -425.50657305 296.15548615 -420.3125 282.3125 C-420.05903809 281.61954834 -419.80557617 280.92659668 -419.54443359 280.21264648 C-412.44496399 261.59517115 -399.858822 245.64058805 -383 235 C-382.43812988 234.64260742 -381.87625977 234.28521484 -381.29736328 233.91699219 C-357.8678822 219.23359783 -330.98735362 215.36587939 -303.76049805 215.48583984 C-301.63707475 215.48036067 -299.51365541 215.47310868 -297.39024353 215.46424866 C-292.86703914 215.44906623 -288.344061 215.44604446 -283.82083702 215.45301437 C-276.65226467 215.46392154 -269.48392335 215.44627906 -262.31538391 215.42520142 C-250.97137388 215.39509441 -239.62743369 215.38326109 -228.28338701 215.37962496 C-207.9735358 215.37295242 -187.66373329 215.34372567 -167.35394126 215.2945286 C-160.2434811 215.27814391 -153.13312253 215.27259141 -146.02264535 215.27611899 C-141.5870442 215.2765592 -137.15148077 215.26894556 -132.71589088 215.25944328 C-130.67667927 215.25678459 -128.63745977 215.2574706 -126.59825134 215.26195335 C-92.71328574 215.33123227 -58.95528782 210.13748101 -33.54296875 185.79296875 C-26.80006159 178.96309641 -21.61555972 171.42014256 -17 163 C-16.39542969 161.94683594 -15.79085938 160.89367187 -15.16796875 159.80859375 C-11.48436672 153.01118433 -8.91855588 146.21479522 -6.75 138.8125 C-6.39881104 137.63107422 -6.39881104 137.63107422 -6.04052734 136.42578125 C-1.19274291 118.8556034 -0.53652125 101.41272683 -0.48828125 83.30078125 C-0.47139425 80.88412082 -0.45323877 78.46746895 -0.43388367 76.05082703 C-0.38681378 69.75628337 -0.3567281 63.46177444 -0.33044434 57.16711426 C-0.30041934 50.71745952 -0.25396563 44.26792407 -0.20898438 37.81835938 C-0.1234419 25.212305 -0.05532111 12.60622145 0 0 Z M-143 493 C-148.80009823 501.57049809 -150.78769046 511.0620973 -149.53515625 521.26953125 C-147.49375265 531.68515982 -142.55656767 539.87520896 -133.75 545.8125 C-125.1149033 550.93739479 -116.54535193 553.45335832 -106.56640625 551.53125 C-96.49083799 548.89053944 -87.92335973 543.66448897 -82 535 C-76.45683193 524.89385821 -75.27330333 514.02160192 -78.4375 502.875 C-82.27123312 492.5979049 -90.22124928 485.60176505 -100 481 C-116.01746198 474.66751503 -132.08873217 480.42701615 -143 493 Z " fill="#FED242" transform="translate(666,234)"/>
</svg>
