<?xml version="1.0" encoding="UTF-8"?>
<svg version="1.1" xmlns="http://www.w3.org/2000/svg" width="512" height="512">
<path d="M0 0 C2.02103232 -0.00300026 4.04206407 -0.00640475 6.06309509 -0.01017761 C11.50367923 -0.01893468 16.9442476 -0.02135222 22.3848381 -0.0219934 C25.79880686 -0.02270876 29.21277172 -0.0248522 32.6267395 -0.02749062 C44.57944997 -0.03671737 56.53214937 -0.04082896 68.48486328 -0.04003906 C79.55749073 -0.03943934 90.6300693 -0.0499773 101.7026844 -0.06578273 C111.26597379 -0.07893831 120.82924736 -0.08421961 130.3925457 -0.08358365 C136.07893474 -0.08333097 141.76528028 -0.08605338 147.45166016 -0.0967617 C235.00797061 -0.24994927 235.00797061 -0.24994927 261.91772461 26.05761719 C264.88315121 28.98555125 264.88315121 28.98555125 268.390625 31.18041992 C278.49407586 36.33651984 285.46358768 54.42988521 288.8203125 64.60620117 C289.27713923 66.11578542 289.7227877 67.6288054 290.15625 69.14526367 C290.34735352 69.8073584 290.53845703 70.46945313 290.73535156 71.15161133 C294.69512826 86.28284516 294.57553747 101.77952162 294.5559082 117.29248047 C294.5602643 119.58586288 294.56545042 121.87924384 294.57139587 124.17262268 C294.58470192 130.35885496 294.58537385 136.54502582 294.58283257 142.7312696 C294.58175693 147.91697797 294.58666142 153.10267422 294.591438 158.28837997 C294.60313555 171.23341257 294.60232482 184.17840631 294.59588119 197.12344054 C294.59071778 208.31476163 294.60195889 219.50599553 294.62097941 230.69729938 C294.6404455 242.24099528 294.64830836 253.78463978 294.64485615 265.32835323 C294.64305354 271.78817946 294.64557639 278.24792585 294.65957069 284.70773888 C294.67225416 290.78920292 294.67010662 296.87049404 294.65715981 302.9519558 C294.65481703 305.16686566 294.6574447 307.3817881 294.66578293 309.5966835 C294.77210126 340.06720517 290.86483688 370.78853983 268.8581543 393.6940918 C245.20076506 417.39993638 216.55805422 423.49664657 183.91372681 423.55184937 C181.79266271 423.54602007 179.67159947 423.5398758 177.55053711 423.53344727 C175.25479383 423.53752449 172.95905251 423.54287275 170.66331482 423.54937744 C164.49394076 423.56291928 158.32471915 423.55780749 152.15534282 423.54824018 C145.6598376 423.54057574 139.1643443 423.54770776 132.6688385 423.55239868 C121.07210498 423.55818325 109.47544022 423.5489374 97.87871755 423.53362067 C87.40796207 423.52021829 76.93730643 423.52255347 66.46655273 423.53637695 C54.24458842 423.55250532 42.02269501 423.55836875 29.80072027 423.54954016 C23.35386199 423.5448928 16.90707216 423.54415719 10.46021843 423.55414963 C4.396738 423.56289369 -1.66655614 423.55666316 -7.73001671 423.53946686 C-9.93889687 423.53554158 -12.14779304 423.53656694 -14.35666656 423.54325485 C-47.28948055 423.63368088 -76.60789266 417.86477633 -101.46875 394.83276367 C-125.13729931 369.64475194 -128.04530029 337.14933854 -127.97753906 304.25830078 C-127.98025587 302.01724637 -127.98382064 299.77619285 -127.98815918 297.53514099 C-127.99720296 291.50217736 -127.99377243 285.46928285 -127.98740101 279.43631816 C-127.98229983 273.09154129 -127.98704376 266.74676992 -127.99017334 260.4019928 C-127.99403243 249.07284145 -127.9878593 237.74372486 -127.97765467 226.41458047 C-127.96871928 216.17822705 -127.97027603 205.94191901 -127.97949219 195.70556641 C-127.99023604 183.76713119 -127.99415778 171.82872345 -127.98826766 159.89028174 C-127.98516562 153.58936415 -127.98468975 147.28847771 -127.99134064 140.98756218 C-127.99715964 135.0620586 -127.99303464 129.13663991 -127.98155212 123.2111454 C-127.97892986 121.04938268 -127.97962844 118.8876127 -127.98407745 116.72585297 C-128.02587348 94.33637258 -126.48870152 72.66216187 -116.71875 52.14526367 C-116.30109375 51.24549805 -115.8834375 50.34573242 -115.453125 49.41870117 C-111.40051918 41.33678037 -105.75765734 34.79535952 -99.71875 28.14526367 C-99.03039062 27.38084961 -98.34203125 26.61643555 -97.6328125 25.82885742 C-95.54409871 23.99164183 -94.36418025 23.76560681 -91.71875 23.14526367 C-90.25914391 22.01095739 -88.84730357 20.81430366 -87.46875 19.58276367 C-62.93757191 -0.51115721 -30.08804004 -0.00903832 0 0 Z " fill="#1D1F23" transform="translate(172.71875,47.854736328125)"/>
<path d="M0 0 C8.34227815 1.81353873 16.64022449 3.80521435 24.9375 5.8125 C25.67299072 5.99018921 26.40848145 6.16787842 27.16625977 6.35095215 C36.18145734 8.53284005 45.16314715 10.78778551 54.07983398 13.34692383 C59.47521044 14.88724527 64.9079256 16.18212307 70.37805176 17.4276123 C75.30674802 18.56500375 80.16848755 19.8603977 85.03125 21.25 C96.29042079 24.41983839 107.64477128 27.19847547 119 30 C130.90995601 32.93838502 142.80568606 35.88391058 154.61286926 39.21461487 C161.7158233 41.21606929 168.85571144 43.06032659 176.00662231 44.88183594 C179.01874467 45.64929216 182.02966751 46.42140798 185.04069519 47.19314575 C187.28516287 47.76833595 189.52977847 48.34294595 191.77441406 48.91748047 C197.70599603 50.43643753 203.63547278 51.96336331 209.5625 53.5 C210.50697998 53.74290771 211.45145996 53.98581543 212.42456055 54.23608398 C213.70133667 54.56781616 213.70133667 54.56781616 215.00390625 54.90625 C216.09940796 55.18952148 216.09940796 55.18952148 217.21704102 55.47851562 C219 56 219 56 221 57 C218.9915073 69.23594897 216.09957312 81.2643534 212.70703125 93.18359375 C209.74279955 103.73241154 207.12104708 114.36174033 204.5 125 C201.70013117 136.36405825 198.85538534 147.69954547 195.67919922 158.96496582 C194.13799331 164.44560636 192.75983156 169.94757873 191.5 175.5 C189.80662369 182.78958183 187.92730275 189.99551973 185.875 197.19140625 C184.00801454 203.80753597 182.43591681 210.48043724 180.87719727 217.17480469 C179.3537875 223.65988785 177.62857612 230.06652893 175.8046875 236.47265625 C174.20521836 242.13618533 172.83653399 247.83231995 171.52807617 253.5690918 C169.62963139 261.78798036 167.31435465 269.89027367 165 278 C159.94946473 277.46865301 155.46285948 276.67715084 150.625 275.0625 C146.02547943 273.59255013 141.53871973 272.43413044 136.796875 271.55859375 C128.08261388 269.81817568 119.44094726 267.59573004 111.05859375 264.6484375 C107.97803563 263.67809092 104.84270779 263.12310581 101.671875 262.52734375 C95.17283338 261.24463817 88.73925596 259.67144698 82.5 257.4375 C79.11770202 256.25946444 75.85387057 255.59581076 72.3125 255.0625 C66.41633154 254.17051554 60.83305044 252.62202317 55.12890625 250.90234375 C52.42533904 250.12266332 49.76641812 249.50157487 47 249 C47 248.34 47 247.68 47 247 C46.34257812 246.98582031 45.68515625 246.97164062 45.0078125 246.95703125 C35.86943548 246.49887414 27.61836595 244.1151773 18.90673828 241.53515625 C16.62528698 240.89483086 14.33368776 240.40827937 12 240 C12 239.34 12 238.68 12 238 C10.51113281 237.85304688 10.51113281 237.85304688 8.9921875 237.703125 C0.67751174 236.81245075 -7.00902925 235.39436809 -15.01171875 232.90234375 C-17.66823341 232.1001805 -20.27136344 231.49105333 -23 231 C-23 230.34 -23 229.68 -23 229 C-23.70382813 228.97421875 -24.40765625 228.9484375 -25.1328125 228.921875 C-33.52739146 228.43967986 -40.98910368 226.45370069 -49 224 C-51.65931523 223.29422866 -54.32448559 222.64212346 -57 222 C-56.1306001 215.99700072 -54.66963588 210.1410241 -53.25 204.25 C-52.98195557 203.13399414 -52.71391113 202.01798828 -52.43774414 200.86816406 C-50.70897301 193.74011869 -48.84441431 186.66828869 -46.82739258 179.6171875 C-44.94439378 172.97042078 -43.37247756 166.26106456 -41.80444336 159.53417969 C-40.65683957 154.64772516 -39.42086118 149.81609172 -38 145 C-36.05747181 138.41263627 -34.46843365 131.76233982 -32.92578125 125.07226562 C-31.12838169 117.33379703 -29.07286656 109.66814907 -27 102 C-21.08259552 80.20150433 -21.08259552 80.20150433 -15.72290039 58.26123047 C-14.32204386 52.17747306 -12.72725515 46.15151331 -11.10595703 40.12329102 C-9.94593617 35.80919221 -8.80998985 31.48891302 -7.67578125 27.16796875 C-7.28329979 25.67640685 -6.8907215 24.18487043 -6.49804688 22.69335938 C-5.89788087 20.41362246 -5.29840795 18.13371392 -4.70092773 15.85327148 C-4.11123709 13.60346577 -3.51877818 11.35440492 -2.92578125 9.10546875 C-2.74662674 8.41913864 -2.56747223 7.73280853 -2.38288879 7.02568054 C-1.11379786 2.22759573 -1.11379786 2.22759573 0 0 Z " fill="#CED3DA" transform="translate(174,117)"/>
<path d="M0 0 C0 0.99 0 1.98 0 3 C-1.33333333 4.33333333 -2.66666667 5.66666667 -4 7 C-4.98358368 8.63930613 -5.96090774 10.28367664 -6.87109375 11.96484375 C-8.14505173 14.26149464 -9.54144001 16.46308728 -10.9375 18.6875 C-20.40331842 34.56718531 -24.16534777 52.60825966 -24.13371277 70.94792175 C-24.13597833 71.92155381 -24.13824388 72.89518587 -24.14057809 73.89832193 C-24.14688517 77.14601264 -24.14609084 80.39366128 -24.14526367 83.64135742 C-24.14825724 85.97609511 -24.15166023 88.3108323 -24.15544128 90.64556885 C-24.16426598 96.9784133 -24.16661877 103.31124423 -24.16725707 109.64409423 C-24.16796852 113.60416984 -24.17010465 117.56424203 -24.17275429 121.52431679 C-24.18152608 134.63686912 -24.18617463 147.74941296 -24.18542381 160.86196824 C-24.18538386 161.56792155 -24.1853439 162.27387487 -24.18530273 163.0012207 C-24.18526185 163.70804359 -24.18522097 164.41486647 -24.18517885 165.14310823 C-24.1847727 176.58928305 -24.19433597 188.03542493 -24.2084411 199.48159023 C-24.22283474 211.25550782 -24.22970962 223.02940937 -24.22884732 234.80333596 C-24.22851635 241.40497171 -24.23141625 248.00657712 -24.24202538 254.6082058 C-24.25173691 260.82082795 -24.25176459 267.03337741 -24.24450874 273.2460022 C-24.24346665 275.51909301 -24.24580335 277.79218842 -24.2518692 280.06527138 C-24.27972287 291.2311153 -24.28005134 302.02429246 -22 313 C-21.79857533 314.09389431 -21.79857533 314.09389431 -21.59308147 315.2098875 C-18.55385704 331.09334633 -11.39407578 344.68246535 -1 357 C-0.39929688 357.71414063 0.20140625 358.42828125 0.8203125 359.1640625 C16.1456225 375.81623916 40.11939882 385.03604176 62.38760424 386.11576867 C69.32554642 386.31119022 76.26550738 386.28323073 83.20556641 386.2746582 C85.54115969 386.2790116 87.87675155 386.28419683 90.21234131 386.29014587 C96.52671165 386.30348195 102.84102194 386.30412038 109.15540361 386.30158257 C115.11384325 386.30037263 121.07227464 386.30660344 127.03071098 386.31201603 C139.55837806 386.32286587 152.08601815 386.32074168 164.61368673 386.31463119 C176.03287741 386.30946862 187.45198262 386.32070458 198.87115641 386.33972941 C210.63848689 386.3591816 222.40577708 386.36735067 234.17312372 386.36360615 C240.76259272 386.3617047 247.35199826 386.36434803 253.94145584 386.37832069 C260.14516842 386.3909841 266.34871131 386.38887507 272.55242157 386.37590981 C274.81493311 386.37356262 277.07745692 386.37621107 279.33995438 386.38453293 C307.8996626 386.48191343 334.81453991 382.76995774 357 363 C357.75925781 362.33484375 358.51851563 361.6696875 359.30078125 360.984375 C377.67055531 343.85194323 385.33161 318.96459152 386.27357101 294.46399117 C386.42145837 288.41164171 386.40643145 282.36059254 386.38818359 276.30688477 C386.39226002 274.00305942 386.39760785 271.69923603 386.40411377 269.39541626 C386.41766659 263.19905747 386.41253873 257.00285031 386.40297651 250.80648923 C386.39531606 244.28341885 386.40244317 237.76036039 386.40713501 231.23728943 C386.4135181 219.58837206 386.40366941 207.93951776 386.388357 196.29061132 C386.37496069 185.77468044 386.3772841 175.258849 386.39111328 164.74291992 C386.40724637 152.46968263 386.41310213 140.19650852 386.40427649 127.92326206 C386.39963042 121.44897037 386.3988897 114.97474682 386.40888596 108.50045967 C386.41763604 102.40908336 386.41138883 96.31789236 386.39420319 90.2265358 C386.39028069 88.00840116 386.39129829 85.79025058 386.39799118 83.57212257 C386.4614504 60.37893121 385.19862105 37.43580086 372.35546875 17.390625 C371 15 371 15 371 12 C370.34 12 369.68 12 369 12 C368.566875 11.0409375 368.566875 11.0409375 368.125 10.0625 C367.17176549 7.84793921 367.17176549 7.84793921 365 7 C365.33 6.01 365.66 5.02 366 4 C389.26652764 28.06631453 392.31479637 59.42612053 392.2746582 91.1472168 C392.2790143 93.44059921 392.28420042 95.73398017 392.29014587 98.02735901 C392.30345192 104.21359128 392.30412385 110.39976215 392.30158257 116.58600593 C392.30050693 121.7717143 392.30541142 126.95741054 392.310188 132.1431163 C392.32188555 145.0881489 392.32107482 158.03314263 392.31463119 170.97817687 C392.30946778 182.16949796 392.32070889 193.36073186 392.33972941 204.55203571 C392.3591955 216.0957316 392.36705836 227.63937611 392.36360615 239.18308955 C392.36180354 245.64291578 392.36432639 252.10266218 392.37832069 258.5624752 C392.39100416 264.64393925 392.38885662 270.72523037 392.37590981 276.80669212 C392.37356703 279.02160199 392.3761947 281.23652442 392.38453293 283.45141983 C392.49085126 313.9219415 388.58358688 344.64327616 366.5769043 367.54882812 C342.91951506 391.25467271 314.27680422 397.3513829 281.63247681 397.40658569 C279.51141271 397.4007564 277.39034947 397.39461212 275.26928711 397.38818359 C272.97354383 397.39226082 270.67780251 397.39760908 268.38206482 397.40411377 C262.21269076 397.41765561 256.04346915 397.41254382 249.87409282 397.40297651 C243.3785876 397.39531207 236.8830943 397.40244409 230.3875885 397.40713501 C218.79085498 397.41291957 207.19419022 397.40367373 195.59746755 397.388357 C185.12671207 397.37495461 174.65605643 397.3772898 164.18530273 397.39111328 C151.96333842 397.40724165 139.74144501 397.41310508 127.51947027 397.40427649 C121.07261199 397.39962913 114.62582216 397.39889351 108.17896843 397.40888596 C102.115488 397.41763002 96.05219386 397.41139949 89.98873329 397.39420319 C87.77985313 397.3902779 85.57095696 397.39130327 83.36208344 397.39799118 C50.42926945 397.48841721 21.11085734 391.71951266 -3.75 368.6875 C-27.41854931 343.49948827 -30.32655029 311.00407486 -30.25878906 278.11303711 C-30.26150587 275.8719827 -30.26507064 273.63092918 -30.26940918 271.38987732 C-30.27845296 265.35691369 -30.27502243 259.32401918 -30.26865101 253.29105449 C-30.26354983 246.94627762 -30.26829376 240.60150625 -30.27142334 234.25672913 C-30.27528243 222.92757778 -30.2691093 211.59846119 -30.25890467 200.2693168 C-30.24996928 190.03296338 -30.25152603 179.79665534 -30.26074219 169.56030273 C-30.27148604 157.62186752 -30.27540778 145.68345978 -30.26951766 133.74501806 C-30.26641562 127.44410048 -30.26593975 121.14321403 -30.27259064 114.84229851 C-30.27840964 108.91679493 -30.27428464 102.99137624 -30.26280212 97.06588173 C-30.26017986 94.90411901 -30.26087844 92.74234903 -30.26532745 90.58058929 C-30.30712348 68.19110891 -28.76995152 46.5168982 -19 26 C-18.58234375 25.10023437 -18.1646875 24.20046875 -17.734375 23.2734375 C-13.32466898 14.4793686 -6.9358617 6.9358617 0 0 Z " fill="#010101" transform="translate(75,74)"/>
<path d="M0 0 C8.20220617 0.47121557 15.83526633 2.30927753 23.75 4.4375 C24.94238281 4.75009766 26.13476562 5.06269531 27.36328125 5.38476562 C32.6364207 6.77817063 37.83728998 8.23525506 43 10 C41.9533864 17.96676023 40.10715514 25.54768789 37.89892578 33.25292969 C36.03066479 39.78975958 34.44403007 46.35511368 33 53 C25.93957822 52.40252365 19.39439333 50.97389522 12.5625 49.125 C11.10360352 48.74021484 11.10360352 48.74021484 9.61523438 48.34765625 C-8.45716276 43.54283724 -8.45716276 43.54283724 -10 42 C-9.92121772 34.60695568 -8.05047192 27.52417591 -6.125 20.4375 C-5.86847656 19.46103516 -5.61195313 18.48457031 -5.34765625 17.47851562 C-3.77580399 11.57419621 -2.01204185 5.76911196 0 0 Z " fill="#1E1F24" transform="translate(240,230)"/>
<path d="M0 0 C0.66 0.33 1.32 0.66 2 1 C-0.94875437 16.20165295 -4.85738034 31.08342559 -9 46 C-10.32 45.67 -11.64 45.34 -13 45 C-12.5771875 43.78183594 -12.154375 42.56367188 -11.71875 41.30859375 C-9.7152572 35.29693958 -8.11505602 29.18772338 -6.5 23.0625 C-4.45530003 15.33460559 -2.35684114 7.63923006 0 0 Z " fill="#B0B5BD" transform="translate(348,349)"/>
<path d="M0 0 C0.66 0.33 1.32 0.66 2 1 C1.01 5.95 0.02 10.9 -1 16 C-1.66 16 -2.32 16 -3 16 C-2.57910004 10.39538469 -2.08386889 5.27913453 0 0 Z " fill="#B6BBC2" transform="translate(348,349)"/>
<path d="M0 0 C0.99 0.33 1.98 0.66 3 1 C1.35 2.98 -0.3 4.96 -2 7 C-2 3.89448334 -1.4606285 2.64738916 0 0 Z " fill="#121314" transform="translate(77,72)"/>
<path d="M0 0 C0.66 0.33 1.32 0.66 2 1 C1.49287967 4.71888239 0.88391785 7.73454239 -1 11 C-2.41687119 6.74938644 -1.19320039 4.28148375 0 0 Z " fill="#B6BBC1" transform="translate(351,337)"/>
<path d="M0 0 C0.66 0 1.32 0 2 0 C1.67 1.98 1.34 3.96 1 6 C-0.32 5.67 -1.64 5.34 -3 5 C-1.625 2.5 -1.625 2.5 0 0 Z " fill="#A4A9B0" transform="translate(338,389)"/>
<path d="" fill="#000000" transform="translate(0,0)"/>
<path d="" fill="#000000" transform="translate(0,0)"/>
<path d="" fill="#000000" transform="translate(0,0)"/>
<path d="" fill="#000000" transform="translate(0,0)"/>
<path d="" fill="#000000" transform="translate(0,0)"/>
<path d="" fill="#000000" transform="translate(0,0)"/>
<path d="" fill="#000000" transform="translate(0,0)"/>
<path d="" fill="#000000" transform="translate(0,0)"/>
<path d="" fill="#000000" transform="translate(0,0)"/>
<path d="" fill="#000000" transform="translate(0,0)"/>
<path d="" fill="#000000" transform="translate(0,0)"/>
</svg>
