<svg id="untitled" xmlns="http://www.w3.org/2000/svg" xmlns:xlink="http://www.w3.org/1999/xlink" viewBox="0 0 500 500" shape-rendering="geometricPrecision" text-rendering="geometricPrecision" project-id="d86b02ec6e72414da47b69985145d7e8" export-id="6854c5c7aa64429cb60e8378bf874ad6" cached="false"><path id="untitled-s-path1" d="M56.134259,21.990741c349.537037-1.157408,380.787038,4.62963,393.518519,99.537037s-8.101853,128.472222-57.870371,128.472222-261.574075-15.046296-298.611112,0-79.861112,101.851851-48.611112,190.972222q31.25,89.120371,406.25,27.777778" transform="matrix(1 0 0 0.81946 0.000002 46.25515)" fill="none" stroke="#26c276" stroke-width="3" stroke-dasharray="10"/><g id="untitled-u-flag-maps-and-flags-svgrepo-com" transform="matrix(.105075 0 0 0.105075 440.69334 379.350801)"><path id="untitled-s-path2" d="M398.09,204.413l79.96,119.295h-303.55c-11.762,0-21.28-9.531-21.28-21.28c0-5.868,2.386-11.194,6.229-15.05c3.843-3.843,134.023-202.259,134.023-202.259h184.578L398.09,204.413Z" fill="#f95428"/><path id="untitled-s-path3" d="M314.364,85.118v238.589h-139.865c-11.762,0-21.28-9.531-21.28-21.28c0-2.605,0-104.115,0-104.115L293.471,85.118h20.893Z" fill="#e54728"/><path id="untitled-s-path4" d="M293.471,85.118v174.751c0-5.868-33.944,12.587-37.787,8.731-3.856-3.843-14.754-.645-20.635-.645l-68.997.645-12.832-30.011h-86.563L66.657,0h200.594c14.48,0,26.22,11.739,26.22,26.22v58.898Z" fill="#f95428"/><path id="untitled-s-path5" d="M287.242,244.819c3.843,3.856,6.229,9.182,6.229,15.05c0,11.749-9.531,21.28-21.28,21.28h-97.693c-5.881,0-11.207,2.386-15.05,6.229-3.843,3.856-6.229,9.182-6.229,15.05v-63.839h69.32h49.652c5.882,0,11.195,2.386,15.051,6.23Z" fill="#db3923"/><rect id="untitled-s-rect1" width="30.398" height="238.589" rx="0" ry="0" transform="translate(66.657 0)" fill="#e54728"/><polygon id="untitled-s-polygon1" points="72.46,238.589 72.46,512 33.951,512 33.951,0 72.46,0" fill="#b27214"/><polygon id="untitled-s-polygon2" points="50.197,238.589 50.197,512 33.951,512 33.951,0 50.197,0" fill="#995c0d"/></g></svg>
